SplineFontDB: 3.0
FontName: Vazir
FullName: Vazir
FamilyName: Vazir
Weight: Regular
Copyright: Copyright (c) 2003 by Bitstream, Inc. All Rights Reserved.\nDejaVu changes are in public domain\nCopyright (c) 2015 by Saber Rastikerdar. All Rights Reserved.
Version: 2-alpha
ItalicAngle: 0
UnderlinePosition: -100
UnderlineWidth: 100
Ascent: 1536
Descent: 512
InvalidEm: 0
LayerCount: 2
Layer: 0 1 "Back" 1
Layer: 1 1 "Fore" 0
XUID: [1021 502 1027637223 15828163]
UniqueID: 4072388
UseUniqueID: 1
FSType: 0
OS2Version: 1
OS2_WeightWidthSlopeOnly: 0
OS2_UseTypoMetrics: 1
CreationTime: 1431850356
ModificationTime: 1450610869
PfmFamily: 33
TTFWeight: 400
TTFWidth: 5
LineGap: 0
VLineGap: 0
Panose: 2 11 6 3 3 8 4 2 2 4
OS2TypoAscent: 2250
OS2TypoAOffset: 0
OS2TypoDescent: -750
OS2TypoDOffset: 0
OS2TypoLinegap: 0
OS2WinAscent: 2250
OS2WinAOffset: 0
OS2WinDescent: 750
OS2WinDOffset: 0
HheadAscent: 2250
HheadAOffset: 0
HheadDescent: -750
HheadDOffset: 0
OS2SubXSize: 1331
OS2SubYSize: 1433
OS2SubXOff: 0
OS2SubYOff: 286
OS2SupXSize: 1331
OS2SupYSize: 1433
OS2SupXOff: 0
OS2SupYOff: 983
OS2StrikeYSize: 102
OS2StrikeYPos: 530
OS2Vendor: 'PfEd'
OS2CodePages: 600001ff.dfff0000
Lookup: 1 0 0 "'case' Case-Sensitive Forms in Latin lookup 0" { "'case' Case-Sensitive Forms in Latin lookup 0 subtable"  } ['case' ('DFLT' <'dflt' > 'latn' <'CAT ' 'ESP ' 'GAL ' 'dflt' > ) ]
Lookup: 6 1 0 "'ccmp' Glyph Composition/Decomposition lookup 2" { "'ccmp' Glyph Composition/Decomposition lookup 2 subtable"  } ['ccmp' ('arab' <'KUR ' 'SND ' 'URD ' 'dflt' > 'hebr' <'dflt' > 'nko ' <'dflt' > ) ]
Lookup: 6 0 0 "'ccmp' Glyph Composition/Decomposition lookup 3" { "'ccmp' Glyph Composition/Decomposition lookup 3 subtable"  } ['ccmp' ('cyrl' <'MKD ' 'SRB ' 'dflt' > 'grek' <'dflt' > 'latn' <'ISM ' 'KSM ' 'LSM ' 'MOL ' 'NSM ' 'ROM ' 'SKS ' 'SSM ' 'dflt' > ) ]

StartChar: exclam
Encoding: 33 33 1
Width: 771
GlyphClass: 2
Flags: W
LayerCount: 2
Fore
SplineSet
290.46 198.76 m 1,0,-1
 481.28 198.76 l 1,1,-1
 481.28 -5.49316e-06 l 1,2,-1
 290.46 -5.49316e-06 l 1,3,-1
 290.46 198.76 l 1,0,-1
290.46 1403.42 m 1,4,-1
 481.28 1403.42 l 1,5,-1
 481.28 787.72 l 1,6,-1
 462.48 452.14 l 5,7,-1
 310.2 452.14 l 1,8,-1
 290.46 787.72 l 1,9,-1
 290.46 1403.42 l 1,4,-1
EndSplineSet
EndChar

StartChar: parenleft
Encoding: 40 40 2
Width: 751
GlyphClass: 2
Flags: W
GlyphCompositionVertical: 3  uni239D%0,0,44,2703 uni239C%1,44,44,2731 uni239B%0,44,0,2740
LayerCount: 2
Fore
SplineSet
596.9 1460.76 m 0,0,1
 470.94 1244.56 470.94 1244.56 409.84 1033.06 c 128,-1,2
 348.74 821.56 348.74 821.56 348.74 604.42 c 128,-1,3
 348.74 387.28 348.74 387.28 410.31 174.37 c 128,-1,4
 471.88 -38.5399 471.88 -38.5399 596.9 -253.8 c 1,5,-1
 446.5 -253.8 l 1,6,7
 305.5 -32.9 305.5 -32.9 235.47 180.48 c 128,-1,8
 165.44 393.86 165.44 393.86 165.44 604.42 c 0,9,10
 165.44 814.04 165.44 814.04 235 1026.48 c 128,-1,11
 304.56 1238.92 304.56 1238.92 446.5 1460.76 c 1,12,-1
 596.9 1460.76 l 0,0,1
EndSplineSet
EndChar

StartChar: parenright
Encoding: 41 41 3
Width: 751
GlyphClass: 2
Flags: W
GlyphCompositionVertical: 3  uni23A0%0,0,44,2703 uni239F%1,44,44,2731 uni239E%0,44,0,2740
LayerCount: 2
Fore
SplineSet
154.16 1460.76 m 1,0,-1
 304.56 1460.76 l 1,1,2
 445.56 1238.92 445.56 1238.92 515.59 1026.48 c 128,-1,3
 585.62 814.04 585.62 814.04 585.62 604.42 c 0,4,5
 585.62 393.86 585.62 393.86 515.59 180.48 c 128,-1,6
 445.56 -32.9 445.56 -32.9 304.56 -253.8 c 1,7,-1
 154.16 -253.8 l 1,8,9
 279.18 -38.54 279.18 -38.54 340.75 174.37 c 128,-1,10
 402.32 387.28 402.32 387.28 402.32 604.42 c 128,-1,11
 402.32 821.56 402.32 821.56 340.75 1033.06 c 128,-1,12
 279.18 1244.56 279.18 1244.56 154.16 1460.76 c 1,0,-1
EndSplineSet
EndChar

StartChar: asterisk
Encoding: 42 42 4
Width: 962
GlyphClass: 2
Flags: W
LayerCount: 2
Fore
SplineSet
905.22 1172.18 m 1,0,-1
 567.76 989.82 l 1,1,-1
 905.22 806.52 l 1,2,-1
 850.7 714.4 l 1,3,-1
 534.86 905.22 l 1,4,-1
 534.86 550.84 l 1,5,-1
 427.7 550.84 l 1,6,-1
 427.7 905.22 l 1,7,-1
 111.86 714.4 l 1,8,-1
 57.3397 806.52 l 1,9,-1
 394.8 989.82 l 1,10,-1
 57.3397 1172.18 l 1,11,-1
 111.86 1265.24 l 1,12,-1
 427.7 1074.42 l 1,13,-1
 427.7 1428.8 l 1,14,-1
 534.86 1428.8 l 1,15,-1
 534.86 1074.42 l 1,16,-1
 850.7 1265.24 l 1,17,-1
 905.22 1172.18 l 1,0,-1
EndSplineSet
EndChar

StartChar: plus
Encoding: 43 43 5
Width: 1613
GlyphClass: 2
Flags: W
LayerCount: 2
Fore
SplineSet
885.48 1206.96 m 1,0,-1
 885.48 683.38 l 1,1,-1
 1409.06 683.38 l 1,2,-1
 1409.06 523.58 l 1,3,-1
 885.48 523.58 l 1,4,-1
 885.48 -4.39453e-05 l 1,5,-1
 727.56 -4.39453e-05 l 1,6,-1
 727.56 523.58 l 1,7,-1
 203.98 523.58 l 1,8,-1
 203.98 683.38 l 1,9,-1
 727.56 683.38 l 1,10,-1
 727.56 1206.96 l 1,11,-1
 885.48 1206.96 l 1,0,-1
EndSplineSet
EndChar

StartChar: hyphen
Encoding: 45 45 6
Width: 694
GlyphClass: 2
Flags: W
LayerCount: 2
Fore
SplineSet
94 604.42 m 1,0,-1
 600.66 604.42 l 1,1,-1
 600.66 450.26 l 1,2,-1
 94 450.26 l 1,3,-1
 94 604.42 l 1,0,-1
EndSplineSet
EndChar

StartChar: period
Encoding: 46 46 7
Width: 496
GlyphClass: 2
Flags: W
LayerCount: 2
Fore
SplineSet
148.99 198.76 m 5,0,-1
 347.33 198.76 l 5,1,-1
 347.33 -5.49316e-06 l 5,2,-1
 148.99 -5.49316e-06 l 5,3,-1
 148.99 198.76 l 5,0,-1
EndSplineSet
EndChar

StartChar: slash
Encoding: 47 47 8
Width: 648
GlyphClass: 2
Flags: W
LayerCount: 2
Fore
SplineSet
488.8 1403.42 m 1,0,-1
 648.6 1403.42 l 1,1,-1
 159.8 -178.6 l 1,2,-1
 -2.74658e-05 -178.6 l 1,3,-1
 488.8 1403.42 l 1,0,-1
EndSplineSet
EndChar

StartChar: colon
Encoding: 58 58 9
Width: 648
GlyphClass: 2
Flags: W
LayerCount: 2
Fore
SplineSet
225.6 198.76 m 1,0,-1
 423.94 198.76 l 1,1,-1
 423.94 -5.49316e-06 l 1,2,-1
 225.6 -5.49316e-06 l 1,3,-1
 225.6 198.76 l 1,0,-1
225.6 795.46 m 1,4,-1
 423.94 795.46 l 1,5,-1
 423.94 596.7 l 1,6,-1
 225.6 596.7 l 1,7,-1
 225.6 795.46 l 1,4,-1
EndSplineSet
EndChar

StartChar: less
Encoding: 60 60 10
Width: 1613
GlyphClass: 2
Flags: W
LayerCount: 2
Fore
SplineSet
1409.06 947.52 m 1,0,-1
 438.98 602.54 l 1,1,-1
 1409.06 259.44 l 1,2,-1
 1409.06 88.36 l 1,3,-1
 203.98 525.46 l 1,4,-1
 203.98 681.5 l 1,5,-1
 1409.06 1118.6 l 1,6,-1
 1409.06 947.52 l 1,0,-1
EndSplineSet
EndChar

StartChar: equal
Encoding: 61 61 11
Width: 1613
GlyphClass: 2
Flags: W
GlyphCompositionHorizontal: 2  equal%0,0,44,1433 equal%1,44,0,1433
LayerCount: 2
Fore
SplineSet
203.98 874.2 m 1,0,-1
 1409.06 874.2 l 1,1,-1
 1409.06 716.28 l 1,2,-1
 203.98 716.28 l 1,3,-1
 203.98 874.2 l 1,0,-1
203.98 490.68 m 1,4,-1
 1409.06 490.68 l 1,5,-1
 1409.06 330.88 l 1,6,-1
 203.98 330.88 l 1,7,-1
 203.98 490.68 l 1,4,-1
EndSplineSet
EndChar

StartChar: greater
Encoding: 62 62 12
Width: 1613
GlyphClass: 2
Flags: W
LayerCount: 2
Fore
SplineSet
203.98 947.52 m 1,0,-1
 203.98 1118.6 l 1,1,-1
 1409.06 681.5 l 1,2,-1
 1409.06 525.46 l 1,3,-1
 203.98 88.36 l 1,4,-1
 203.98 259.44 l 1,5,-1
 1172.18 602.54 l 1,6,-1
 203.98 947.52 l 1,0,-1
EndSplineSet
EndChar

StartChar: backslash
Encoding: 92 92 13
Width: 648
GlyphClass: 2
Flags: W
LayerCount: 2
Fore
SplineSet
159.8 1403.42 m 1,0,-1
 648.6 -178.6 l 1,1,-1
 488.8 -178.6 l 1,2,-1
 -1.2207e-05 1403.42 l 1,3,-1
 159.8 1403.42 l 1,0,-1
EndSplineSet
EndChar

StartChar: afii57388
Encoding: 1548 1548 15
Width: 664
VWidth: 2054
GlyphClass: 2
Flags: W
LayerCount: 2
Fore
SplineSet
355.818 0 m 0,0,1
 244 0 244 0 220 110 c 0,2,3
 209 161 209 161 228.857 247 c 0,4,5
 265 406 265 406 435.857 568 c 1,6,-1
 500 527 l 5,7,8
 365 418 365 418 353.857 252 c 1,9,10
 507 254 507 254 497.818 99.0693 c 0,11,12
 492 0 492 0 355.818 0 c 0,0,1
EndSplineSet
EndChar

StartChar: uni0615
Encoding: 1557 1557 16
Width: 0
VWidth: 2186
GlyphClass: 4
Flags: W
AnchorPoint: "Anchor-10" 547.84 1279.5 mark 0
AnchorPoint: "Anchor-9" 547.84 1279.5 mark 0
AnchorPoint: "Anchor-1" 547.84 1975 basemark 0
AnchorPoint: "Anchor-1" 547.84 1279.5 mark 0
LayerCount: 2
Fore
SplineSet
466.096 1456.96 m 1,0,-1
 552.12 1456.96 l 2,1,2
 639.138 1456.96 639.138 1456.96 665.862 1472.75 c 0,3,4
 697.288 1492.32 697.288 1492.32 713.059 1508.3 c 128,-1,5
 728.83 1524.27 728.83 1524.27 728.83 1541.65 c 0,6,7
 728.83 1583.09 728.83 1583.09 689.03 1604.94 c 1,8,9
 681.399 1607.6 681.399 1607.6 672.751 1605.46 c 128,-1,10
 664.102 1603.31 664.102 1603.31 640.309 1592.64 c 128,-1,11
 616.515 1581.97 616.515 1581.97 601.865 1576.19 c 0,12,13
 543.049 1552.44 543.049 1552.44 483.147 1478.12 c 2,14,-1
 466.096 1456.96 l 1,0,-1
576.73 1374.89 m 2,15,-1
 282.64 1374.89 l 1,16,-1
 282.64 1456.96 l 1,17,-1
 369.31 1456.96 l 1,18,-1
 369.31 1883.89 l 1,19,-1
 452.45 1883.89 l 1,20,-1
 452.45 1497.67 l 1,21,-1
 477.109 1547.67 l 2,22,23
 513.381 1621.22 513.381 1621.22 619.878 1662.18 c 0,24,25
 682.718 1686.12 682.718 1686.12 752.956 1660.03 c 0,26,27
 814.11 1636.51 814.11 1636.51 814.11 1557.7 c 0,28,29
 814.11 1466.67 814.11 1466.67 750.648 1417.09 c 0,30,31
 696.384 1374.89 696.384 1374.89 576.73 1374.89 c 2,15,-1
EndSplineSet
EndChar

StartChar: uni061B
Encoding: 1563 1563 17
Width: 654
VWidth: 2054
GlyphClass: 2
Flags: W
LayerCount: 2
Fore
SplineSet
246.596 198.76 m 1,0,-1
 444.936 198.76 l 1,1,-1
 444.936 0 l 1,2,-1
 246.596 0 l 1,3,-1
 246.596 198.76 l 1,0,-1
338.676 433.611 m 0,4,5
 226 434 226 434 202.857 543.611 c 0,6,7
 192 595 192 595 211.715 680.611 c 0,8,9
 248 840 248 840 418.715 1001.61 c 1,10,-1
 484 961 l 5,11,12
 348 849 348 849 336.715 685.611 c 1,13,14
 490 688 490 688 480.676 532.681 c 0,15,16
 475 434 475 434 338.676 433.611 c 0,4,5
EndSplineSet
EndChar

StartChar: uni061F
Encoding: 1567 1567 18
Width: 1021
GlyphClass: 2
Flags: W
LayerCount: 2
Fore
SplineSet
658 198.76 m 1,0,-1
 658 -0 l 1,1,-1
 467.18 -0 l 1,2,-1
 467.18 198.76 l 1,3,-1
 658 198.76 l 1,0,-1
472.82 449.94 m 1,4,-1
 472.82 492.56 l 2,5,6
 473 546 473 546 470 569.64 c 0,7,8
 467 599 467 599 461.54 617.58 c 0,9,10
 454 641 454 641 435.69 665.99 c 0,11,12
 415.144277079 694.069456491 415.144277079 694.069456491 373.18 735.08 c 2,13,-1
 290.46 815.92 l 1,14,15
 206 897 206 897 172.02 961.15 c 0,16,17
 138 1026 138 1026 138.18 1096.98 c 0,18,19
 138 1246 138 1246 242.99 1337.62 c 0,20,21
 348 1429 348 1429 520.76 1428.8 c 0,22,23
 618 1429 618 1429 708.29 1402.48 c 0,24,25
 799 1376 799 1376 887.36 1322.58 c 1,26,-1
 839 1177 l 1,27,28
 792 1209 792 1209 706.87015625 1243.31023438 c 0,29,30
 628 1275 628 1275 553.66 1274.64 c 0,31,32
 452 1275 452 1275 390.57 1222.94 c 128,-1,33
 329 1171 329 1171 329 1087.58 c 0,34,35
 329 1042 329 1042 352.97 997.34 c 0,36,37
 377 953 377 953 430.52 903.34 c 1,38,-1
 515.12 819.68 l 1,39,40
 610.712136647 728.36446086 610.712136647 728.36446086 626.04 677.74 c 0,41,42
 652.36 589.797134052 652.36 589.797134052 652.36 521.7 c 2,43,-1
 652.36 449.94 l 5,44,-1
 472.82 449.94 l 1,4,-1
EndSplineSet
EndChar

StartChar: uni0621
Encoding: 1569 1569 19
Width: 797
VWidth: 2186
GlyphClass: 2
Flags: W
AnchorPoint: "Anchor-7" 316 -240 basechar 0
AnchorPoint: "Anchor-10" 340.5 1216.5 basechar 0
LayerCount: 2
Fore
SplineSet
128 0 m 1,0,-1
 128 161.896484375 l 1,1,2
 342.475585938 238.82421875 l 1,3,4
 91 285 91 285 91 531 c 0,5,6
 91 713.438476562 91 713.438476562 231.5 791.227539062 c 0,7,8
 381 874 381 874 607 807.188476562 c 1,9,-1
 607 658 l 1,10,11
 496 690 496 690 445.787109375 689.543945312 c 0,12,13
 242 686 242 686 242 530 c 0,14,15
 242 385 242 385 423.134765625 350 c 0,16,17
 534 328 534 328 615.134765625 352 c 0,18,19
 663 366 663 366 705.860351562 391.140625 c 1,20,-1
 705.860351562 222.611328125 l 1,21,-1
 128 0 l 1,0,-1
EndSplineSet
EndChar

StartChar: uni0627
Encoding: 1575 1575 25
Width: 447
VWidth: 2186
GlyphClass: 2
Flags: W
AnchorPoint: "Anchor-10" 214.5 1532 basechar 0
AnchorPoint: "Anchor-7" 217.5 -235.5 basechar 0
LayerCount: 2
Fore
SplineSet
140.059570312 1400.95996094 m 1,0,-1
 306.940429688 1400.95996094 l 1,1,-1
 306.940429688 1.5 l 1,2,-1
 140.059570312 1.5 l 1,3,-1
 140.059570312 1400.95996094 l 1,0,-1
EndSplineSet
Substitution2: "'fina' Terminal Forms in Arabic lookup 9 subtable" uniFE8E
EndChar

StartChar: uni062D
Encoding: 1581 1581 31
Width: 1199
VWidth: 2186
GlyphClass: 2
Flags: W
AnchorPoint: "Anchor-10" 455.5 1186.5 basechar 0
AnchorPoint: "Anchor-7" 395.84 -687.5 basechar 0
LayerCount: 2
Fore
SplineSet
836 477 m 0,0,1
 541 432 541 432 383 281 c 0,2,3
 252.981529956 153.440099953 252.981529956 153.440099953 253.009765625 -0.10546875 c 0,4,5
 253 -170 253 -170 368.5 -260 c 128,-1,6
 484 -350 484 -350 703.299804688 -350.165039062 c 0,7,8
 917 -350 917 -350 1059.59960938 -298.3828125 c 1,9,-1
 1102 -446 l 1,10,11
 955 -510 955 -510 680.299804688 -507.69140625 c 0,12,13
 394 -505 394 -505 243.5 -370.5 c 128,-1,14
 93 -236 93 -236 94 -10 c 128,-1,15
 95 216 95 216 301 400 c 0,16,17
 471 552 471 552 728 579 c 1,18,19
 657 612 657 612 596 658 c 0,20,21
 511 722 511 722 454.829101562 722.801757812 c 0,22,23
 333 725 333 725 212.758789062 564.512695312 c 1,24,-1
 89.8291015625 652.801757812 l 1,25,26
 173 755 173 755 195.84765625 777.9921875 c 0,27,28
 302 883 302 883 442.829101562 882.801757812 c 0,29,30
 549 883 549 883 639 810 c 0,31,32
 879 616 879 616 1108 628.786132812 c 1,33,-1
 1101.12011719 492.655273438 l 1,34,35
 1069 500 1069 500 1014 498 c 0,36,37
 968.685624013 496.723538705 968.685624013 496.723538705 836 477 c 0,0,1
EndSplineSet
Substitution2: "'fina' Terminal Forms in Arabic lookup 9 subtable" uniFEA2
Substitution2: "'medi' Medial Forms in Arabic lookup 11 subtable" uniFEA4
Substitution2: "'init' Initial Forms in Arabic lookup 13 subtable" uniFEA3
EndChar

StartChar: uni062F
Encoding: 1583 1583 33
Width: 907
VWidth: 2186
GlyphClass: 2
Flags: W
AnchorPoint: "Anchor-10" 285.58 1117.5 basechar 0
AnchorPoint: "Anchor-7" 330.5 -248 basechar 0
LayerCount: 2
Fore
SplineSet
815.182390813 276.70040172 m 0,0,1
 815.182390813 164.148192536 815.182390813 164.148192536 714.626033549 82.9058353353 c 128,-1,2
 614.069676284 1.66347813499 614.069676284 1.66347813499 401.623960302 1.66347813499 c 128,-1,3
 189.178244319 1.66347813499 189.178244319 1.66347813499 92.75 21.8193 c 1,4,-1
 92.75 201.331 l 1,5,6
 231.466676859 178.255072814 231.466676859 178.255072814 340.627841819 178.255072814 c 0,7,8
 644.580935131 178.255072814 644.580935131 178.255072814 644.580935131 308.180111452 c 0,9,10
 644.580935131 348.628597304 644.580935131 348.628597304 597 420 c 0,11,12
 501 564 501 564 293 710 c 1,13,-1
 386.78515625 852.0703125 l 1,14,15
 815.182390813 543.588746476 815.182390813 543.588746476 815.182390813 276.70040172 c 0,0,1
EndSplineSet
Substitution2: "'fina' Terminal Forms in Arabic lookup 9 subtable" uniFEAA
EndChar

StartChar: uni0631
Encoding: 1585 1585 35
Width: 733
VWidth: 2186
GlyphClass: 2
Flags: W
AnchorPoint: "Anchor-10" 303.7 798.348 basechar 0
AnchorPoint: "Anchor-7" 230.291 -673.16 basechar 0
LayerCount: 2
Fore
SplineSet
418 474 m 1,0,-1
 572 534 l 1,1,2
 643 371 643 371 641.618164062 161.043945312 c 0,3,4
 637 -394 637 -394 30 -455 c 1,5,-1
 0.603515625 -291.8828125 l 1,6,7
 475 -253 475 -253 476.474609375 156.931640625 c 0,8,9
 477 351 477 351 418 474 c 1,0,-1
EndSplineSet
PairPos2: "'kern' Horizontal Kerning lookup 15-1" uniFEEB dx=-110 dy=0 dh=-110 dv=0 dx=0 dy=0 dh=0 dv=0
PairPos2: "'kern' Horizontal Kerning lookup 15-1" uniFEDF dx=-110 dy=0 dh=-110 dv=0 dx=0 dy=0 dh=0 dv=0
PairPos2: "'kern' Horizontal Kerning lookup 15-1" uniFB90 dx=-140 dy=0 dh=-140 dv=0 dx=0 dy=0 dh=0 dv=0
PairPos2: "'kern' Horizontal Kerning lookup 15-1" uni06A9 dx=-140 dy=0 dh=-140 dv=0 dx=0 dy=0 dh=0 dv=0
PairPos2: "'kern' Horizontal Kerning lookup 15-1" uni0649 dx=-70 dy=0 dh=-70 dv=0 dx=0 dy=0 dh=0 dv=0
PairPos2: "'kern' Horizontal Kerning lookup 15-1" uni0647 dx=-110 dy=0 dh=-110 dv=0 dx=0 dy=0 dh=0 dv=0
PairPos2: "'kern' Horizontal Kerning lookup 15-1" uniFEE7 dx=-110 dy=0 dh=-110 dv=0 dx=0 dy=0 dh=0 dv=0
PairPos2: "'kern' Horizontal Kerning lookup 15-1" uniFEE3 dx=-110 dy=0 dh=-110 dv=0 dx=0 dy=0 dh=0 dv=0
PairPos2: "'kern' Horizontal Kerning lookup 15-1" uni0645 dx=-110 dy=0 dh=-110 dv=0 dx=0 dy=0 dh=0 dv=0
PairPos2: "'kern' Horizontal Kerning lookup 15-1" uni0644 dx=-70 dy=0 dh=-70 dv=0 dx=0 dy=0 dh=0 dv=0
PairPos2: "'kern' Horizontal Kerning lookup 15-1" uniFEDB dx=-140 dy=0 dh=-140 dv=0 dx=0 dy=0 dh=0 dv=0
PairPos2: "'kern' Horizontal Kerning lookup 15-1" uniFED7 dx=-110 dy=0 dh=-110 dv=0 dx=0 dy=0 dh=0 dv=0
PairPos2: "'kern' Horizontal Kerning lookup 15-1" uni0642 dx=-70 dy=0 dh=-70 dv=0 dx=0 dy=0 dh=0 dv=0
PairPos2: "'kern' Horizontal Kerning lookup 15-1" uniFED3 dx=-110 dy=0 dh=-110 dv=0 dx=0 dy=0 dh=0 dv=0
PairPos2: "'kern' Horizontal Kerning lookup 15-1" uni0641 dx=-110 dy=0 dh=-110 dv=0 dx=0 dy=0 dh=0 dv=0
PairPos2: "'kern' Horizontal Kerning lookup 15-1" uniFECF dx=-110 dy=0 dh=-110 dv=0 dx=0 dy=0 dh=0 dv=0
PairPos2: "'kern' Horizontal Kerning lookup 15-1" uniFECB dx=-110 dy=0 dh=-110 dv=0 dx=0 dy=0 dh=0 dv=0
PairPos2: "'kern' Horizontal Kerning lookup 15-1" uniFEC7 dx=-110 dy=0 dh=-110 dv=0 dx=0 dy=0 dh=0 dv=0
PairPos2: "'kern' Horizontal Kerning lookup 15-1" uni0638 dx=-110 dy=0 dh=-110 dv=0 dx=0 dy=0 dh=0 dv=0
PairPos2: "'kern' Horizontal Kerning lookup 15-1" uniFEC3 dx=-110 dy=0 dh=-110 dv=0 dx=0 dy=0 dh=0 dv=0
PairPos2: "'kern' Horizontal Kerning lookup 15-1" uni0637 dx=-110 dy=0 dh=-110 dv=0 dx=0 dy=0 dh=0 dv=0
PairPos2: "'kern' Horizontal Kerning lookup 15-1" uniFEBF dx=-110 dy=0 dh=-110 dv=0 dx=0 dy=0 dh=0 dv=0
PairPos2: "'kern' Horizontal Kerning lookup 15-1" uni0636 dx=-110 dy=0 dh=-110 dv=0 dx=0 dy=0 dh=0 dv=0
PairPos2: "'kern' Horizontal Kerning lookup 15-1" uniFEBB dx=-110 dy=0 dh=-110 dv=0 dx=0 dy=0 dh=0 dv=0
PairPos2: "'kern' Horizontal Kerning lookup 15-1" uni0635 dx=-110 dy=0 dh=-110 dv=0 dx=0 dy=0 dh=0 dv=0
PairPos2: "'kern' Horizontal Kerning lookup 15-1" uniFEB7 dx=-110 dy=0 dh=-110 dv=0 dx=0 dy=0 dh=0 dv=0
PairPos2: "'kern' Horizontal Kerning lookup 15-1" uni0634 dx=-110 dy=0 dh=-110 dv=0 dx=0 dy=0 dh=0 dv=0
PairPos2: "'kern' Horizontal Kerning lookup 15-1" uniFEB3 dx=-110 dy=0 dh=-110 dv=0 dx=0 dy=0 dh=0 dv=0
PairPos2: "'kern' Horizontal Kerning lookup 15-1" uni0633 dx=-110 dy=0 dh=-110 dv=0 dx=0 dy=0 dh=0 dv=0
PairPos2: "'kern' Horizontal Kerning lookup 15-1" uni0630 dx=-110 dy=0 dh=-110 dv=0 dx=0 dy=0 dh=0 dv=0
PairPos2: "'kern' Horizontal Kerning lookup 15-1" uni062F dx=-110 dy=0 dh=-110 dv=0 dx=0 dy=0 dh=0 dv=0
PairPos2: "'kern' Horizontal Kerning lookup 15-1" uniFEA7 dx=-70 dy=0 dh=-70 dv=0 dx=0 dy=0 dh=0 dv=0
PairPos2: "'kern' Horizontal Kerning lookup 15-1" uniFEA3 dx=-70 dy=0 dh=-70 dv=0 dx=0 dy=0 dh=0 dv=0
PairPos2: "'kern' Horizontal Kerning lookup 15-1" uniFE9F dx=-70 dy=0 dh=-70 dv=0 dx=0 dy=0 dh=0 dv=0
PairPos2: "'kern' Horizontal Kerning lookup 15-1" uniFE9B dx=-110 dy=0 dh=-110 dv=0 dx=0 dy=0 dh=0 dv=0
PairPos2: "'kern' Horizontal Kerning lookup 15-1" uni062B dx=-110 dy=0 dh=-110 dv=0 dx=0 dy=0 dh=0 dv=0
PairPos2: "'kern' Horizontal Kerning lookup 15-1" uniFE97 dx=-110 dy=0 dh=-110 dv=0 dx=0 dy=0 dh=0 dv=0
PairPos2: "'kern' Horizontal Kerning lookup 15-1" uni062A dx=-110 dy=0 dh=-110 dv=0 dx=0 dy=0 dh=0 dv=0
PairPos2: "'kern' Horizontal Kerning lookup 15-1" uni0629 dx=-110 dy=0 dh=-110 dv=0 dx=0 dy=0 dh=0 dv=0
PairPos2: "'kern' Horizontal Kerning lookup 15-1" uniFE91 dx=-70 dy=0 dh=-70 dv=0 dx=0 dy=0 dh=0 dv=0
PairPos2: "'kern' Horizontal Kerning lookup 15-1" uni0628 dx=-110 dy=0 dh=-110 dv=0 dx=0 dy=0 dh=0 dv=0
PairPos2: "'kern' Horizontal Kerning lookup 15-1" uni0627 dx=-110 dy=0 dh=-110 dv=0 dx=0 dy=0 dh=0 dv=0
PairPos2: "'kern' Horizontal Kerning lookup 15-1" uni0622 dx=-110 dy=0 dh=-110 dv=0 dx=0 dy=0 dh=0 dv=0
PairPos2: "'kern' Horizontal Kerning lookup 15-1" uniFB94 dx=-140 dy=0 dh=-140 dv=0 dx=0 dy=0 dh=0 dv=0
PairPos2: "'kern' Horizontal Kerning lookup 15-1" afii57509 dx=-140 dy=0 dh=-140 dv=0 dx=0 dy=0 dh=0 dv=0
PairPos2: "'kern' Horizontal Kerning lookup 15-1" uniFB56 dx=-110 dy=0 dh=-110 dv=0 dx=0 dy=0 dh=0 dv=0
PairPos2: "'kern' Horizontal Kerning lookup 15-1" afii57506 dx=-110 dy=0 dh=-110 dv=0 dx=0 dy=0 dh=0 dv=0
Substitution2: "'fina' Terminal Forms in Arabic lookup 9 subtable" uniFEAE
EndChar

StartChar: uni0633
Encoding: 1587 1587 37
Width: 2374
VWidth: 2186
GlyphClass: 2
Flags: W
AnchorPoint: "Anchor-10" 547.51 851.5 basechar 0
AnchorPoint: "Anchor-7" 432.5 -693.03 basechar 0
LayerCount: 2
Fore
SplineSet
1281.51953125 296.478515625 m 28,0,1
 1324 172 1324 172 1468.47851562 172.469726562 c 0,2,3
 1633 173 1633 173 1647.31152344 300.6953125 c 2,4,-1
 1673.70117188 534.0703125 l 1,5,-1
 1789.59863281 534.0703125 l 1,6,-1
 1813.16796875 322.75 l 2,7,8
 1830 174 1830 174 1950 174 c 24,9,10
 2130 174 2130 174 2130.15136719 419.418945312 c 0,11,12
 2130 525 2130 525 2065.29394531 640.498046875 c 1,13,-1
 2203.29394531 699.284179688 l 1,14,15
 2277 581 2277 581 2282.18359375 392.860351562 c 0,16,17
 2287.76839671 190.158728763 2287.76839671 190.158728763 2159 75 c 0,18,19
 2074 0 2074 0 1953.19433594 0.498046875 c 1,20,21
 1767 0 1767 0 1724.30957031 133.49609375 c 1,22,23
 1682 0 1682 0 1469 0 c 0,24,25
 1325 0 1325 0 1294 48 c 5,26,27
 1272 -437 1272 -437 718.100317782 -436.959577904 c 4,28,29
 91 -437 91 -437 91.1474609375 92.1943359375 c 4,30,31
 91 245 91 245 163.477539062 453.052734375 c 5,32,-1
 326.272460938 418.08203125 l 5,33,34
 261 230 261 230 261.216796875 85.91796875 c 4,35,36
 261 -269 261 -269 699.718140777 -268.56482815 c 4,37,38
 1144 -269 1144 -269 1144.06666667 74.6 c 4,39,40
 1144 242 1144 242 1081.5 481.912109375 c 5,41,-1
 1236.70019531 515.153320312 l 5,42,43
 1270 330 1270 330 1281.51953125 296.478515625 c 28,0,1
EndSplineSet
Substitution2: "'fina' Terminal Forms in Arabic lookup 9 subtable" uniFEB2
Substitution2: "'medi' Medial Forms in Arabic lookup 11 subtable" uniFEB4
Substitution2: "'init' Initial Forms in Arabic lookup 13 subtable" uniFEB3
EndChar

StartChar: uni0635
Encoding: 1589 1589 39
Width: 2330
VWidth: 2186
GlyphClass: 2
Flags: W
AnchorPoint: "Anchor-10" 481.84 851.5 basechar 0
AnchorPoint: "Anchor-7" 431.84 -667.5 basechar 0
LayerCount: 2
Fore
SplineSet
1458.35644531 189.337890625 m 1,0,-1
 1637.32519531 189.337890625 l 1,1,2
 1637.82910156 189.337890625 l 2,3,4
 1867.06152344 189.329101562 1867.06152344 189.329101562 1924.56054688 196.328125 c 0,5,6
 2058.06152344 213.329101562 2058.06152344 213.329101562 2069.06152344 338.329101562 c 0,7,8
 2072.06152344 373.329101562 2072.06152344 373.329101562 2072.48046875 402.408203125 c 0,9,10
 2072.06152344 567.329101562 2072.06152344 567.329101562 1966.06152344 567.329101562 c 0,11,12
 1744.06152344 567.329101562 1744.06152344 567.329101562 1458.35644531 189.337890625 c 1,0,-1
1312.70996094 70.5400390625 m 1,13,14
 1288.95019531 70.59765625 l 1,15,16
 1287 -437 1287 -437 718.100317782 -436.959577904 c 0,17,18
 91 -437 91 -437 91.1474609375 92.1943359375 c 0,19,20
 91 245 91 245 163.477539062 453.052734375 c 1,21,-1
 326.272460938 418.08203125 l 1,22,23
 261 230 261 230 261.216796875 85.91796875 c 0,24,25
 261 -269 261 -269 699.718140777 -268.56482815 c 0,26,27
 1144 -269 1144 -269 1144.06666667 74.6 c 0,28,29
 1144 242 1144 242 1081.5 481.912109375 c 1,30,-1
 1236.70019531 515.153320312 l 1,31,32
 1267 288 1267 288 1346.06152344 286.662109375 c 1,33,34
 1661 749 1661 749 1986.06152344 749.329101562 c 0,35,36
 2247 749 2247 749 2238.06152344 365.329101562 c 0,37,38
 2234 154 2234 154 2092.25390625 77.787109375 c 0,39,40
 1946 -1 1946 -1 1609.27636719 -0.75390625 c 0,41,42
 1609.18500578 -0.835259872653 1609.18500578 -0.835259872653 1587.109375 -0.6708984375 c 2,43,-1
 1497 0 l 2,44,45
 1354.96502945 1.05750416995 1354.96502945 1.05750416995 1312.70996094 70.5400390625 c 1,13,14
EndSplineSet
Substitution2: "'fina' Terminal Forms in Arabic lookup 9 subtable" uniFEBA
Substitution2: "'medi' Medial Forms in Arabic lookup 11 subtable" uniFEBC
Substitution2: "'init' Initial Forms in Arabic lookup 13 subtable" uniFEBB
EndChar

StartChar: uni0637
Encoding: 1591 1591 41
Width: 1299
VWidth: 2186
GlyphClass: 2
Flags: W
AnchorPoint: "Anchor-10" 314.72 1527.47 basechar 0
AnchorPoint: "Anchor-7" 596.72 -285 basechar 0
LayerCount: 2
Fore
SplineSet
428.294921875 190.008789062 m 5,0,-1
 607.263671875 190.008789062 l 5,1,2
 607.767578125 190.008789062 l 6,3,4
 837 190 837 190 894.499023438 196.999023438 c 4,5,6
 1028 214 1028 214 1039 339 c 4,7,8
 1042 374 1042 374 1042.41894531 403.079101562 c 4,9,10
 1042 568 1042 568 936 568 c 4,11,12
 714 568 714 568 428.294921875 190.008789062 c 5,0,-1
459.040039062 474.366210938 m 5,13,14
 702 750 702 750 956 750 c 4,15,16
 1216 750 1216 750 1208 366 c 4,17,18
 1204 155 1204 155 1062.19238281 78.4580078125 c 4,19,20
 910 -3 910 -3 579.21484375 -0.0830078125 c 4,21,22
 571 -0 571 -0 563 0 c 6,23,24
 91 0 l 5,25,-1
 91 178.879882812 l 5,26,-1
 236 179 l 5,27,28
 262 223 262 223 292.16015625 265.192382812 c 5,29,-1
 292.16015625 1404.33398438 l 5,30,-1
 459.040039062 1404.33398438 l 5,31,-1
 459.040039062 474.366210938 l 5,13,14
EndSplineSet
Substitution2: "'fina' Terminal Forms in Arabic lookup 9 subtable" uniFEC2
Substitution2: "'medi' Medial Forms in Arabic lookup 11 subtable" uniFEC4
Substitution2: "'init' Initial Forms in Arabic lookup 13 subtable" uniFEC3
EndChar

StartChar: uni0639
Encoding: 1593 1593 43
Width: 1221
VWidth: 2186
GlyphClass: 2
Flags: W
AnchorPoint: "Anchor-10" 445.325 1392.51 basechar 0
AnchorPoint: "Anchor-7" 345.235 -725.76 basechar 0
LayerCount: 2
Fore
SplineSet
558.659179688 949.889648438 m 4,0,1
 357 950 357 950 356.874713641 760.449340636 c 0,2,3
 357 639 357 639 529.610351562 554.040039062 c 1,4,5
 713 622 713 622 942.100476659 630.88720764 c 0,6,7
 945 631 945 631 948.040039062 630.87109375 c 1,8,-1
 953 484 l 1,9,10
 908 484 908 484 838 474 c 24,11,12
 544 432 544 432 385 279 c 0,13,14
 253 153 253 153 253 -8.5 c 128,-1,15
 253 -170 253 -170 368.5 -260 c 128,-1,16
 484 -350 484 -350 702 -350 c 128,-1,17
 920 -350 920 -350 1029.59960938 -310.3828125 c 1,18,-1
 1072 -458 l 1,19,20
 957 -508 957 -508 703.124987113 -507.789541826 c 0,21,22
 397 -508 397 -508 246.047576862 -372.776738126 c 0,23,24
 95 -238 95 -238 94.9737704918 -4.72786885246 c 0,25,26
 95 228 95 228 303 402 c 0,27,28
 352 443 352 443 405 474.514648438 c 1,29,30
 362 479 362 479 308.25390625 520.017578125 c 0,31,32
 198 605 198 605 197.849198296 757.159644797 c 0,33,34
 198 1005 198 1005 401 1080 c 0,35,36
 458 1101 458 1101 568.5 1100.5 c 128,-1,37
 679 1100 679 1100 830.25390625 1023.01953125 c 1,38,-1
 789.481445312 884.546875 l 1,39,40
 653 950 653 950 558.659179688 949.889648438 c 4,0,1
EndSplineSet
Substitution2: "'fina' Terminal Forms in Arabic lookup 9 subtable" uniFECA
Substitution2: "'medi' Medial Forms in Arabic lookup 11 subtable" uniFECC
Substitution2: "'init' Initial Forms in Arabic lookup 13 subtable" uniFECB
EndChar

StartChar: afii57440
Encoding: 1600 1600 45
Width: 642
VWidth: 2186
GlyphClass: 2
Flags: W
AnchorPoint: "Anchor-10" 321 1279.5 basechar 0
AnchorPoint: "Anchor-7" 321 -111.5 basechar 0
LayerCount: 2
Fore
SplineSet
-8.40039 0 m 1,0,-1
 -8.40039 178.979 l 1,1,-1
 650.4 178.979 l 5,2,-1
 650.4 0 l 1,3,-1
 -8.40039 0 l 1,0,-1
EndSplineSet
EndChar

StartChar: uni0643
Encoding: 1603 1603 48
Width: 1734
VWidth: 2186
GlyphClass: 2
Flags: W
AnchorPoint: "Anchor-10" 599 1315.5 basechar 0
AnchorPoint: "Anchor-7" 509 -242.5 basechar 0
LayerCount: 2
Fore
SplineSet
1049.77 1191.37 m 1,0,-1
 1049.77 1129.46 l 1,1,2
 977.53 1124.56 977.53 1124.56 938.37 1110.13 c 0,3,4
 844.33 1074.87 844.33 1074.87 844.33 1030.55 c 0,5,6
 844.33 996.128 844.33 996.128 861.977 973.438 c 0,7,8
 877.961 952.126 877.961 952.126 956.02 940.646 c 0,9,10
 1006.93 933.158 1006.93 933.158 1032.99 909.356 c 128,-1,11
 1059.05 885.555 1059.05 885.555 1059.05 843.298 c 0,12,13
 1059.05 744.281 1059.05 744.281 967.3 692.399 c 0,14,15
 897.305 652.814 897.305 652.814 801.689 651.929 c 0,16,17
 738.676 651.929 738.676 651.929 684.148 661.5 c 1,18,-1
 684.148 729.882 l 1,19,20
 748.203 721.158 748.203 721.158 792.059 721.158 c 0,21,22
 865.923 721.158 865.923 721.158 913.305 739.814 c 0,23,24
 994.45 770.977 994.45 770.977 994.45 821.898 c 0,25,26
 994.45 878.181 994.45 878.181 900.736 893.454 c 0,27,28
 842.307 902.357 842.307 902.357 810.391 935.003 c 0,29,30
 778.093 968.039 778.093 968.039 779.375 1027.02 c 0,31,32
 781.326 1105.92 781.326 1105.92 854.637 1143.07 c 0,33,34
 937.89 1185.19 937.89 1185.19 1049.77 1191.37 c 1,0,-1
803.912 179.813 m 0,35,36
 1008.99 173.801 1008.99 173.801 1130.62 186.432 c 0,37,38
 1444.07 218.981 1444.07 218.981 1461.64 386.571 c 0,39,40
 1467.43 441.814 l 2,41,-1
 1467.43 1400.96 l 1,42,-1
 1638.3 1400.96 l 1,43,-1
 1638.3 411.814 l 2,44,45
 1638.3 393.987 1638.3 393.987 1635.64 355.166 c 0,46,47
 1620.76 138.003 1620.76 138.003 1327.64 46.5039 c 0,48,49
 1178.57 -0.0298237 1178.57 -0.0298237 911 2 c 24,50,51
 569.769 4.81854 569.769 4.81854 449.861 38.4805 c 0,52,53
 126.648 130.551 126.648 130.551 92 457 c 0,54,55
 79.4531 575.45 79.4531 575.45 128 709 c 1,56,-1
 290.912 676.955 l 1,57,58
 257.862 536.48 257.862 536.48 267 478 c 0,59,60
 300.288 257.155 300.288 257.155 525 203 c 0,61,62
 595.911 185.911 595.911 185.911 803.912 179.813 c 0,35,36
EndSplineSet
Substitution2: "'fina' Terminal Forms in Arabic lookup 9 subtable" uniFEDA
Substitution2: "'medi' Medial Forms in Arabic lookup 11 subtable" uniFEDC
Substitution2: "'init' Initial Forms in Arabic lookup 13 subtable" uniFEDB
EndChar

StartChar: uni0644
Encoding: 1604 1604 49
Width: 1263
VWidth: 2186
GlyphClass: 2
Flags: W
AnchorPoint: "Anchor-10" 439.01 1074.5 basechar 0
AnchorPoint: "Anchor-7" 407.15 -511.616 basechar 0
LayerCount: 2
Fore
SplineSet
969.47 164.241 m 0,0,1
 969.40464497 164.485594675 969.40464497 164.485594675 969.40464497 185.080134615 c 128,-1,2
 969.40464497 205.674674556 969.40464497 205.674674556 971.91 451.32 c 1,3,-1
 971.91 1399.03 l 1,4,-1
 1137.79 1399.03 l 1,5,-1
 1137.79 451.32 l 18,6,7
 1137.80603636 200.556403636 1137.80603636 200.556403636 1135.46 195.191 c 1,8,9
 1131 -55 1131 -55 1001.70523845 -198.773257844 c 128,-1,10
 872.410211402 -342.546810922 872.410211402 -342.546810922 621.696122666 -342.546810922 c 0,11,12
 381.479163585 -342.546810922 381.479163585 -342.546810922 236.239581792 -216.273405461 c 128,-1,13
 91 -90 91 -90 91.2025809677 158.69088852 c 0,14,15
 91 289 91 289 136.823 404.99 c 1,16,-1
 296.222 372.975 l 1,17,18
 259 249 259 249 259.151627961 166.239218124 c 0,19,20
 259 -1 259 -1 363.96 -98.4141 c 0,21,22
 444.999643405 -173.999667404 444.999643405 -173.999667404 598.92687714 -173.999667404 c 0,23,24
 968.676092029 -173.999267944 968.676092029 -173.999267944 969.47 164.241 c 0,0,1
EndSplineSet
Substitution2: "'fina' Terminal Forms in Arabic lookup 9 subtable" uniFEDE
Substitution2: "'medi' Medial Forms in Arabic lookup 11 subtable" uniFEE0
Substitution2: "'init' Initial Forms in Arabic lookup 13 subtable" uniFEDF
EndChar

StartChar: uni0645
Encoding: 1605 1605 50
Width: 1018
VWidth: 2186
GlyphClass: 2
Flags: W
AnchorPoint: "Anchor-10" 586.5 1028.31 basechar 0
AnchorPoint: "Anchor-7" 169.631 -618.952 basechar 0
LayerCount: 2
Fore
SplineSet
442 312 m 1,0,1
 475 303 475 303 588 277 c 0,2,3
 664 259 664 259 696 260 c 0,4,5
 779 262 779 262 777.373046875 327.177734375 c 0,6,7
 776 371 776 371 746 438 c 0,8,9
 679 585 679 585 577 583 c 0,10,11
 523 582 523 582 482.912109375 532.1171875 c 0,12,13
 442 482 442 482 442.044921875 379.263671875 c 0,14,15
 442 346 442 346 442 312 c 1,0,1
91 -113 m 2,16,17
 91 264 91 264 282.780273438 295.986328125 c 1,18,19
 283 306 283 306 282.616210938 316.05078125 c 0,20,21
 283 574 283 574 406.815429688 681.677734375 c 0,22,23
 477 743 477 743 571.895507812 742.794921875 c 0,24,25
 802 743 802 743 913.829101562 381.642578125 c 0,26,27
 927 339 927 339 928 308 c 0,28,29
 935 158 935 158 786 113 c 0,30,31
 724 94 724 94 635 107 c 0,32,33
 549 120 549 120 432 144.922851562 c 0,34,35
 336 166 336 166 286 69 c 0,36,37
 257 12 257 12 257 -127 c 2,38,-1
 257 -488 l 1,39,-1
 91 -488 l 1,40,-1
 91 -113 l 2,16,17
EndSplineSet
Substitution2: "'init' Initial Forms in Arabic lookup 13 subtable" uniFEE3
Substitution2: "'medi' Medial Forms in Arabic lookup 11 subtable" uniFEE4
Substitution2: "'fina' Terminal Forms in Arabic lookup 9 subtable" uniFEE2
EndChar

StartChar: uni0647
Encoding: 1607 1607 52
Width: 904
VWidth: 2186
GlyphClass: 2
Flags: W
AnchorPoint: "Anchor-10" 417.924 1154.58 basechar 0
AnchorPoint: "Anchor-7" 316.864 -240.56 basechar 0
LayerCount: 2
Fore
SplineSet
464.788085938 159.5390625 m 1,0,1
 638 160 638 160 637.704101562 312.729492188 c 0,2,3
 638 450 638 450 448 601 c 1,4,5
 266 442 266 442 266 323 c 0,6,7
 266 165 266 165 464.788085938 159.5390625 c 1,0,1
91.203125 302.774414062 m 0,8,9
 91 431 91 431 239 609 c 0,10,11
 336 719 l 1,12,-1
 285 762 l 1,13,-1
 388 879 l 1,14,15
 631 706 631 706 756 478 c 0,16,17
 813 374 813 374 812.6171875 286.874023438 c 0,18,19
 813 141 813 141 668 53 c 0,20,21
 588 4 588 4 471.055664062 4.3935546875 c 0,22,23
 343 4 343 4 263.998046875 43.4404296875 c 0,24,25
 91 128 91 128 91.203125 302.774414062 c 0,8,9
EndSplineSet
Substitution2: "'fina' Terminal Forms in Arabic lookup 9 subtable" uniFEEA
Substitution2: "'medi' Medial Forms in Arabic lookup 11 subtable" uniFEEC
Substitution2: "'init' Initial Forms in Arabic lookup 13 subtable" uniFEEB
EndChar

StartChar: uni0648
Encoding: 1608 1608 53
Width: 800
VWidth: 2186
GlyphClass: 2
Flags: W
AnchorPoint: "Anchor-10" 339.282 1037.17 basechar 0
AnchorPoint: "Anchor-7" 318.191 -667.443 basechar 0
LayerCount: 2
Fore
SplineSet
508.0390625 420.494140625 m 0,0,1
 472.68359375 498.805664062 472.68359375 498.805664062 401.8046875 498.544921875 c 0,2,3
 347.341796875 498.790039062 347.341796875 498.790039062 301.681640625 435.421875 c 0,4,5
 256.341796875 372.790039062 256.341796875 372.790039062 256.166015625 294.806640625 c 0,6,7
 256.341796875 164.790039062 256.341796875 164.790039062 417.297851562 164.125 c 0,8,9
 476.341796875 163.790039062 476.341796875 163.790039062 543.571289062 175.084960938 c 1,10,11
 543.341796875 338.790039062 543.341796875 338.790039062 508.0390625 420.494140625 c 0,0,1
696.390625 10.4423828125 m 0,12,13
 659 -189 659 -189 521.5 -312 c 0,14,15
 388 -431 388 -431 99.0634765625 -455.0859375 c 5,16,-1
 70.197265625 -292.811523438 l 5,17,18
 449 -259 449 -259 530 11 c 1,19,20
 443 -1 443 -1 385.934570312 -0.66796875 c 0,21,22
 226 1 226 1 149.967773438 103.978515625 c 0,23,24
 94 180 94 180 94.142578125 273.127929688 c 0,25,26
 94 366 94 366 144.083007812 474.633789062 c 0,27,28
 242 688 242 688 401.209960938 688.397460938 c 0,29,30
 548 688 548 688 649.021484375 499.03515625 c 0,31,32
 707 391 707 391 709 204 c 0,33,34
 710 87 710 87 696.390625 10.4423828125 c 0,12,13
EndSplineSet
Substitution2: "'fina' Terminal Forms in Arabic lookup 9 subtable" uniFEEE
EndChar

StartChar: uni0649
Encoding: 1609 1609 54
Width: 1337
VWidth: 2186
GlyphClass: 2
Flags: W
AnchorPoint: "Anchor-10" 434.847 948.66 basechar 0
AnchorPoint: "Anchor-7" 414.548 -617.146 basechar 0
LayerCount: 2
Fore
SplineSet
1095 -72 m 0,0,1
 1118 8 1118 8 1063.63964844 21.0546875 c 0,2,3
 1055 23 1055 23 1043.12597656 23.1171875 c 0,4,5
 992 24 992 24 954.657226562 27.0791015625 c 0,6,7
 815 39 815 39 757 112 c 0,8,9
 695 189 695 189 730 342.5 c 0,10,11
 766 503 766 503 893 593 c 0,12,13
 1027 688 1027 688 1223 660.749023438 c 1,14,-1
 1210 502 l 1,15,16
 1190 502 1190 502 1171 502 c 0,17,18
 983 497 983 497 913 394 c 0,19,20
 876 339 876 339 875.712890625 287 c 0,21,22
 876 226 876 226 913 208 c 0,23,24
 944 192 944 192 1059 186 c 0,25,26
 1265 174 1265 174 1264 17 c 0,27,28
 1263 -146 1263 -146 1125 -272 c 0,29,30
 942 -439 942 -439 654.096679688 -428.733398438 c 0,31,32
 272 -415 272 -415 141.430664062 -155.805664062 c 0,33,34
 92 -58 92 -58 91.73046875 86.341796875 c 0,35,36
 92 286 92 286 216.317382812 517.03125 c 1,37,-1
 370 456 l 1,38,39
 268 280 268 280 268.012695312 87.2744140625 c 0,40,41
 268 -234 268 -234 648.225585938 -251.13671875 c 0,42,43
 823 -259 823 -259 939 -210 c 0,44,45
 1072 -154 1072 -154 1095 -72 c 0,0,1
EndSplineSet
Substitution2: "'fina' Terminal Forms in Arabic lookup 9 subtable" uniFEF0
Substitution2: "'medi' Medial Forms in Arabic lookup 11 subtable" uniFBE9
Substitution2: "'init' Initial Forms in Arabic lookup 13 subtable" uniFBE8
EndChar

StartChar: uni064B
Encoding: 1611 1611 56
Width: 0
VWidth: 2186
GlyphClass: 4
Flags: W
AnchorPoint: "Anchor-10" 547.84 1041.5 mark 0
AnchorPoint: "Anchor-9" 547.84 1041.5 mark 0
AnchorPoint: "Anchor-1" 547.84 1576.5 basemark 0
AnchorPoint: "Anchor-1" 547.84 1041.5 mark 0
LayerCount: 2
Fore
SplineSet
286 993 m 5,0,-1
 286 1120.0703125 l 5,1,-1
 780 1322.0703125 l 5,2,-1
 780 1195 l 5,3,-1
 286 993 l 5,0,-1
286 1252 m 5,4,-1
 286 1379.0703125 l 5,5,-1
 780 1581.0703125 l 5,6,-1
 780 1454 l 5,7,-1
 286 1252 l 5,4,-1
EndSplineSet
EndChar

StartChar: uni064C
Encoding: 1612 1612 57
Width: 0
VWidth: 2186
GlyphClass: 4
Flags: W
AnchorPoint: "Anchor-10" 554.386 1155.44 mark 0
AnchorPoint: "Anchor-9" 554.386 1155.44 mark 0
AnchorPoint: "Anchor-1" 546.386 1810.94 basemark 0
AnchorPoint: "Anchor-1" 554.386 1155.44 mark 0
LayerCount: 2
Fore
SplineSet
567.219 1298.72 m 0,0,1
 608.391 1338.78 608.391 1338.78 631.845 1385.69 c 2,2,-1
 639.364 1400.73 l 1,3,-1
 622.913 1404.22 l 2,4,5
 589.558 1411.29 589.558 1411.29 566.532 1424.31 c 0,6,7
 457.736 1481.73 457.736 1481.73 457.736 1574.47 c 0,8,9
 457.736 1661.08 457.736 1661.08 526.365 1712.8 c 0,10,11
 552.86 1732.67 552.86 1732.67 615.937 1732.67 c 0,12,13
 688.759 1732.67 688.759 1732.67 727.738 1694.66 c 0,14,15
 782.696 1640.71 782.696 1640.71 782.696 1561.63 c 0,16,17
 782.696 1521.9 782.696 1521.9 770.46 1483.15 c 2,18,-1
 765.402 1467.14 l 1,19,-1
 782.175 1466.26 l 2,20,21
 802.247 1465.2 802.247 1465.2 817.806 1465.17 c 0,22,23
 831.205 1464.45 831.205 1464.45 845.826 1464.2 c 1,24,-1
 845.826 1372.44 l 1,25,26
 806.232 1372.69 806.232 1372.69 788.381 1374.48 c 2,27,-1
 723.27 1380.74 l 1,28,-1
 719.537 1371.99 l 2,29,30
 692.652 1308.91 692.652 1308.91 614.12 1227.24 c 1,31,32
 527.043 1139.14 527.043 1139.14 431.896 1139.14 c 0,33,34
 319.02 1139.14 319.02 1139.14 262.205 1295.39 c 0,35,36
 247.89 1334.51 247.89 1334.51 246.994 1442.7 c 1,37,-1
 317.299 1442.7 l 1,38,39
 318.143 1347.11 318.143 1347.11 331.307 1318.59 c 0,40,41
 372.26 1230.84 372.26 1230.84 431.896 1230.84 c 0,42,43
 497.076 1230.84 497.076 1230.84 567.219 1298.72 c 0,0,1
669.292 1482.64 m 1,44,-1
 680.316 1508.36 l 2,45,46
 690.996 1533.28 690.996 1533.28 690.996 1561.63 c 0,47,48
 690.996 1604.15 690.996 1604.15 668.07 1623.02 c 0,49,50
 646.28 1640.97 646.28 1640.97 620.217 1640.97 c 0,51,52
 591.787 1640.97 591.787 1640.97 575.875 1628.63 c 0,53,54
 551.576 1610.34 551.576 1610.34 551.576 1574.47 c 0,55,56
 551.576 1526.08 551.576 1526.08 607.898 1503.55 c 0,57,58
 629.803 1494.79 629.803 1494.79 658.123 1486.08 c 2,59,-1
 669.292 1482.64 l 1,44,-1
EndSplineSet
EndChar

StartChar: uni064D
Encoding: 1613 1613 58
Width: 0
VWidth: 2186
GlyphClass: 4
Flags: W
AnchorPoint: "Anchor-7" 531.84 75.5 mark 0
AnchorPoint: "Anchor-6" 531.84 75.5 mark 0
AnchorPoint: "Anchor-0" 547.84 -439.5 basemark 0
AnchorPoint: "Anchor-0" 531.84 75.5 mark 0
LayerCount: 2
Fore
SplineSet
291 -497 m 5,0,-1
 291 -369.9296875 l 5,1,-1
 785 -167.9296875 l 5,2,-1
 785 -295 l 5,3,-1
 291 -497 l 5,0,-1
291 -238 m 5,4,-1
 291 -110.9296875 l 5,5,-1
 785 91.0703125 l 5,6,-1
 785 -36 l 5,7,-1
 291 -238 l 5,4,-1
EndSplineSet
EndChar

StartChar: uni064E
Encoding: 1614 1614 59
Width: 0
VWidth: 2186
GlyphClass: 4
Flags: W
AnchorPoint: "Anchor-10" 517.84 1279.5 mark 0
AnchorPoint: "Anchor-9" 517.84 1279.5 mark 0
AnchorPoint: "Anchor-1" 517.84 1600.5 basemark 0
AnchorPoint: "Anchor-1" 517.84 1279.5 mark 0
LayerCount: 2
Fore
SplineSet
257 1251 m 5,0,-1
 257 1378.0703125 l 5,1,-1
 751 1580.0703125 l 5,2,-1
 751 1453 l 5,3,-1
 257 1251 l 5,0,-1
EndSplineSet
EndChar

StartChar: uni064F
Encoding: 1615 1615 60
Width: 0
VWidth: 2186
GlyphClass: 4
Flags: W
AnchorPoint: "Anchor-10" 531.84 1205.5 mark 0
AnchorPoint: "Anchor-9" 531.84 1205.5 mark 0
AnchorPoint: "Anchor-1" 547.84 1825 basemark 0
AnchorPoint: "Anchor-1" 531.84 1205.5 mark 0
LayerCount: 2
Fore
SplineSet
594.529 1426.81 m 6,0,1
 586.598 1428.57 586.598 1428.57 567.734 1438.5 c 4,2,3
 459.19 1494.78 459.19 1494.78 459.19 1588.53 c 4,4,5
 459.19 1675.14 459.19 1675.14 527.819 1726.86 c 4,6,7
 554.314 1746.73 554.314 1746.73 617.39 1746.73 c 4,8,9
 690.212 1746.73 690.212 1746.73 729.192 1708.72 c 4,10,11
 784.15 1654.77 784.15 1654.77 784.15 1575.69 c 4,12,13
 784.15 1543.43 784.15 1543.43 769.757 1497.16 c 6,14,-1
 764.821 1481.3 l 5,15,-1
 781.407 1480.32 l 6,16,17
 799.81 1479.24 799.81 1479.24 819.259 1478.7 c 4,18,19
 832.229 1478.34 832.229 1478.34 847.28 1478.21 c 5,20,-1
 847.28 1386.53 l 5,21,22
 817.029 1386.85 817.029 1386.85 789.455 1388.57 c 4,23,24
 757.6 1390.7 757.6 1390.7 727.915 1393.88 c 6,25,-1
 720.312 1394.69 l 5,26,-1
 715.905 1388.44 l 6,27,28
 671.45 1325.37 671.45 1325.37 599.88 1281.81 c 4,29,30
 398.294 1157.85 398.294 1157.85 248.4 1152.36 c 5,31,-1
 248.4 1244.01 l 5,32,33
 408.671 1248.65 408.671 1248.65 554.781 1363.22 c 4,34,35
 580.142 1383.07 580.142 1383.07 601.135 1405.16 c 6,36,-1
 616.962 1421.83 l 5,37,-1
 594.529 1426.81 l 6,0,1
670.746 1496.7 m 5,38,-1
 681.77 1522.42 l 6,39,40
 692.45 1547.34 692.45 1547.34 692.45 1575.69 c 4,41,42
 692.45 1618.21 692.45 1618.21 669.524 1637.08 c 4,43,44
 647.734 1655.03 647.734 1655.03 621.67 1655.03 c 4,45,46
 593.241 1655.03 593.241 1655.03 577.329 1642.69 c 4,47,48
 553.03 1624.4 553.03 1624.4 553.03 1588.53 c 4,49,50
 553.03 1540.14 553.03 1540.14 609.352 1517.61 c 4,51,52
 631.256 1508.85 631.256 1508.85 659.577 1500.14 c 6,53,-1
 670.746 1496.7 l 5,38,-1
EndSplineSet
EndChar

StartChar: uni0650
Encoding: 1616 1616 61
Width: 0
VWidth: 2186
GlyphClass: 4
Flags: W
AnchorPoint: "Anchor-7" 509.84 -12.5 mark 0
AnchorPoint: "Anchor-6" 509.84 -12.5 mark 0
AnchorPoint: "Anchor-0" 556.84 -311.5 basemark 0
AnchorPoint: "Anchor-0" 509.84 -12.5 mark 0
LayerCount: 2
Fore
SplineSet
301 -343 m 1,0,-1
 301 -215.9296875 l 1,1,-1
 795 -13.9296875 l 1,2,-1
 795 -141 l 1,3,-1
 301 -343 l 1,0,-1
EndSplineSet
EndChar

StartChar: uni0651
Encoding: 1617 1617 62
Width: 0
VWidth: 2186
GlyphClass: 4
Flags: W
AnchorPoint: "Anchor-10" 547.84 1316.5 mark 0
AnchorPoint: "Anchor-9" 547.84 1316.5 mark 0
AnchorPoint: "Anchor-1" 535.84 1818.5 basemark 0
AnchorPoint: "Anchor-1" 547.84 1316.5 mark 0
LayerCount: 2
Fore
SplineSet
507.838 1339.09 m 128,-1,1
 469.58 1294.39 469.58 1294.39 378.78 1294.39 c 0,2,3
 301.302 1294.39 301.302 1294.39 261.261 1355.91 c 0,4,5
 227 1408.31 227 1408.31 227 1486.07 c 0,6,7
 227 1527.41 227 1527.41 242.222 1626.56 c 1,8,-1
 320.73 1626.56 l 1,9,10
 310.14 1502.98 310.14 1502.98 310.14 1459.89 c 0,11,12
 310.14 1394.86 310.14 1394.86 398.84 1393.09 c 0,13,14
 497.128 1391.16 497.128 1391.16 506.266 1518.54 c 0,15,16
 508.184 1545.08 508.184 1545.08 508.4 1680.83 c 1,17,-1
 586.06 1680.83 l 1,18,19
 588.34 1645.85 588.34 1645.85 588.34 1597.53 c 0,20,21
 588.34 1452.09 588.34 1452.09 700.84 1452.09 c 4,22,23
 785.54 1452.09 785.54 1452.09 785.54 1599.06 c 4,24,25
 785.54 1708.64 785.54 1708.64 774.521 1770.1 c 5,26,-1
 857.705 1770.1 l 5,27,28
 868.68 1694.87 868.68 1694.87 868.68 1580.87 c 4,29,30
 868.68 1511.69 868.68 1511.69 841.188 1456.65 c 4,31,32
 796.118 1367.27 796.118 1367.27 722.84 1358.99 c 4,33,34
 657.525 1351.76 657.525 1351.76 616.258 1379.33 c 4,35,36
 556.63 1418.62 556.63 1418.62 554.84 1431.09 c 1,37,38
 546.096 1383.79 546.096 1383.79 507.838 1339.09 c 128,-1,1
EndSplineSet
EndChar

StartChar: uni0652
Encoding: 1618 1618 63
Width: 0
VWidth: 2186
GlyphClass: 4
Flags: W
AnchorPoint: "Anchor-10" 565.84 1128.5 mark 0
AnchorPoint: "Anchor-9" 565.84 1128.5 mark 0
AnchorPoint: "Anchor-1" 551.84 1702 basemark 0
AnchorPoint: "Anchor-1" 565.84 1128.5 mark 0
LayerCount: 2
Fore
SplineSet
674.569 1383.62 m 0,0,1
 674.569 1428.15 674.569 1428.15 643.439 1459.28 c 128,-1,2
 612.312 1490.41 612.312 1490.41 567.126 1490.41 c 0,3,4
 521.285 1490.41 521.285 1490.41 490.485 1459.61 c 128,-1,5
 459.685 1428.81 459.685 1428.81 459.685 1383.62 c 0,6,7
 459.685 1337.78 459.685 1337.78 490.485 1306.98 c 128,-1,8
 521.285 1276.18 521.285 1276.18 567.126 1276.18 c 0,9,10
 612.314 1276.18 612.314 1276.18 643.439 1307.31 c 128,-1,11
 674.569 1338.44 674.569 1338.44 674.569 1383.62 c 0,0,1
750.396 1383.73 m 128,-1,13
 750.396 1306.88 750.396 1306.88 697.316 1253.46 c 128,-1,14
 644.259 1200.07 644.259 1200.07 567.436 1200.07 c 128,-1,15
 490.613 1200.07 490.613 1200.07 437.557 1253.46 c 128,-1,16
 384.476 1306.88 384.476 1306.88 384.476 1383.73 c 128,-1,17
 384.476 1460.56 384.476 1460.56 437.537 1513.63 c 128,-1,18
 490.596 1566.69 490.596 1566.69 567.436 1566.69 c 128,-1,19
 644.276 1566.69 644.276 1566.69 697.335 1513.63 c 128,-1,12
 750.396 1460.56 750.396 1460.56 750.396 1383.73 c 128,-1,13
EndSplineSet
EndChar

StartChar: uni0653
Encoding: 1619 1619 64
Width: 0
VWidth: 2186
GlyphClass: 4
Flags: W
AnchorPoint: "Anchor-10" 383.84 1264.52 mark 0
AnchorPoint: "Anchor-9" 383.84 1264.52 mark 0
AnchorPoint: "Anchor-1" 383.84 1600.5 basemark 0
AnchorPoint: "Anchor-1" 383.84 1264.52 mark 0
LayerCount: 2
Fore
SplineSet
305 1440 m 6,0,-1
 642 1440 l 5,1,-1
 643 1340 l 5,2,-1
 318 1340 l 6,3,4
 212 1340 212 1340 138.553710938 1244.28613281 c 5,5,-1
 70.2041015625 1321.51464844 l 5,6,7
 148 1440 148 1440 305 1440 c 6,0,-1
EndSplineSet
EndChar

StartChar: uni0657
Encoding: 1623 1623 67
Width: 0
VWidth: 2186
GlyphClass: 4
Flags: W
AnchorPoint: "Anchor-10" 547.84 1279.5 mark 0
AnchorPoint: "Anchor-9" 547.84 1279.5 mark 0
AnchorPoint: "Anchor-1" 547.84 1975 basemark 0
AnchorPoint: "Anchor-1" 547.84 1279.5 mark 0
LayerCount: 2
Fore
SplineSet
501.148 1675.55 m 2,0,1
 509.083 1673.79 509.083 1673.79 527.945 1663.86 c 0,2,3
 636.49 1607.58 636.49 1607.58 636.49 1513.83 c 0,4,5
 636.49 1427.22 636.49 1427.22 567.86 1375.5 c 0,6,7
 541.366 1355.63 541.366 1355.63 478.29 1355.63 c 0,8,9
 405.468 1355.63 405.468 1355.63 366.487 1393.64 c 0,10,11
 311.53 1447.59 311.53 1447.59 311.53 1526.67 c 0,12,13
 311.53 1558.94 311.53 1558.94 325.923 1605.2 c 2,14,-1
 330.858 1621.06 l 1,15,-1
 314.272 1622.04 l 2,16,17
 295.871 1623.12 295.871 1623.12 276.421 1623.66 c 0,18,19
 263.452 1624.02 263.452 1624.02 248.4 1624.15 c 1,20,-1
 248.4 1715.83 l 1,21,22
 278.631 1715.51 278.631 1715.51 306.226 1713.79 c 0,23,24
 338.082 1711.66 338.082 1711.66 367.766 1708.48 c 2,25,-1
 375.369 1707.67 l 1,26,-1
 379.775 1713.92 l 2,27,28
 424.231 1776.99 424.231 1776.99 495.801 1820.55 c 0,29,30
 697.387 1944.51 697.387 1944.51 847.28 1950 c 1,31,-1
 847.28 1858.35 l 1,32,33
 687.009 1853.71 687.009 1853.71 540.898 1739.14 c 0,34,35
 515.54 1719.29 515.54 1719.29 494.545 1697.2 c 2,36,-1
 478.72 1680.54 l 1,37,-1
 501.148 1675.55 l 2,0,1
424.935 1605.66 m 1,38,-1
 413.911 1579.94 l 2,39,40
 403.23 1555.02 403.23 1555.02 403.23 1526.67 c 0,41,42
 403.23 1484.16 403.23 1484.16 426.155 1465.28 c 0,43,44
 447.946 1447.33 447.946 1447.33 474.01 1447.33 c 0,45,46
 502.438 1447.33 502.438 1447.33 518.352 1459.67 c 0,47,48
 542.65 1477.96 542.65 1477.96 542.65 1513.83 c 0,49,50
 542.65 1562.22 542.65 1562.22 486.328 1584.75 c 0,51,52
 464.442 1593.51 464.442 1593.51 436.104 1602.22 c 2,53,-1
 424.935 1605.66 l 1,38,-1
EndSplineSet
EndChar

StartChar: uni065A
Encoding: 1626 1626 68
Width: 1095
VWidth: 2186
GlyphClass: 4
Flags: W
AnchorPoint: "Anchor-10" 547.84 1279.5 mark 0
AnchorPoint: "Anchor-9" 547.84 1279.5 mark 0
AnchorPoint: "Anchor-1" 545.7 1761 basemark 0
AnchorPoint: "Anchor-1" 547.84 1279.5 mark 0
LayerCount: 2
Fore
SplineSet
476.032 1358.84 m 1,0,-1
 282.934 1681.66 l 1,1,-1
 401.783 1681.66 l 1,2,-1
 547.84 1462.57 l 1,3,-1
 693.896 1681.66 l 1,4,-1
 812.746 1681.66 l 1,5,-1
 619.646 1358.84 l 1,6,-1
 476.032 1358.84 l 1,0,-1
EndSplineSet
EndChar

StartChar: afii57392
Encoding: 1632 1632 69
Width: 1177
VWidth: 2186
GlyphClass: 2
Flags: W
LayerCount: 2
Fore
SplineSet
502.740234375 529.610351562 m 132,-1,1
 502.740234375 489.984375 502.740234375 489.984375 531.157226562 461.567382812 c 132,-1,2
 559.57421875 433.150390625 559.57421875 433.150390625 599.200195312 433.150390625 c 132,-1,3
 638.825195312 433.150390625 638.825195312 433.150390625 667.2421875 461.567382812 c 132,-1,4
 695.66015625 489.985351562 695.66015625 489.985351562 695.66015625 529.610351562 c 132,-1,5
 695.66015625 569.234375 695.66015625 569.234375 667.2421875 597.65234375 c 132,-1,6
 638.82421875 626.0703125 638.82421875 626.0703125 599.200195312 626.0703125 c 132,-1,7
 559.575195312 626.0703125 559.575195312 626.0703125 531.157226562 597.65234375 c 132,-1,0
 502.740234375 569.235351562 502.740234375 569.235351562 502.740234375 529.610351562 c 132,-1,1
352.266601562 526.561523438 m 132,-1,9
 352.266601562 630.376953125 352.266601562 630.376953125 425.555664062 704.09375 c 132,-1,10
 498.809570312 777.775390625 498.809570312 777.775390625 601.947265625 777.775390625 c 132,-1,11
 705.088867188 777.775390625 705.088867188 777.775390625 778.338867188 704.09375 c 132,-1,12
 851.625976562 630.375 851.625976562 630.375 851.625976562 526.561523438 c 132,-1,13
 851.625976562 422.743164062 851.625976562 422.743164062 778.338867188 349.03125 c 132,-1,14
 705.083007812 275.350585938 705.083007812 275.350585938 601.947265625 275.350585938 c 132,-1,15
 498.80859375 275.350585938 498.80859375 275.350585938 425.555664062 349.03125 c 132,-1,8
 352.266601562 422.745117188 352.266601562 422.745117188 352.266601562 526.561523438 c 132,-1,9
EndSplineSet
EndChar

StartChar: afii57393
Encoding: 1633 1633 70
Width: 1177
VWidth: 2186
GlyphClass: 2
Flags: W
LayerCount: 2
Fore
SplineSet
735.995 8.5 m 1,0,-1
 569.393 8.5 l 1,1,2
 569 377 569 377 527.865078125 759.1265 c 0,3,4
 487 1135 487 1135 384 1320.65039062 c 1,5,-1
 535.4921875 1373.5 l 1,6,7
 644 1189 644 1189 702.028 683.021 c 0,8,9
 736 387 736 387 735.995 8.5 c 1,0,-1
EndSplineSet
EndChar

StartChar: afii57394
Encoding: 1634 1634 71
Width: 1177
VWidth: 2186
GlyphClass: 2
Flags: W
LayerCount: 2
Fore
SplineSet
1066 1373 m 5,0,1
 1061 873 1061 873 660.19 873.061 c 4,2,3
 532 873 532 873 441 935 c 5,4,5
 483 782 483 782 504.524240081 606.325304214 c 4,6,7
 526 431 526 431 526.275 8.5 c 1,8,-1
 359.672 8.5 l 1,9,10
 359 448 359 448 314.314941406 717.75 c 4,11,12
 269 989 269 989 129 1321 c 5,13,-1
 292.076 1373.5 l 5,14,15
 359 1216 359 1216 363.137 1208.98 c 4,16,17
 457 1037 457 1037 648 1038.5 c 132,-1,18
 839 1040 839 1040 883.03515625 1189.00976562 c 4,19,20
 903 1256 903 1256 898.416 1373.5 c 5,21,-1
 1066 1373 l 5,0,1
EndSplineSet
EndChar

StartChar: afii57395
Encoding: 1635 1635 72
Width: 1177
VWidth: 2186
GlyphClass: 2
Flags: W
LayerCount: 2
Fore
SplineSet
688.399 971.244 m 5,0,1
 620 888 620 888 512.449501966 889.617468483 c 4,2,3
 482 890 482 890 444.501 893.582 c 5,4,5
 466 836 466 836 492.68 660.1145 c 4,6,7
 519 484 519 484 519.854 8.5 c 1,8,-1
 353.252 8.5 l 1,9,10
 353 455 353 455 313.405582031 712.640773438 c 4,11,12
 276 959 276 959 123 1320.65039062 c 5,13,-1
 282.325 1373.5 l 5,14,15
 331 1256 331 1256 371.758 1127.85 c 4,16,17
 394 1059 394 1059 486.900914801 1058.53673594 c 4,18,19
 596 1059 596 1059 600.431640625 1154.6796875 c 4,20,21
 606 1278 606 1278 606.84375 1373.5 c 5,22,-1
 748.481445312 1373.5 l 5,23,24
 749 1145 749 1145 765.190429688 1115.70996094 c 4,25,26
 794 1067 794 1067 859.666015625 1067.38671875 c 4,27,28
 933 1067 933 1067 949.674884367 1117.20316568 c 4,29,30
 966 1167 966 1167 966.357 1373.5 c 5,31,-1
 1118 1373.65039062 l 5,32,33
 1117.08345085 1100.83917767 1117.08345085 1100.83917767 1068 999.91796875 c 4,34,35
 1016 893 1016 893 875.6735 894.46 c 4,36,37
 748.462592216 895.927818167 748.462592216 895.927818167 688.399 971.244 c 5,0,1
EndSplineSet
EndChar

StartChar: afii57396
Encoding: 1636 1636 73
Width: 1177
VWidth: 2186
GlyphClass: 2
Flags: W
LayerCount: 2
Fore
SplineSet
607.248173882 -1.55120972127 m 2,0,-1
 603.413303327 -1.54865826205 l 2,1,2
 195 -1.54865826205 195 -1.54865826205 195 348 c 0,3,4
 195 594 195 594 504.96484375 738.737304688 c 1,5,6
 249.924528302 753.231614955 249.924528302 753.231614955 249.924528302 986.511411732 c 4,7,8
 249.924528302 1279.93081761 249.924528302 1279.93081761 715 1353 c 5,9,-1
 715 1210 l 5,10,11
 417.855029586 1148.9428143 417.855029586 1148.9428143 417.855029586 990.373586359 c 0,12,13
 417.855029586 830.359848485 417.855029586 830.359848485 622.721103076 830.359848485 c 0,14,15
 675.549242424 830.359848485 675.549242424 830.359848485 742 841 c 1,16,-1
 744 663 l 1,17,18
 355 592 355 592 355 368 c 0,19,20
 355 160 355 160 638.839818255 160.013736673 c 0,21,22
 786 160 786 160 912 221 c 1,23,-1
 963.91 62.7109 l 1,24,25
 806.102090424 -1.55120972127 806.102090424 -1.55120972127 607.248173882 -1.55120972127 c 2,0,-1
EndSplineSet
EndChar

StartChar: afii57397
Encoding: 1637 1637 74
Width: 1177
VWidth: 2186
GlyphClass: 2
Flags: W
LayerCount: 2
Fore
SplineSet
566.70703125 1033.78027344 m 1,0,1
 425 923 425 923 349 777 c 0,2,3
 266.338974732 618.203819881 266.338974732 618.203819881 266.338974732 474.079940043 c 0,4,5
 266.338974732 186.145572583 266.338974732 186.145572583 616.462947257 186.145572583 c 0,6,7
 812.658478729 186.145572583 812.658478729 186.145572583 885 312 c 0,8,9
 920.438875028 373.663642549 920.438875028 373.663642549 920.438875028 435.548976525 c 0,10,11
 920.438875028 664.069432759 920.438875028 664.069432759 804.219437514 816.534716379 c 128,-1,12
 688 969 688 969 566.70703125 1033.78027344 c 1,0,1
374 1180 m 1,13,-1
 473 1330 l 1,14,15
 569 1284 569 1284 730.5 1155 c 128,-1,16
 892 1026 892 1026 987.5 856 c 0,17,18
 1093.42062496 667.45019641 1093.42062496 667.45019641 1093.42062496 461.077864408 c 128,-1,19
 1093.42062496 254.705532406 1093.42062496 254.705532406 999.698 155.195 c 0,20,21
 867.999999995 16.9999999949 867.999999995 16.9999999949 594.251 17.958 c 0,22,23
 316 18 316 18 188.858 155.138 c 0,24,25
 80.4446415834 273.42102089 80.4446415834 273.42102089 80.4446415834 445.879421761 c 0,26,27
 80.4446415834 639.107200198 80.4446415834 639.107200198 188.222320792 838.053600099 c 128,-1,28
 296 1037 296 1037 424.795898438 1148.51074219 c 1,29,-1
 374 1180 l 1,13,-1
EndSplineSet
EndChar

StartChar: afii57398
Encoding: 1638 1638 75
Width: 1177
VWidth: 2186
GlyphClass: 2
Flags: W
LayerCount: 2
Fore
SplineSet
892.247 1370.04 m 1,0,1
 893.315 1062.93 893.315 1062.93 931.881 694.996 c 0,2,3
 962.357 403.903 962.357 403.903 1063.92 8.5 c 1,4,-1
 881.021 8.5 l 1,5,6
 792.369 349.892 792.369 349.892 759.804 697.565 c 0,7,8
 729.72233316 1017.64197322 729.72233316 1017.64197322 727.521 1175.62 c 1,9,10
 610.106309623 1141.4 610.106309623 1141.4 460.1 1141.4 c 4,11,12
 276.589 1141.4 276.589 1141.4 103.95 1191.62 c 1,13,-1
 103.95 1369.49 l 1,14,15
 289.405 1320 289.405 1320 460.1 1320 c 0,16,17
 677.834 1320 677.834 1320 892.247 1370.04 c 1,0,1
EndSplineSet
EndChar

StartChar: afii57399
Encoding: 1639 1639 76
Width: 1177
VWidth: 2186
GlyphClass: 2
Flags: W
LayerCount: 2
Fore
SplineSet
504.29 8.5 m 1,0,1
 484 269 484 269 381.562 598.569 c 0,2,3
 219 1119 219 1119 113 1320.65039062 c 1,4,-1
 265.854 1373.5 l 1,5,6
 428 1046 428 1046 522.5 714.179 c 0,7,8
 574 535 574 535 588.5 453.533 c 1,9,10
 603 535 603 535 654.5 714.179 c 0,11,12
 749 1046 749 1046 911.146 1373.5 c 1,13,-1
 1065 1320.65039062 l 5,14,15
 927 1061 927 1061 795.312 598.138 c 0,16,17
 709.422186117 300.67252302 709.422186117 300.67252302 673.29 8.5 c 1,18,-1
 504.29 8.5 l 1,0,1
EndSplineSet
EndChar

StartChar: afii57400
Encoding: 1640 1640 77
Width: 1177
VWidth: 2186
GlyphClass: 2
Flags: W
LayerCount: 2
Fore
SplineSet
504.29 1373.5 m 1,0,-1
 673.29 1373.5 l 1,1,2
 706 1109 706 1109 795.31 783.872 c 0,3,4
 920 329 920 329 1069 49 c 1,5,-1
 911.146 8.5 l 1,6,7
 749 336 749 336 654.5 667.821 c 0,8,9
 603 847 603 847 588.5 928.467 c 1,10,11
 574 847 574 847 522.5 667.821 c 0,12,13
 428 336 428 336 265.854 8.5 c 1,14,-1
 109 53 l 1,15,16
 223 275 223 275 381.561 783.427 c 0,17,18
 484 1113 484 1113 504.29 1373.5 c 1,0,-1
EndSplineSet
EndChar

StartChar: afii57401
Encoding: 1641 1641 78
Width: 1177
VWidth: 2186
GlyphClass: 2
Flags: W
LayerCount: 2
Fore
SplineSet
752.21 647.29 m 2,0,1
 554.404 647.29 554.404 647.29 470.195 666.02 c 0,2,3
 286.998 707.162 286.998 707.162 207.965 794.351 c 0,4,5
 120 891.393 120 891.393 120 1006.65 c 0,6,7
 120 1160.34 120 1160.34 215.917 1256.33 c 0,8,9
 346.684 1388.2 346.684 1388.2 499.69 1387.2 c 0,10,11
 682.945 1387.2 682.945 1387.2 767.727 1305.45 c 0,12,13
 887.868 1188.57 887.868 1188.57 901.885 1000.34 c 0,14,15
 912.598 855.68 912.598 855.68 931.904 694.794 c 0,16,17
 970.703 372.799 970.703 372.799 1063.93 8.5 c 1,18,-1
 881.426 8.5 l 1,19,20
 786.212 440.811 786.212 440.811 765.135 635.688 c 2,21,-1
 763.88 647.29 l 1,22,-1
 752.21 647.29 l 2,0,1
739.53 814.96 m 1,23,-1
 739.53 921.05 l 2,24,25
 740 1055 740 1055 692.940429688 1123.49023438 c 4,26,27
 629 1218 629 1218 505.04 1217.6 c 0,28,29
 415 1218 415 1218 350.496 1155.11 c 0,30,31
 287 1094 287 1094 286.6 1012 c 0,32,33
 287 941 287 941 356.163 885.514 c 0,34,35
 397 853 397 853 478.473 833.508 c 0,36,37
 556.16755349 814.96 556.16755349 814.96 726.53 814.96 c 2,38,-1
 739.53 814.96 l 1,23,-1
EndSplineSet
EndChar

StartChar: afii57381
Encoding: 1642 1642 79
Width: 1177
VWidth: 2186
GlyphClass: 2
Flags: W
LayerCount: 2
Fore
SplineSet
794 160 m 128,-1,1
 794 206 794 206 827 239 c 128,-1,2
 860 272 860 272 906 272 c 128,-1,3
 952 272 952 272 985 239 c 128,-1,4
 1018 206 1018 206 1018 160 c 128,-1,5
 1018 114 1018 114 985 81 c 128,-1,6
 952 48 952 48 906 48 c 128,-1,7
 860 48 860 48 827 81 c 128,-1,0
 794 114 794 114 794 160 c 128,-1,1
159 1227 m 128,-1,9
 159 1273 159 1273 192 1306 c 128,-1,10
 225 1339 225 1339 271 1339 c 128,-1,11
 317 1339 317 1339 350 1306 c 128,-1,12
 383 1273 383 1273 383 1227 c 128,-1,13
 383 1181 383 1181 350 1148 c 128,-1,14
 317 1115 317 1115 271 1115 c 128,-1,15
 225 1115 225 1115 192 1148 c 128,-1,8
 159 1181 159 1181 159 1227 c 128,-1,9
874.393554688 1379.5 m 1,16,-1
 1002 1320.65039062 l 1,17,-1
 320.606445312 8.5 l 1,18,-1
 196 68 l 1,19,-1
 874.393554688 1379.5 l 1,16,-1
EndSplineSet
EndChar

StartChar: uni066B
Encoding: 1643 1643 80
Width: 711
VWidth: 2186
GlyphClass: 2
Flags: W
LayerCount: 2
Fore
SplineSet
451 500 m 1,0,-1
 582.581054688 499.064453125 l 5,1,2
 404 134 404 134 225 -230.264648438 c 5,3,-1
 90.59765625 -228.501953125 l 1,4,5
 271 136 271 136 451 500 c 1,0,-1
EndSplineSet
EndChar

StartChar: uni066C
Encoding: 1644 1644 81
Width: 696
VWidth: 2186
GlyphClass: 2
Flags: W
LayerCount: 2
Fore
SplineSet
291.2 1580.01 m 1,0,-1
 490.97 1580.01 l 1,1,-1
 490.97 1433.52 l 1,2,-1
 320.557 1102.04 l 1,3,-1
 207.225 1102.04 l 1,4,-1
 291.2 1428.73 l 1,5,-1
 291.2 1580.01 l 1,0,-1
EndSplineSet
EndChar

StartChar: afii63167
Encoding: 1645 1645 82
Width: 1194
VWidth: 2186
GlyphClass: 2
Flags: W
LayerCount: 2
Fore
SplineSet
132.901 794.63 m 1,0,-1
 486.633 794.63 l 1,1,-1
 597.061 1130.84 l 1,2,-1
 707.487 794.63 l 1,3,-1
 1061.22 794.63 l 1,4,-1
 775.453 585.725 l 1,5,-1
 884.797 249.809 l 1,6,-1
 597.061 457.729 l 1,7,-1
 309.323 249.809 l 1,8,-1
 418.667 585.725 l 1,9,-1
 132.901 794.63 l 1,0,-1
EndSplineSet
EndChar

StartChar: uni066E
Encoding: 1646 1646 83
Width: 1727
VWidth: 2186
GlyphClass: 2
Flags: W
AnchorPoint: "Anchor-10" 763.22 1056.5 basechar 0
AnchorPoint: "Anchor-7" 763.22 -174 basechar 0
LayerCount: 2
Fore
SplineSet
1635.87028898 483.097226722 m 4,0,1
 1635.87028898 137.3900783 1635.87028898 137.3900783 1281.62 36.8076 c 4,2,3
 1148.53642947 -0.00106671422421 1148.53642947 -0.00106671422421 893.746748256 -0.00106671422421 c 4,4,5
 588.855890813 -0.00106671422421 588.855890813 -0.00106671422421 439.624 42.8076 c 4,6,7
 89.3772641084 144.906235505 89.3772641084 144.906235505 89.3772641084 499.335444177 c 4,8,9
 89.3772641084 594.762592982 89.3772641084 594.762592982 124.267 713.644 c 5,10,-1
 288.267 677.644 l 5,11,12
 263.948494541 545.948538678 263.948494541 545.948538678 263.948494541 516.310723284 c 4,13,14
 263.948494541 263.363465533 263.948494541 263.363465533 526.267 206.608 c 4,15,16
 649.117914101 180.010686869 649.117914101 180.010686869 829.704563208 180.010686869 c 4,17,18
 1127.79291247 180.010686869 1127.79291247 180.010686869 1200.45 197.561 c 4,19,20
 1462.43112458 260.842511714 1462.43112458 260.842511714 1462.43112458 487.857049077 c 4,21,22
 1462.43112458 548.367509764 1462.43112458 548.367509764 1439 672 c 5,23,-1
 1599.84 705.795 l 5,24,25
 1635.87028898 595.800058212 1635.87028898 595.800058212 1635.87028898 483.097226722 c 4,0,1
EndSplineSet
Substitution2: "'init' Initial Forms in Arabic lookup 13 subtable" uni066E.init
Substitution2: "'medi' Medial Forms in Arabic lookup 11 subtable" uni066E.medi
Substitution2: "'fina' Terminal Forms in Arabic lookup 9 subtable" uni066E.fina
EndChar

StartChar: uni066F
Encoding: 1647 1647 84
Width: 1462
VWidth: 2186
GlyphClass: 2
Flags: W
AnchorPoint: "Anchor-10" 315 1050.5 basechar 0
AnchorPoint: "Anchor-7" 472 -535 basechar 0
LayerCount: 2
Fore
SplineSet
1172.96777344 625.719726562 m 0,0,1
 1142.77928683 704.032019738 1142.77928683 704.032019738 1063.73214767 703.773200395 c 0,2,3
 1009 704 1009 704 963.610699604 640.649334893 c 0,4,5
 918 578 918 578 918.095971054 500.033347534 c 0,6,7
 918 414 918 414 978.01 387.861 c 0,8,9
 1019.99999999 369.000000006 1019.99999999 369.000000006 1079.23049763 369.351923924 c 0,10,11
 1138.99999999 368.999999999 1138.99999999 368.999999999 1205.5 380.312 c 1,12,13
 1205 537 1205 537 1172.96777344 625.719726562 c 0,0,1
1191.93 216.228 m 1,14,15
 1055 205 1055 205 1048.66008159 204.572638713 c 0,16,17
 883 205 883 205 815.896484375 297.20703125 c 0,18,19
 758 376 758 376 757.701190635 476.683769542 c 0,20,21
 758 570 758 570 808.013 679.861 c 0,22,23
 904.716792578 893.584169323 904.716792578 893.584169323 1059.84240973 893.584169323 c 0,24,25
 1109.98208322 893.584169323 1109.98208322 893.584169323 1166.01 869.861 c 0,26,27
 1247 836 1247 836 1304.635 717.259 c 0,28,29
 1370.33833766 580.378449089 1370.33833766 580.378449089 1370.33833766 361.391756801 c 0,30,31
 1370.33833766 287.81541491 1370.33833766 287.81541491 1365.17 198.981 c 0,32,33
 1349 -61 1349 -61 1213.58 -207.951 c 0,34,35
 1059 -376 1059 -376 716.293181309 -376.405433841 c 0,36,37
 442 -376 442 -376 266.248281006 -239.468209367 c 0,38,39
 90 -103 90 -103 90.0514145506 161.502004809 c 0,40,41
 90 405 90 405 185.122 615.521 c 1,42,-1
 354.826 581.21 l 1,43,44
 262 363 262 363 261.882294201 196.583824583 c 0,45,46
 262 154 262 154 267.882 115.596 c 0,47,48
 316.922843867 -207.491685 316.922843867 -207.491685 698.604239544 -207.491685 c 0,49,50
 964.507786693 -207.491685 964.507786693 -207.491685 1094.69 -77.4492 c 0,51,52
 1193 20 1193 20 1191.93 216.228 c 1,14,15
EndSplineSet
Substitution2: "'init' Initial Forms in Arabic lookup 13 subtable" uni066F.init
Substitution2: "'medi' Medial Forms in Arabic lookup 11 subtable" uni066F.medi
Substitution2: "'fina' Terminal Forms in Arabic lookup 9 subtable" uni066F.fina
EndChar

StartChar: uni0670
Encoding: 1648 1648 85
Width: 0
VWidth: 2186
GlyphClass: 4
Flags: W
AnchorPoint: "Anchor-10" 547.84 1279.5 mark 0
AnchorPoint: "Anchor-9" 547.84 1279.5 mark 0
AnchorPoint: "Anchor-1" 547.84 1975 basemark 0
AnchorPoint: "Anchor-1" 547.84 1279.5 mark 0
LayerCount: 2
Fore
SplineSet
501.99 1327.81 m 1,0,-1
 501.99 1926.69 l 1,1,-1
 593.69 1926.69 l 1,2,-1
 593.69 1327.81 l 1,3,-1
 501.99 1327.81 l 1,0,-1
EndSplineSet
EndChar

StartChar: uni0674
Encoding: 1652 1652 86
Width: 639
VWidth: 2186
GlyphClass: 2
Flags: W
LayerCount: 2
Fore
SplineSet
143.54 1515.26 m 1,0,-1
 254.306 1540.82 l 1,1,2
 145.68 1590.21 145.68 1590.21 145.68 1692.52 c 0,3,4
 145.68 1778.8 145.68 1778.8 206 1832 c 0,5,6
 256.995 1876.48 256.995 1876.48 343 1877 c 0,7,8
 410.823 1877 410.823 1877 462.08 1846.81 c 1,9,-1
 462.08 1769.8 l 1,10,11
 397.433 1802.12 397.433 1802.12 332 1795 c 0,12,13
 227.549 1783.73 227.549 1783.73 220.26 1701.08 c 0,14,15
 212.646 1612.93 212.646 1612.93 330.161 1577.33 c 0,16,17
 366.368 1566.36 366.368 1566.36 484.55 1593.69 c 1,18,-1
 484.55 1511.4 l 1,19,-1
 143.54 1434.84 l 1,20,-1
 143.54 1515.26 l 1,0,-1
EndSplineSet
EndChar

StartChar: uni06A1
Encoding: 1697 1697 90
Width: 1745
VWidth: 2186
GlyphClass: 2
Flags: W
AnchorPoint: "Anchor-10" 517.55 1230.28 basechar 0
AnchorPoint: "Anchor-7" 504.55 -243.88 basechar 0
LayerCount: 2
Fore
SplineSet
1485.63769531 563.802734375 m 0,0,1
 1485.63769531 678.22265625 1485.63769531 678.22265625 1448.49707031 760.262695312 c 128,-1,2
 1411.35546875 842.302734375 1411.35546875 842.302734375 1356.765625 842.302734375 c 128,-1,3
 1302.17578125 842.302734375 1302.17578125 842.302734375 1254.88085938 777.530273438 c 128,-1,4
 1207.5859375 712.756835938 1207.5859375 712.756835938 1207.5859375 635.262695312 c 0,5,6
 1207.5859375 550.778320312 1207.5859375 550.778320312 1267.50976562 523.09375 c 0,7,8
 1307.57714844 504.584960938 1307.57714844 504.584960938 1364.13085938 504.584960938 c 128,-1,9
 1420.68554688 504.584960938 1420.68554688 504.584960938 1484 515.545898438 c 1,10,11
 1485.63769531 540.283203125 1485.63769531 540.283203125 1485.63769531 563.802734375 c 0,0,1
1457.4296875 352.459960938 m 1,12,13
 1345 340 1345 340 1338.76074219 339.80859375 c 0,14,15
 1203 340 1203 340 1127.46777344 415.868164062 c 0,16,17
 1050 494 1050 494 1050.23925781 606.481445312 c 0,18,19
 1051 711 1051 711 1097.50976562 815.09375 c 0,20,21
 1191 1022 1191 1022 1364.47167969 1022.40429688 c 0,22,23
 1539 1022 1539 1022 1605.45019531 839.494140625 c 0,24,25
 1653 708 1653 708 1653.28808594 553.196289062 c 0,26,27
 1653 380 1653 380 1592.66992188 261.784179688 c 0,28,29
 1513 105 1513 105 1316.58007812 46.7060546875 c 0,30,31
 1157 -1 1157 -1 892.55859375 -1.3642578125 c 0,32,33
 586 -1 586 -1 437.865234375 39.419921875 c 0,34,35
 92 136 92 136 91.2744140625 507.1875 c 0,36,37
 91 603 91 603 130 709 c 1,38,-1
 292.912109375 676.955078125 l 1,39,40
 266 567 266 567 265.772460938 528.447265625 c 0,41,42
 266 267 266 267 527 203 c 0,43,44
 576 191 576 191 715.295898438 184.147460938 c 16,45,46
 855 177 855 177 901.383789062 177.295898438 c 0,47,48
 1111 177 1111 177 1275.66503906 225.647460938 c 0,49,50
 1440 274 1440 274 1457.4296875 352.459960938 c 1,12,13
EndSplineSet
Substitution2: "'init' Initial Forms in Arabic lookup 13 subtable" uni06A1.init
Substitution2: "'medi' Medial Forms in Arabic lookup 11 subtable" uni06A1.medi
Substitution2: "'fina' Terminal Forms in Arabic lookup 9 subtable" uni06A1.fina
EndChar

StartChar: uni06A9
Encoding: 1705 1705 91
Width: 1652
VWidth: 2186
GlyphClass: 2
Flags: W
AnchorPoint: "Anchor-10" 387 1207.34 basechar 0
AnchorPoint: "Anchor-7" 490 -250.68 basechar 0
LayerCount: 2
Fore
SplineSet
780 0 m 1,0,1
 559 3 559 3 425.352 41.4805 c 0,2,3
 89 138 89 138 89.1355932203 509.776788279 c 0,4,5
 89 605 89 605 125 709 c 1,6,-1
 282.912 676.955 l 1,7,8
 262 557 262 557 261.555083746 522.533808092 c 0,9,10
 258 268 258 268 525 203 c 0,11,12
 604 184 604 184 780 178.98046875 c 1,13,-1
 1052.78710938 179.00390625 l 2,14,15
 1343 179 1343 179 1318.40039062 337 c 0,16,17
 1291.68775917 510.022439069 1291.68775917 510.022439069 891.2578125 737.896484375 c 0,18,19
 812 783 812 783 812.088867188 901.008789062 c 0,20,21
 812.000362184 1005.57210162 812.000362184 1005.57210162 924.939453125 1060.45019531 c 2,22,-1
 1623.65039062 1399.95996094 l 1,23,-1
 1623.65039062 1223.28027344 l 1,24,-1
 968.771484375 908 l 1,25,26
 1272 688 1272 688 1334.80175781 619.276367188 c 0,27,28
 1466 476 1466 476 1476.40039062 345 c 0,29,30
 1485 228 1485 228 1423.40039062 131 c 0,31,32
 1340 0 1340 0 1094.10058594 0 c 2,33,-1
 780 0 l 1,0,1
EndSplineSet
Substitution2: "'init' Initial Forms in Arabic lookup 13 subtable" uniFB90
Substitution2: "'medi' Medial Forms in Arabic lookup 11 subtable" uniFB91
Substitution2: "'fina' Terminal Forms in Arabic lookup 9 subtable" uniFB8F
EndChar

StartChar: afii57514
Encoding: 1722 1722 93
Width: 1385
VWidth: 2186
GlyphClass: 2
Flags: W
AnchorPoint: "Anchor-10" 643.11 798 basechar 0
AnchorPoint: "Anchor-7" 665.58 -524.02 basechar 0
LayerCount: 2
Fore
SplineSet
1294 48 m 16,0,1
 1285 -437 1285 -437 718.100317782 -436.959577904 c 0,2,3
 91 -437 91 -437 91.1474609375 92.1943359375 c 0,4,5
 91 245 91 245 163.477539062 453.052734375 c 1,6,-1
 326.272460938 418.08203125 l 1,7,8
 261 230 261 230 261.216796875 85.91796875 c 0,9,10
 261 -269 261 -269 699.718140777 -268.56482815 c 0,11,12
 1144 -269 1144 -269 1144.06666667 74.6 c 0,13,14
 1144 242 1144 242 1081.5 481.912109375 c 1,15,-1
 1236.70019531 515.153320312 l 1,16,17
 1297.15086844 224.59677311 1297.15086844 224.59677311 1294 48 c 16,0,1
EndSplineSet
Substitution2: "'init' Initial Forms in Arabic lookup 13 subtable" uni06BA.init
Substitution2: "'medi' Medial Forms in Arabic lookup 11 subtable" uni06BA.medi
Substitution2: "'fina' Terminal Forms in Arabic lookup 9 subtable" uniFB9F
EndChar

StartChar: uni06F4
Encoding: 1780 1780 100
Width: 1177
VWidth: 2186
GlyphClass: 2
Flags: W
LayerCount: 2
Fore
SplineSet
390.591 1082.79 m 5,0,1
 439 1326 439 1326 642 1379 c 4,2,3
 723 1400 723 1400 812 1395.5 c 132,-1,4
 901 1391 901 1391 962.84 1367.47 c 5,5,-1
 962.84 1227.06 l 5,6,7
 875 1255 875 1255 773.620907537 1254.62965606 c 4,8,9
 656 1255 656 1255 589.595984174 1187.25764732 c 4,10,11
 482 1078 482 1078 549.067 968.815 c 4,12,13
 598 890 598 890 791.249 889.86 c 4,14,15
 846 890 846 890 1020.32 915.636 c 5,16,-1
 1022.58 769.774 l 5,17,18
 824 744 824 744 761.84 743.59 c 4,19,20
 591 744 591 744 452.58 836.254 c 5,21,22
 471 796 471 796 498.856492946 615.179251157 c 4,23,24
 523 457 523 457 526.712985892 77.6343286436 c 4,25,26
 527 44 527 44 526.4 8.5 c 5,27,-1
 359.672 8.5 l 5,28,29
 359 462 359 462 312.5 727.5 c 132,-1,30
 266 993 266 993 130 1320.65039062 c 5,31,-1
 291.455 1373.5 l 5,32,33
 357 1186 357 1186 390.591 1082.79 c 5,0,1
EndSplineSet
EndChar

StartChar: uni06F5
Encoding: 1781 1781 101
Width: 1177
VWidth: 2186
GlyphClass: 2
Flags: W
LayerCount: 2
Fore
SplineSet
655.009 312.555 m 2,0,1
 687.107 191 687.107 191 806.03 194.388 c 0,2,3
 1019.49 199.483 1019.49 199.483 923.336 474.313 c 0,4,5
 804.905 810.635 804.905 810.635 588.176 1079.9 c 1,6,7
 366.586 783.527 366.586 783.527 264.815 469.416 c 0,8,9
 239.372 390.888 239.372 390.888 239.327 335.012 c 0,10,11
 239.216 197.945 239.216 197.945 395.245 197.945 c 0,12,13
 496.877 197.945 496.877 197.945 537.245 312.934 c 2,14,-1
 538.419 316.278 l 1,15,-1
 654.026 316.278 l 1,16,-1
 655.009 312.555 l 2,0,1
367.371 8.3643 m 0,17,18
 89.6541 8.36403 89.6541 8.36403 75.007 283.734 c 0,19,20
 55.7766 645.273 55.7766 645.273 544.308 1278.5 c 0,21,22
 591.275 1339.38 591.275 1339.38 640.92 1278.5 c 0,23,24
 1139.76 666.794 1139.76 666.794 1101.98 287.506 c 0,25,26
 1074.8 13.6842 1074.8 13.6842 819.801 8.86533 c 0,27,28
 646.364 5.34656 646.364 5.34656 591.451 157.804 c 1,29,30
 537.529 8.36608 537.529 8.36608 367.371 8.3643 c 0,17,18
EndSplineSet
EndChar

StartChar: uni06F6
Encoding: 1782 1782 102
Width: 1177
VWidth: 2186
GlyphClass: 2
Flags: W
LayerCount: 2
Fore
SplineSet
239.351 8.5 m 1,0,1
 357.028574763 456.108689463 357.028574763 456.108689463 599.059 661.835 c 2,2,-1
 626.006 684.74 l 1,3,4
 356 707 356 707 327.58 989.53 c 0,5,6
 326 1005 326 1005 326.494796895 1020.19127452 c 0,7,8
 326 1166 326 1166 430.151398447 1276.02586728 c 0,9,10
 535 1387 535 1387 692.08 1387.27 c 0,11,12
 803 1387 803 1387 898.64 1355.8 c 1,13,-1
 898.64 1194.44 l 1,14,15
 797 1235 797 1235 708.44988092 1234.72843388 c 0,16,17
 619 1235 619 1235 556.834895264 1173.11921694 c 0,18,19
 494 1112 494 1112 494.18 1012.9075 c 0,20,21
 494 914 494 914 580 853.5 c 128,-1,22
 666 793 666 793 792 816 c 128,-1,23
 918 839 918 839 1018 876.970703125 c 1,24,-1
 1018 713 l 1,25,26
 736 619 736 619 604.762 439.74 c 0,27,28
 463 246 463 246 404.908 8.5 c 1,29,-1
 239.351 8.5 l 1,0,1
EndSplineSet
EndChar

StartChar: uniFB8F
Encoding: 64399 64399 117
Width: 1736
VWidth: 2186
GlyphClass: 2
Flags: W
AnchorPoint: "Anchor-10" 433 1179.5 basechar 0
AnchorPoint: "Anchor-7" 510 -205 basechar 0
LayerCount: 2
Fore
SplineSet
781.775390625 0.5 m 1,0,1
 559 3 559 3 425.352 41.4805 c 0,2,3
 89 138 89 138 89.1355932203 509.776788279 c 0,4,5
 89 605 89 605 125 709 c 1,6,-1
 282.912 676.955 l 1,7,8
 262 557 262 557 261.555083746 522.533808092 c 0,9,10
 258 268 258 268 525 203 c 0,11,12
 604 184 604 184 809.775390625 179.48046875 c 1,13,-1
 1082.5625 179.50390625 l 2,14,15
 1373.07425726 179.528866628 1373.07425726 179.528866628 1348.17578125 337.5 c 0,16,17
 1320 510 1320 510 921.033203125 738.396484375 c 0,18,19
 842 784 842 784 841.864257812 901.508789062 c 0,20,21
 842 1006 842 1006 954.71484375 1060.95019531 c 2,22,-1
 1653.42578125 1400.45996094 l 1,23,-1
 1653.42578125 1223.78027344 l 1,24,-1
 998.546875 908.5 l 1,25,26
 1302 688 1302 688 1364.57714844 619.776367188 c 0,27,28
 1471 504 1471 504 1522.17578125 340.5 c 0,29,30
 1572 180 1572 180 1709.92089844 179.879882812 c 2,31,-1
 1746.95117188 179.879882812 l 1,32,-1
 1746.95117188 1 l 1,33,-1
 1717.2109375 1 l 2,34,35
 1520 1 1520 1 1453.17578125 131.5 c 1,36,37
 1351 0 1351 0 1123.87597656 0.5 c 2,38,-1
 781.775390625 0.5 l 1,0,1
EndSplineSet
EndChar

StartChar: uniFB9F
Encoding: 64415 64415 125
Width: 1482
VWidth: 2186
GlyphClass: 2
Flags: W
AnchorPoint: "Anchor-10" 578.9 691 basechar 0
AnchorPoint: "Anchor-7" 544.88 -588.5 basechar 0
LayerCount: 2
Fore
SplineSet
1144.06666667 74.6 m 4,0,1
 1144.06666667 242.374992664 1144.06666667 242.374992664 1081.5 481.912109375 c 5,2,-1
 1236.70019531 515.153320312 l 5,3,4
 1270 330 1270 330 1281.51953125 296.478515625 c 4,5,6
 1321.86910088 179.379882812 1321.86910088 179.379882812 1471.28027344 179.379882812 c 2,7,-1
 1490.53027344 179.379882812 l 1,8,-1
 1490.53027344 0.5 l 1,9,-1
 1458.08886719 0.4970703125 l 2,10,11
 1364 0 1364 0 1294 48 c 5,12,13
 1272 -437 1272 -437 718.100317782 -436.959577904 c 4,14,15
 91 -437 91 -437 91.1474609375 92.1943359375 c 4,16,17
 91 245 91 245 163.477539062 453.052734375 c 5,18,-1
 326.272460938 418.08203125 l 5,19,20
 261 230 261 230 261.216796875 85.91796875 c 4,21,22
 261.000265819 -268.56482815 261.000265819 -268.56482815 699.718140777 -268.56482815 c 4,23,24
 1144.06666667 -268.56482815 1144.06666667 -268.56482815 1144.06666667 74.6 c 4,0,1
EndSplineSet
EndChar

StartChar: uniFBE8
Encoding: 64488 64488 128
Width: 606
VWidth: 2186
GlyphClass: 2
Flags: W
AnchorPoint: "Anchor-10" 311.93 1049.5 basechar 0
AnchorPoint: "Anchor-7" 286.93 -348.5 basechar 0
LayerCount: 2
Fore
SplineSet
63.0498046875 178.98046875 m 2,0,1
 262.984375 178.978515625 262.984375 178.978515625 312.928710938 246.071289062 c 128,-1,2
 363 313 363 313 362.857421875 418.920898438 c 0,3,4
 363 525 363 525 298 640 c 1,5,-1
 436 698.786132812 l 1,6,7
 515 595 515 595 514.889648438 392.362304688 c 0,8,9
 515 190 515 190 406.9453125 95.0517578125 c 128,-1,10
 299 0 299 0 54.900390625 0 c 2,11,-1
 -20.400390625 0 l 1,12,-1
 -20.400390625 178.98046875 l 1,13,-1
 63.0498046875 178.98046875 l 2,0,1
EndSplineSet
EndChar

StartChar: uniFBE9
Encoding: 64489 64489 129
Width: 657
VWidth: 2186
GlyphClass: 2
Flags: W
AnchorPoint: "Anchor-10" 281.93 969.5 basechar 0
AnchorPoint: "Anchor-7" 324.93 -115.5 basechar 0
LayerCount: 2
Fore
SplineSet
89.900390625 0 m 2,0,-1
 -20.400390625 0 l 1,1,-1
 -20.400390625 178.98046875 l 1,2,-1
 43.0498046875 178.98046875 l 2,3,4
 200 179 200 179 246.110351562 224.609375 c 0,5,6
 290.650470115 268.654355724 290.650470115 268.654355724 300.490234375 348.309570312 c 2,7,-1
 323.490234375 534.5 l 5,8,-1
 440.370117188 534.5 l 5,9,-1
 463.370117188 348.309570312 l 2,10,11
 474 259 474 259 524.40625 219.073242188 c 0,12,13
 576.025146217 178.98046875 576.025146217 178.98046875 653.810546875 178.98046875 c 2,14,-1
 677.66015625 178.98046875 l 1,15,-1
 677.66015625 0 l 1,16,-1
 642.959960938 0 l 2,17,18
 479 0 479 0 380.806640625 106.870117188 c 1,19,20
 285 0 285 0 89.900390625 0 c 2,0,-1
EndSplineSet
EndChar

StartChar: uniFE73
Encoding: 65139 65139 137
Width: 573
VWidth: 2186
GlyphClass: 2
Flags: W
AnchorPoint: "Anchor-10" 210.79 1279.5 basechar 0
AnchorPoint: "Anchor-7" 210.79 -111.5 basechar 0
LayerCount: 2
Fore
SplineSet
296.23 350.74 m 2,0,1
 296.23 286.506 296.23 286.506 352.468 230.268 c 0,2,3
 403.354 179.38 403.354 179.38 514.67 179.38 c 2,4,-1
 581.92 179.38 l 1,5,-1
 581.92 8.5 l 1,6,-1
 455.82 8.5 l 2,7,8
 309.266 8.5 309.266 8.5 214.633 103.133 c 0,9,10
 125.35 192.415 125.35 192.415 125.35 337.9 c 2,11,-1
 125.35 370.91 l 1,12,-1
 296.23 370.91 l 1,13,-1
 296.23 350.74 l 2,0,1
EndSplineSet
EndChar

StartChar: uniFE8E
Encoding: 65166 65166 163
Width: 518
VWidth: 2186
GlyphClass: 2
Flags: W
AnchorPoint: "Anchor-10" 219.95 1525 basechar 0
AnchorPoint: "Anchor-7" 237.95 -239.5 basechar 0
LayerCount: 2
Fore
SplineSet
140.509765625 408.940429688 m 2,0,-1
 140.509765625 1400.03027344 l 1,1,-1
 307.389648438 1400.03027344 l 1,2,-1
 307.389648438 421.780273438 l 2,3,4
 307 326 307 326 335.794921875 274.396484375 c 0,5,6
 387.010483606 178.98046875 387.010483606 178.98046875 510.830078125 178.98046875 c 6,7,-1
 530.080078125 178.98046875 l 5,8,-1
 530.080078125 0 l 5,9,-1
 505.98046875 0 l 6,10,11
 296 0 296 0 196 166 c 0,12,13
 141.099334518 259.886373716 141.099334518 259.886373716 140.509765625 408.940429688 c 2,0,-1
EndSplineSet
EndChar

StartChar: uniFEA2
Encoding: 65186 65186 183
Width: 1221
VWidth: 2186
GlyphClass: 2
Flags: W
AnchorPoint: "Anchor-10" 622.329 997.3 basechar 0
AnchorPoint: "Anchor-7" 436.84 -658.64 basechar 0
LayerCount: 2
Fore
SplineSet
730 581 m 5,0,1
 659 614 659 614 598 660 c 4,2,3
 513 724 513 724 456.829101562 724.801757812 c 4,4,5
 335 727 335 727 214.758789062 566.512695312 c 5,6,-1
 91.8291015625 654.801757812 l 5,7,8
 175 757 175 757 197.84765625 779.9921875 c 4,9,10
 304 885 304 885 444.829101562 884.801757812 c 4,11,12
 551 885 551 885 641 812 c 4,13,14
 881 618 881 618 1110 630.786132812 c 5,15,-1
 1103.12011719 494.655273438 l 5,16,17
 1065 503 1065 503 1016 500 c 4,18,19
 986 498 986 498 977 496 c 5,20,21
 969.009586948 179.379882812 969.009586948 179.379882812 1207.12988281 179.379882812 c 2,22,-1
 1232.94042969 179.379882812 l 1,23,-1
 1232.94042969 0.5 l 1,24,-1
 1216.50976562 0.5 l 1,25,26
 835 0 835 0 838 474 c 5,27,28
 544 432 544 432 385 279 c 4,29,30
 253 153 253 153 253.009765625 -0.10546875 c 4,31,32
 253 -170 253 -170 368.5 -260 c 132,-1,33
 484 -350 484 -350 703.299804688 -350.165039062 c 4,34,35
 920 -350 920 -350 1029.59960938 -310.3828125 c 5,36,-1
 1072 -458 l 5,37,38
 952 -510 952 -510 680.299804688 -507.69140625 c 4,39,40
 394 -505 394 -505 243.5 -370.5 c 132,-1,41
 93 -236 93 -236 95 -2 c 4,42,43
 97 230 97 230 303 402 c 4,44,45
 487 555 487 555 730 581 c 5,0,1
EndSplineSet
EndChar

StartChar: uniFEA3
Encoding: 65187 65187 184
Width: 1251
VWidth: 2186
GlyphClass: 2
Flags: W
AnchorPoint: "Anchor-10" 410 1101.73 basechar 0
AnchorPoint: "Anchor-7" 530 -246.5 basechar 0
LayerCount: 2
Fore
SplineSet
1148 292 m 1,0,1
 1041 302 1041 302 903.5 222 c 128,-1,2
 766 142 766 142 627 86 c 0,3,4
 414 0 414 0 38.2548828125 0 c 2,5,-1
 -10.400390625 0 l 1,6,-1
 -10.400390625 178.98046875 l 1,7,-1
 4.599609375 178.98046875 l 2,8,9
 250 179 250 179 417 204 c 0,10,11
 607 232 607 232 826 356 c 5,12,13
 791 358 791 358 644 456 c 4,14,15
 478 567 478 567 413 567 c 4,16,17
 290 567 290 567 170.9296875 408.7109375 c 5,18,-1
 48 497 l 5,19,20
 131 599 131 599 154.018554688 622.190429688 c 4,21,22
 260 727 260 727 401 727 c 4,23,24
 548 727 548 727 677 625 c 4,25,26
 936 419 936 419 1162.58984375 412.515625 c 5,27,-1
 1148 292 l 1,0,1
EndSplineSet
EndChar

StartChar: uniFEA4
Encoding: 65188 65188 185
Width: 1314
VWidth: 2186
GlyphClass: 2
Flags: W
AnchorPoint: "Anchor-10" 455 1077.69 basechar 0
AnchorPoint: "Anchor-7" 615 -223.5 basechar 0
LayerCount: 2
Fore
SplineSet
864 199.530273438 m 1,0,1
 746 134 746 134 627 86 c 0,2,3
 414 0 414 0 38.2548828125 0 c 2,4,-1
 -10.400390625 0 l 1,5,-1
 -10.400390625 178.98046875 l 1,6,-1
 4.599609375 178.98046875 l 2,7,8
 250 179 250 179 417 204 c 0,9,10
 607 232 607 232 826 356 c 1,11,12
 791 358 791 358 644 456 c 0,13,14
 478 567 478 567 413 567 c 0,15,16
 290 567 290 567 170.9296875 408.7109375 c 1,17,-1
 48 497 l 1,18,19
 131 599 131 599 154.018554688 622.190429688 c 0,20,21
 260 727 260 727 401 727 c 0,22,23
 548 727 548 727 677 625 c 0,24,25
 936 419 936 419 1162.58984375 412.515625 c 1,26,-1
 1148 292 l 1,27,28
 1079 298 1079 298 997 267.350585938 c 1,29,30
 1009.01650139 179.879882812 1009.01650139 179.879882812 1273.3203125 179.879882812 c 6,31,-1
 1330.94042969 179.879882812 l 5,32,-1
 1330.94042969 0 l 5,33,-1
 1251.91992188 0 l 6,34,35
 926 0 926 0 864 199.530273438 c 1,0,1
EndSplineSet
EndChar

StartChar: uniFEAA
Encoding: 65194 65194 191
Width: 1037
VWidth: 2186
GlyphClass: 2
Flags: W
AnchorPoint: "Anchor-10" 394.99 1195.65 basechar 0
AnchorPoint: "Anchor-7" 358.5 -234 basechar 0
LayerCount: 2
Fore
SplineSet
609 456.677734375 m 2,0,-1
 459.958984375 800.40625 l 1,1,-1
 619 868 l 1,2,3
 825.951171875 393.46484375 l 0,4,5
 917.790039062 177.494140625 917.790039062 177.494140625 1025.48046875 179 c 2,6,-1
 1052.65039062 179.379882812 l 1,7,-1
 1052.65039062 0.5 l 1,8,-1
 1016.43945312 0.5 l 2,9,10
 886.249023438 0.0009765625 886.249023438 0.0009765625 807.62890625 105.374023438 c 2,11,-1
 797.690429688 118.694335938 l 1,12,-1
 787.155273438 105.83984375 l 2,13,14
 691 -11 691 -11 339 0 c 0,15,16
 163 6 163 6 91.75 24.9150390625 c 1,17,-1
 91.75 206.84375 l 1,18,19
 242 173 242 173 376 177 c 0,20,21
 582 182 582 182 635.549804688 204.981445312 c 0,22,23
 694 230 694 230 666.700195312 315.677734375 c 0,24,25
 657 346 657 346 609 456.677734375 c 2,0,-1
EndSplineSet
EndChar

StartChar: uniFEAE
Encoding: 65198 65198 195
Width: 805
VWidth: 2186
GlyphClass: 2
Flags: W
AnchorPoint: "Anchor-10" 443 818 basechar 0
AnchorPoint: "Anchor-7" 289.925 -649.55 basechar 0
LayerCount: 2
Fore
SplineSet
635.586914062 60 m 1,0,1
 581 -401 581 -401 30 -456 c 1,2,-1
 0.603515625 -292.8828125 l 1,3,4
 475 -254 475 -254 476.474609375 156.931640625 c 0,5,6
 477 353 477 353 420 472 c 1,7,-1
 572 534 l 1,8,9
 608 410 608 410 632.448242188 310 c 24,10,11
 664.004704162 178.98046875 664.004704162 178.98046875 797.83984375 178.98046875 c 2,12,-1
 815.599609375 178.98046875 l 1,13,-1
 815.599609375 0 l 1,14,-1
 778.990234375 0 l 2,15,16
 684 0 684 0 635.586914062 60 c 1,0,1
EndSplineSet
PairPos2: "'kern' Horizontal Kerning lookup 15-1" uniFEEB dx=-110 dy=0 dh=-110 dv=0 dx=0 dy=0 dh=0 dv=0
PairPos2: "'kern' Horizontal Kerning lookup 15-1" uni0644 dx=-70 dy=0 dh=-70 dv=0 dx=0 dy=0 dh=0 dv=0
PairPos2: "'kern' Horizontal Kerning lookup 15-1" uni0642 dx=-70 dy=0 dh=-70 dv=0 dx=0 dy=0 dh=0 dv=0
PairPos2: "'kern' Horizontal Kerning lookup 15-1" uniFEDF dx=-110 dy=0 dh=-110 dv=0 dx=0 dy=0 dh=0 dv=0
PairPos2: "'kern' Horizontal Kerning lookup 15-1" uniFB90 dx=-140 dy=0 dh=-140 dv=0 dx=0 dy=0 dh=0 dv=0
PairPos2: "'kern' Horizontal Kerning lookup 15-1" uni06A9 dx=-140 dy=0 dh=-140 dv=0 dx=0 dy=0 dh=0 dv=0
PairPos2: "'kern' Horizontal Kerning lookup 15-1" uni0649 dx=-70 dy=0 dh=-70 dv=0 dx=0 dy=0 dh=0 dv=0
PairPos2: "'kern' Horizontal Kerning lookup 15-1" uni0647 dx=-110 dy=0 dh=-110 dv=0 dx=0 dy=0 dh=0 dv=0
PairPos2: "'kern' Horizontal Kerning lookup 15-1" uniFEE7 dx=-110 dy=0 dh=-110 dv=0 dx=0 dy=0 dh=0 dv=0
PairPos2: "'kern' Horizontal Kerning lookup 15-1" uniFEE3 dx=-110 dy=0 dh=-110 dv=0 dx=0 dy=0 dh=0 dv=0
PairPos2: "'kern' Horizontal Kerning lookup 15-1" uni0645 dx=-110 dy=0 dh=-110 dv=0 dx=0 dy=0 dh=0 dv=0
PairPos2: "'kern' Horizontal Kerning lookup 15-1" uniFEDB dx=-140 dy=0 dh=-140 dv=0 dx=0 dy=0 dh=0 dv=0
PairPos2: "'kern' Horizontal Kerning lookup 15-1" uniFED7 dx=-110 dy=0 dh=-110 dv=0 dx=0 dy=0 dh=0 dv=0
PairPos2: "'kern' Horizontal Kerning lookup 15-1" uniFED3 dx=-110 dy=0 dh=-110 dv=0 dx=0 dy=0 dh=0 dv=0
PairPos2: "'kern' Horizontal Kerning lookup 15-1" uni0641 dx=-110 dy=0 dh=-110 dv=0 dx=0 dy=0 dh=0 dv=0
PairPos2: "'kern' Horizontal Kerning lookup 15-1" uniFECF dx=-110 dy=0 dh=-110 dv=0 dx=0 dy=0 dh=0 dv=0
PairPos2: "'kern' Horizontal Kerning lookup 15-1" uniFECB dx=-110 dy=0 dh=-110 dv=0 dx=0 dy=0 dh=0 dv=0
PairPos2: "'kern' Horizontal Kerning lookup 15-1" uniFEC7 dx=-110 dy=0 dh=-110 dv=0 dx=0 dy=0 dh=0 dv=0
PairPos2: "'kern' Horizontal Kerning lookup 15-1" uni0638 dx=-110 dy=0 dh=-110 dv=0 dx=0 dy=0 dh=0 dv=0
PairPos2: "'kern' Horizontal Kerning lookup 15-1" uniFEC3 dx=-110 dy=0 dh=-110 dv=0 dx=0 dy=0 dh=0 dv=0
PairPos2: "'kern' Horizontal Kerning lookup 15-1" uni0637 dx=-110 dy=0 dh=-110 dv=0 dx=0 dy=0 dh=0 dv=0
PairPos2: "'kern' Horizontal Kerning lookup 15-1" uniFEBF dx=-110 dy=0 dh=-110 dv=0 dx=0 dy=0 dh=0 dv=0
PairPos2: "'kern' Horizontal Kerning lookup 15-1" uni0636 dx=-110 dy=0 dh=-110 dv=0 dx=0 dy=0 dh=0 dv=0
PairPos2: "'kern' Horizontal Kerning lookup 15-1" uniFEBB dx=-110 dy=0 dh=-110 dv=0 dx=0 dy=0 dh=0 dv=0
PairPos2: "'kern' Horizontal Kerning lookup 15-1" uni0635 dx=-110 dy=0 dh=-110 dv=0 dx=0 dy=0 dh=0 dv=0
PairPos2: "'kern' Horizontal Kerning lookup 15-1" uniFEB7 dx=-110 dy=0 dh=-110 dv=0 dx=0 dy=0 dh=0 dv=0
PairPos2: "'kern' Horizontal Kerning lookup 15-1" uni0634 dx=-110 dy=0 dh=-110 dv=0 dx=0 dy=0 dh=0 dv=0
PairPos2: "'kern' Horizontal Kerning lookup 15-1" uniFEB3 dx=-110 dy=0 dh=-110 dv=0 dx=0 dy=0 dh=0 dv=0
PairPos2: "'kern' Horizontal Kerning lookup 15-1" uni0633 dx=-110 dy=0 dh=-110 dv=0 dx=0 dy=0 dh=0 dv=0
PairPos2: "'kern' Horizontal Kerning lookup 15-1" uni0630 dx=-110 dy=0 dh=-110 dv=0 dx=0 dy=0 dh=0 dv=0
PairPos2: "'kern' Horizontal Kerning lookup 15-1" uni062F dx=-110 dy=0 dh=-110 dv=0 dx=0 dy=0 dh=0 dv=0
PairPos2: "'kern' Horizontal Kerning lookup 15-1" uniFEA7 dx=-70 dy=0 dh=-70 dv=0 dx=0 dy=0 dh=0 dv=0
PairPos2: "'kern' Horizontal Kerning lookup 15-1" uniFEA3 dx=-70 dy=0 dh=-70 dv=0 dx=0 dy=0 dh=0 dv=0
PairPos2: "'kern' Horizontal Kerning lookup 15-1" uniFE9F dx=-70 dy=0 dh=-70 dv=0 dx=0 dy=0 dh=0 dv=0
PairPos2: "'kern' Horizontal Kerning lookup 15-1" uniFE9B dx=-110 dy=0 dh=-110 dv=0 dx=0 dy=0 dh=0 dv=0
PairPos2: "'kern' Horizontal Kerning lookup 15-1" uni062B dx=-110 dy=0 dh=-110 dv=0 dx=0 dy=0 dh=0 dv=0
PairPos2: "'kern' Horizontal Kerning lookup 15-1" uniFE97 dx=-110 dy=0 dh=-110 dv=0 dx=0 dy=0 dh=0 dv=0
PairPos2: "'kern' Horizontal Kerning lookup 15-1" uni062A dx=-110 dy=0 dh=-110 dv=0 dx=0 dy=0 dh=0 dv=0
PairPos2: "'kern' Horizontal Kerning lookup 15-1" uni0629 dx=-110 dy=0 dh=-110 dv=0 dx=0 dy=0 dh=0 dv=0
PairPos2: "'kern' Horizontal Kerning lookup 15-1" uni0628 dx=-110 dy=0 dh=-110 dv=0 dx=0 dy=0 dh=0 dv=0
PairPos2: "'kern' Horizontal Kerning lookup 15-1" uni0627 dx=-110 dy=0 dh=-110 dv=0 dx=0 dy=0 dh=0 dv=0
PairPos2: "'kern' Horizontal Kerning lookup 15-1" uni0622 dx=-110 dy=0 dh=-110 dv=0 dx=0 dy=0 dh=0 dv=0
PairPos2: "'kern' Horizontal Kerning lookup 15-1" uniFB94 dx=-140 dy=0 dh=-140 dv=0 dx=0 dy=0 dh=0 dv=0
PairPos2: "'kern' Horizontal Kerning lookup 15-1" afii57509 dx=-140 dy=0 dh=-140 dv=0 dx=0 dy=0 dh=0 dv=0
PairPos2: "'kern' Horizontal Kerning lookup 15-1" uniFB56 dx=-110 dy=0 dh=-110 dv=0 dx=0 dy=0 dh=0 dv=0
PairPos2: "'kern' Horizontal Kerning lookup 15-1" afii57506 dx=-110 dy=0 dh=-110 dv=0 dx=0 dy=0 dh=0 dv=0
EndChar

StartChar: uniFEB2
Encoding: 65202 65202 199
Width: 2433
VWidth: 2186
GlyphClass: 2
Flags: W
AnchorPoint: "Anchor-10" 643 886.5 basechar 0
AnchorPoint: "Anchor-7" 431 -639.5 basechar 0
LayerCount: 2
Fore
SplineSet
1281.51953125 296.478515625 m 16,0,1
 1318 181 1318 181 1455.29003906 180.504882812 c 0,2,3
 1614.65128636 180.00110237 1614.65128636 180.00110237 1625 347 c 2,4,5
 1636.69042969 535.650390625 l 1,6,-1
 1758.99023438 535.650390625 l 1,7,8
 1773 361 1773 361 1781.38964844 319.504882812 c 0,9,10
 1811 166 1811 166 1939.79003906 170.504882812 c 0,11,12
 2047.04260591 174.001388981 2047.04260591 174.001388981 2062.41992188 350.419921875 c 2,13,-1
 2078.54003906 535.360351562 l 1,14,-1
 2197.11035156 535.360351562 l 1,15,-1
 2225.87011719 353.059570312 l 2,16,17
 2243.36431303 242.168347836 2243.36431303 242.168347836 2294 206 c 4,18,19
 2331 179 2331 179 2432.45996094 179.379882812 c 2,20,-1
 2453.33007812 179.379882812 l 1,21,-1
 2453.33007812 0.5 l 1,22,-1
 2403.91992188 0.5 l 2,23,24
 2216 0 2216 0 2149.20996094 118.918945312 c 1,25,26
 2076 -1 2076 -1 1938.66015625 0 c 0,27,28
 1754 1 1754 1 1693.3203125 129.890625 c 1,29,30
 1635 -1 1635 -1 1476.5 -1 c 128,-1,31
 1318 -1 1318 -1 1294 48 c 1,32,33
 1272 -437 1272 -437 718.100317782 -436.959577904 c 0,34,35
 91 -437 91 -437 91.1474609375 92.1943359375 c 0,36,37
 91 245 91 245 163.477539062 453.052734375 c 1,38,-1
 326.272460938 418.08203125 l 1,39,40
 261 230 261 230 261.216796875 85.91796875 c 0,41,42
 261 -269 261 -269 699.718140777 -268.56482815 c 0,43,44
 1144 -269 1144 -269 1144.06666667 74.6 c 0,45,46
 1144 242 1144 242 1081.5 481.912109375 c 1,47,-1
 1236.70019531 515.153320312 l 1,48,49
 1271 330 1271 330 1281.51953125 296.478515625 c 16,0,1
EndSplineSet
EndChar

StartChar: uniFEB3
Encoding: 65203 65203 200
Width: 1480
VWidth: 2186
GlyphClass: 2
Flags: W
AnchorPoint: "Anchor-10" 695.5 958.5 basechar 0
AnchorPoint: "Anchor-7" 707.5 -261 basechar 0
LayerCount: 2
Fore
SplineSet
1056 172 m 28,0,1
 1236 172 1236 172 1236.15136719 417.418945312 c 4,2,3
 1236 523 1236 523 1171.29394531 638.498046875 c 5,4,-1
 1309.29394531 697.284179688 l 5,5,6
 1388 593 1388 593 1388.18359375 390.860351562 c 4,7,8
 1388 183 1388 183 1265 73 c 4,9,10
 1180 -2 1180 -2 1059.19433594 -1.501953125 c 5,11,12
 873 -2 873 -2 830.309570312 131.49609375 c 5,13,14
 788 -2 788 -2 588 -1 c 128,-1,15
 388 0 388 0 326.737304688 120.1796875 c 1,16,17
 269 0 269 0 39.7001953125 0 c 2,18,-1
 -8.40039 0 l 1,19,-1
 -8.40039 178.98 l 1,20,-1
 13.849609375 178.98046875 l 2,21,22
 216.451814179 179.000043653 216.451814179 179.000043653 248.623046875 374.059570312 c 2,23,-1
 275.013671875 534.0703125 l 1,24,-1
 378.64453125 534.0703125 l 1,25,-1
 395.168945312 373.845703125 l 2,26,27
 416 173 416 173 600.478515625 172.469726562 c 0,28,29
 738.985038524 172.000050734 738.985038524 172.000050734 753.311523438 298.6953125 c 6,30,-1
 779.701171875 532.0703125 l 5,31,-1
 895.598632812 532.0703125 l 5,32,-1
 919.16796875 320.75 l 6,33,34
 936 172 936 172 1056 172 c 28,0,1
EndSplineSet
EndChar

StartChar: uniFEB4
Encoding: 65204 65204 201
Width: 1537
VWidth: 2181
GlyphClass: 2
Flags: W
AnchorPoint: "Anchor-10" 635.5 953.5 basechar 0
AnchorPoint: "Anchor-7" 690.5 -235 basechar 0
LayerCount: 2
Fore
SplineSet
823.333984375 134.548828125 m 1,0,1
 781 1 781 1 587 1 c 128,-1,2
 393 1 393 1 329.052734375 124.6796875 c 1,3,4
 248 0 248 0 72.207 0 c 2,5,-1
 -20.2744140625 0 l 1,6,-1
 -20.2744140625 178.978515625 l 1,7,-1
 36.6533 178.979 l 1,8,9
 223.598985721 180.995674064 223.598985721 180.995674064 246.463867188 341 c 2,10,-1
 274.23828125 535.360351562 l 1,11,-1
 377.319335938 535.360351562 l 1,12,-1
 400.978515625 367.080078125 l 2,13,14
 428 175 428 175 587.369140625 175 c 0,15,16
 722.73830491 175 722.73830491 175 741.883789062 322.095703125 c 2,17,-1
 769.641601562 535.360351562 l 1,18,-1
 881.501953125 535.360351562 l 1,19,-1
 906.702148438 324.418945312 l 2,20,21
 924 176 924 176 1052.19433594 175.60546875 c 0,22,23
 1172.34619465 176.001140051 1172.34619465 176.001140051 1189.98046875 333.709960938 c 2,24,-1
 1212.59960938 536 l 1,25,-1
 1327.30957031 536 l 1,26,-1
 1350.24023438 330.559570312 l 2,27,28
 1367.01337103 179.879882812 1367.01337103 179.879882812 1536.45019531 179.879882812 c 2,29,-1
 1548.63964844 179.879882812 l 1,30,-1
 1548.63964844 0 l 1,31,-1
 1491.66015625 0 l 2,32,33
 1333 0 1333 0 1274.00976562 125.006835938 c 1,34,35
 1239 1 1239 1 1059.5 1 c 128,-1,36
 880 1 880 1 823.333984375 134.548828125 c 1,0,1
EndSplineSet
EndChar

StartChar: uniFEBA
Encoding: 65210 65210 207
Width: 2399
VWidth: 2186
GlyphClass: 2
Flags: W
AnchorPoint: "Anchor-10" 481.84 851.5 basechar 0
AnchorPoint: "Anchor-7" 384 -698.5 basechar 0
LayerCount: 2
Fore
SplineSet
1458.35644531 189.337890625 m 1,0,-1
 1637.32519531 189.337890625 l 1,1,2
 1637.82910156 189.337890625 l 2,3,4
 1867.06152344 189.329101562 1867.06152344 189.329101562 1924.56054688 196.328125 c 0,5,6
 2058.06152344 213.329101562 2058.06152344 213.329101562 2069.06152344 338.329101562 c 0,7,8
 2072.06152344 373.329101562 2072.06152344 373.329101562 2072.48046875 402.408203125 c 0,9,10
 2072.06152344 567.329101562 2072.06152344 567.329101562 1966.06152344 567.329101562 c 0,11,12
 1744.06152344 567.329101562 1744.06152344 567.329101562 1458.35644531 189.337890625 c 1,0,-1
2212.82617188 218 m 1,13,14
 2237.07445365 178.879882812 2237.07445365 178.879882812 2389.39941406 178.879882812 c 2,15,-1
 2410.68945312 178.879882812 l 1,16,-1
 2410.68945312 0 l 1,17,-1
 2368 0 l 2,18,19
 2175 0 2175 0 2111.24023438 89 c 1,20,21
 2102 83 2102 83 2092.25390625 77.787109375 c 0,22,23
 1939.44558854 -3.29417504041 1939.44558854 -3.29417504041 1587.109375 -0.6708984375 c 2,24,-1
 1497 0 l 2,25,26
 1355 1 1355 1 1312.70996094 70.5400390625 c 1,27,-1
 1288.95019531 70.59765625 l 1,28,29
 1287 -437 1287 -437 718.100317782 -436.959577904 c 0,30,31
 91 -437 91 -437 91.1474609375 92.1943359375 c 0,32,33
 91 245 91 245 163.477539062 453.052734375 c 1,34,-1
 326.272460938 418.08203125 l 1,35,36
 261 230 261 230 261.216796875 85.91796875 c 0,37,38
 261 -269 261 -269 699.718140777 -268.56482815 c 0,39,40
 1144 -269 1144 -269 1144.06666667 74.6 c 0,41,42
 1144 242 1144 242 1081.5 481.912109375 c 1,43,-1
 1236.70019531 515.153320312 l 1,44,45
 1267 288 1267 288 1346.06152344 286.662109375 c 1,46,47
 1661 749 1661 749 1986.06152344 749.329101562 c 0,48,49
 2247 749 2247 749 2238.06152344 365.329101562 c 0,50,51
 2236 281 2236 281 2212.82617188 218 c 1,13,14
EndSplineSet
EndChar

StartChar: uniFEBB
Encoding: 65211 65211 208
Width: 1439
VWidth: 2186
GlyphClass: 2
Flags: W
AnchorPoint: "Anchor-10" 526.3 1074.8 basechar 0
AnchorPoint: "Anchor-7" 526.3 -217 basechar 0
LayerCount: 2
Fore
SplineSet
568.294921875 190.008789062 m 5,0,-1
 747.263671875 190.008789062 l 5,1,2
 747.76784662 190.008780626 l 6,3,4
 977 190 977 190 1034.49902344 196.999023438 c 4,5,6
 1168 214 1168 214 1179 339 c 4,7,8
 1182 374 1182 374 1182.41894531 403.079101562 c 4,9,10
 1182 568 1182 568 1076 568 c 4,11,12
 854 568 854 568 568.294921875 190.008789062 c 5,0,-1
456 287.333007812 m 5,13,14
 771 750 771 750 1096 750 c 4,15,16
 1357 750 1357 750 1348 366 c 4,17,18
 1343.64910324 154.65631918 1343.64910324 154.65631918 1202.19235965 78.4583592907 c 4,19,20
 1056.3847193 -0.0832814185904 1056.3847193 -0.0832814185904 719.215228018 -0.0832814185904 c 4,21,22
 708.233503754 -0.0832814185904 708.233503754 -0.0832814185904 697.047851562 0 c 6,23,-1
 606.938476562 0.6708984375 l 6,24,25
 416 2 416 2 325.455078125 152.081054688 c 1,26,27
 217 0 217 0 38.990234375 0 c 2,28,-1
 -10.400390625 0 l 1,29,-1
 -10.400390625 178.98046875 l 1,30,-1
 4.1396484375 178.98046875 l 2,31,32
 195.330221461 179.000033792 195.330221461 179.000033792 226.259765625 391.059570312 c 2,33,-1
 247.259765625 535.040039062 l 1,34,-1
 370.139648438 535.040039062 l 1,35,-1
 391.139648438 431.580078125 l 2,36,37
 414 317 414 317 456 287.333007812 c 5,13,14
EndSplineSet
EndChar

StartChar: uniFEBC
Encoding: 65212 65212 209
Width: 1549
VWidth: 2186
GlyphClass: 2
Flags: W
AnchorPoint: "Anchor-10" 580.5 1139.5 basechar 0
AnchorPoint: "Anchor-7" 608.5 -249 basechar 0
LayerCount: 2
Fore
SplineSet
568.294921875 190.008789062 m 1,0,-1
 747.263671875 190.008789062 l 1,1,2
 747.76784662 190.008780626 l 2,3,4
 977 190 977 190 1034.49902344 196.999023438 c 0,5,6
 1168 214 1168 214 1179 339 c 4,7,8
 1182 374 1182 374 1182.41894531 403.079101562 c 4,9,10
 1182 568 1182 568 1076 568 c 0,11,12
 854 568 854 568 568.294921875 190.008789062 c 1,0,-1
1332.68554688 250 m 1,13,14
 1373.77894858 179.379882812 1373.77894858 179.379882812 1538.50976562 179.379882812 c 2,15,-1
 1559.79980469 179.379882812 l 1,16,-1
 1559.79980469 0.5 l 1,17,-1
 1517.11035156 0.5 l 2,18,19
 1321 0 1321 0 1246.00097656 108 c 1,20,21
 1226 91 1226 91 1202.19235965 78.4583592907 c 0,22,23
 1051 -3 1051 -3 719.215228018 -0.0832814185904 c 0,24,25
 708 -0 708 -0 697.047851562 0 c 2,26,-1
 606.938476562 0.6708984375 l 2,27,28
 416 2 416 2 325.455078125 152.081054688 c 1,29,30
 217 0 217 0 38.990234375 0 c 2,31,-1
 -10.400390625 0 l 1,32,-1
 -10.400390625 178.98046875 l 1,33,-1
 4.1396484375 178.98046875 l 2,34,35
 195.330221461 179.000033792 195.330221461 179.000033792 226.259765625 391.059570312 c 2,36,-1
 247.259765625 535.040039062 l 1,37,-1
 370.139648438 535.040039062 l 1,38,-1
 391.139648438 431.580078125 l 2,39,40
 414 317 414 317 456 287.333007812 c 1,41,42
 771 750 771 750 1096 750 c 0,43,44
 1354 750 1354 750 1348 366 c 0,45,46
 1347 302 1347 302 1332.68554688 250 c 1,13,14
EndSplineSet
EndChar

StartChar: uniFEC2
Encoding: 65218 65218 215
Width: 1399
VWidth: 2186
GlyphClass: 2
Flags: W
AnchorPoint: "Anchor-7" 546.13 -265 basechar 0
AnchorPoint: "Anchor-10" 341.67 1515.79 basechar 0
LayerCount: 2
Fore
SplineSet
428.294921875 190.008789062 m 5,0,-1
 607.263671875 190.008789062 l 5,1,2
 607.767578125 190.008789062 l 6,3,4
 837 190 837 190 894.499023438 196.999023438 c 4,5,6
 1028 214 1028 214 1039 339 c 4,7,8
 1042 374 1042 374 1042.41894531 403.079101562 c 4,9,10
 1042 568 1042 568 936 568 c 4,11,12
 714 568 714 568 428.294921875 190.008789062 c 5,0,-1
1190.23925781 241 m 5,13,14
 1224.78701599 179.379882812 1224.78701599 179.379882812 1381.09960938 179.379882812 c 6,15,-1
 1410.90039062 179.379882812 l 5,16,-1
 1410.90039062 0.5 l 5,17,-1
 1322.25 0.5 l 6,18,19
 1180 0 1180 0 1094.55957031 99 c 5,20,21
 1079 88 1079 88 1062.19238281 78.4580078125 c 4,22,23
 910 -3 910 -3 579.21484375 -0.0830078125 c 4,24,25
 571 0 571 0 563 0 c 6,26,-1
 91 0 l 5,27,-1
 91 178.879882812 l 5,28,-1
 236 179 l 5,29,30
 262 223 262 223 292.16015625 265.192382812 c 5,31,-1
 292.16015625 1404.33398438 l 5,32,-1
 459.040039062 1404.33398438 l 5,33,-1
 459.040039062 474.366210938 l 5,34,35
 702 750 702 750 956 750 c 4,36,37
 1213 750 1213 750 1208 366 c 4,38,39
 1207 296 1207 296 1190.23925781 241 c 5,13,14
EndSplineSet
EndChar

StartChar: uniFEC3
Encoding: 65219 65219 216
Width: 1142
VWidth: 2186
GlyphClass: 2
Flags: W
AnchorPoint: "Anchor-10" 171.57 1518.47 basechar 0
AnchorPoint: "Anchor-7" 382.57 -249 basechar 0
LayerCount: 2
Fore
SplineSet
271.294921875 190.008789062 m 1,0,-1
 450.263671875 190.008789062 l 1,1,2
 450.767578125 190.008789062 l 2,3,4
 680 190 680 190 737.499023438 196.999023438 c 0,5,6
 871 214 871 214 882 339 c 0,7,8
 885 374 885 374 885.418945312 403.079101562 c 0,9,10
 885 568 885 568 779 568 c 0,11,12
 557 568 557 568 271.294921875 190.008789062 c 1,0,-1
302.040039062 474.366210938 m 1,13,14
 545 750 545 750 799 750 c 0,15,16
 1059 750 1059 750 1051 366 c 0,17,18
 1047 155 1047 155 905.192382812 78.4580078125 c 0,19,20
 753 -3 753 -3 422.21484375 -0.0830078125 c 0,21,22
 414 0 414 0 406 -0 c 2,23,24
 -20 0 l 1,25,-1
 -20 178.879882812 l 1,26,-1
 79 179 l 1,27,28
 105 223 105 223 135.16015625 265.192382812 c 1,29,-1
 135.16015625 1404.33398438 l 1,30,-1
 302.040039062 1404.33398438 l 1,31,-1
 302.040039062 474.366210938 l 1,13,14
EndSplineSet
EndChar

StartChar: uniFEC4
Encoding: 65220 65220 217
Width: 1241
VWidth: 2186
GlyphClass: 2
Flags: W
AnchorPoint: "Anchor-10" 207.27 1524.79 basechar 0
AnchorPoint: "Anchor-7" 456.73 -265 basechar 0
LayerCount: 2
Fore
SplineSet
271.294921875 190.008789062 m 1,0,-1
 450.263671875 190.008789062 l 1,1,2
 450.767578125 190.008789062 l 2,3,4
 680 190 680 190 737.499023438 196.999023438 c 0,5,6
 871 214 871 214 882 339 c 0,7,8
 885 374 885 374 885.418945312 403.079101562 c 0,9,10
 885 568 885 568 779 568 c 0,11,12
 557 568 557 568 271.294921875 190.008789062 c 1,0,-1
1033.23925781 241 m 1,13,14
 1067.78701599 179.379882812 1067.78701599 179.379882812 1224.09960938 179.379882812 c 2,15,-1
 1253.90039062 179.379882812 l 1,16,-1
 1253.90039062 0.5 l 1,17,-1
 1165.25 0.5 l 2,18,19
 1023 0 1023 0 937.559570312 99 c 1,20,21
 922 88 922 88 905.192382812 78.4580078125 c 0,22,23
 753 -3 753 -3 422.21484375 -0.0830078125 c 0,24,25
 414 0 414 0 406 -0 c 2,26,-1
 -10 0 l 5,27,-1
 -10 178.879882812 l 5,28,-1
 79 179 l 1,29,30
 105 223 105 223 135.16015625 265.192382812 c 1,31,-1
 135.16015625 1404.33398438 l 1,32,-1
 302.040039062 1404.33398438 l 1,33,-1
 302.040039062 474.366210938 l 1,34,35
 545 750 545 750 799 750 c 0,36,37
 1056 750 1056 750 1051 366 c 0,38,39
 1050 296 1050 296 1033.23925781 241 c 1,13,14
EndSplineSet
EndChar

StartChar: uniFECA
Encoding: 65226 65226 223
Width: 1124
VWidth: 2186
GlyphClass: 2
Flags: W
AnchorPoint: "Anchor-10" 568 1048.5 basechar 0
AnchorPoint: "Anchor-7" 399.69 -689.64 basechar 0
LayerCount: 2
Fore
SplineSet
779.5 708.504882812 m 4,0,1
 784.445513882 751.128064869 784.445513882 751.128064869 670.733398438 752.5078125 c 0,2,3
 545 754 545 754 545.233398438 707.204101562 c 0,4,5
 545 669 545 669 640 602 c 1,6,7
 776 666 776 666 779.5 708.504882812 c 4,0,1
487 519 m 1,8,9
 407 597 407 597 380 626 c 0,10,11
 317 697 317 697 311.772460938 721.139648438 c 0,12,13
 305 756 305 756 357.231445312 806.467773438 c 0,14,15
 475 922 475 922 659.151367188 922.418945312 c 0,16,17
 839 923 839 923 982.306640625 803.418945312 c 0,18,19
 1021 771 1021 771 1020.97460938 736.305664062 c 0,20,21
 1020.99295381 701.405371824 1020.99295381 701.405371824 990.672851562 667.05859375 c 0,22,23
 920 587 920 587 696 472 c 1,24,25
 802 179 802 179 1097.5 179.379882812 c 2,26,-1
 1148.70019531 179.379882812 l 1,27,-1
 1148.70019531 0.5 l 1,28,-1
 1114.62011719 0.5 l 2,29,30
 745 0 745 0 562 397.174804688 c 1,31,32
 459 350 459 350 385 279 c 0,33,34
 253 153 253 153 253.009765625 -0.10546875 c 0,35,36
 253 -170 253 -170 368.5 -260 c 128,-1,37
 484 -350 484 -350 703.299804688 -350.165039062 c 0,38,39
 855 -350 855 -350 964.599609375 -310.3828125 c 1,40,-1
 1007 -458 l 1,41,42
 887 -510 887 -510 680.299804688 -507.69140625 c 0,43,44
 394 -505 394 -505 243.5 -370.5 c 128,-1,45
 93 -236 93 -236 95 -1 c 128,-1,46
 97 234 97 234 303 402 c 0,47,48
 396 478 396 478 487 519 c 1,8,9
EndSplineSet
EndChar

StartChar: uniFECB
Encoding: 65227 65227 224
Width: 1008
VWidth: 2186
GlyphClass: 2
Flags: W
AnchorPoint: "Anchor-10" 433.265 1135.23 basechar 0
AnchorPoint: "Anchor-7" 402.6 -258.5 basechar 0
LayerCount: 2
Fore
SplineSet
787.767578125 593.426757812 m 1,0,1
 698 678 698 678 567.756835938 678.357421875 c 0,2,3
 488 678 488 678 424.997070312 642.958984375 c 0,4,5
 318 584 318 584 315 461 c 0,6,7
 310 267 310 267 568 209.816925353 c 1,8,-1
 917 284.426757812 l 1,9,-1
 917 104.426757812 l 1,10,11
 826 91 826 91 712.714166542 61.8682898827 c 0,12,13
 599 32 599 32 534.563536605 16.1641012828 c 0,14,15
 469.918159382 -0.0204895844169 469.918159382 -0.0204895844169 356.357 -0.015625 c 2,16,-1
 -8.40039 0 l 1,17,-1
 -8.40039 178.98 l 1,18,-1
 279.904 179.013 l 1,19,20
 147 314 147 314 146.915039062 459.7734375 c 0,21,22
 147 552 147 552 188.95703125 638.284179688 c 0,23,24
 226 715 226 715 312 773.5 c 0,25,26
 410 841 410 841 533.4375 841.744140625 c 0,27,28
 736 843 736 843 842.9609375 717.358398438 c 1,29,-1
 787.767578125 593.426757812 l 1,0,1
EndSplineSet
EndChar

StartChar: uniFECC
Encoding: 65228 65228 225
Width: 932
VWidth: 2186
GlyphClass: 2
Flags: W
AnchorPoint: "Anchor-10" 464.58 1065.5 basechar 0
AnchorPoint: "Anchor-7" 449.58 -258.5 basechar 0
LayerCount: 2
Fore
SplineSet
585.187 500.969 m 0,0,1
 585.187 544.003 585.187 544.003 476.42 544.003 c 128,-1,2
 367.654 544.003 367.654 544.003 367.654 500.969 c 0,3,4
 367.654 476.786456806 367.654 476.786456806 476.42 402.971 c 1,5,6
 585.187 476.774284937 585.187 476.774284937 585.187 500.969 c 0,0,1
40.8604 0 m 2,7,-1
 -20.400390625 0 l 1,8,-1
 -20.400390625 178.98046875 l 1,9,-1
 17.3203 178.98 l 2,10,11
 270 179 270 179 375.387 310.146 c 1,12,13
 253 371 253 371 187.093845634 423.239218349 c 128,-1,14
 121.187691268 475.478436697 121.187691268 475.478436697 121.187691268 505.961071923 c 4,15,16
 121.187691268 599.374686048 121.187691268 599.374686048 268.957 669.03 c 0,17,18
 356 710 356 710 472 710 c 128,-1,19
 588 710 588 710 674.791 669.013 c 0,20,21
 825.729385261 598.660030689 825.729385261 598.660030689 825.729385261 509.716117965 c 0,22,23
 825.729385261 488.757039545 825.729385261 488.757039545 772.864 441.294 c 128,-1,24
 720 394 720 394 568.762 308.953 c 1,25,26
 667.077542308 178.933381305 667.077542308 178.933381305 902.861365417 178.933381305 c 0,27,28
 907.326037998 178.933381305 907.326037998 178.933381305 911.84 178.98 c 2,29,-1
 950.559570312 179.379882812 l 1,30,-1
 950.559570312 0.5 l 1,31,-1
 888.3 0.5 l 2,32,33
 887.501063203 0.498465353828 887.501063203 0.498465353828 886.7030532 0.498465353828 c 0,34,35
 627.503020184 0.498465353828 627.503020184 0.498465353828 466.08 162.404 c 1,36,37
 296 0 296 0 40.8604 0 c 2,7,-1
EndSplineSet
EndChar

StartChar: uniFEDA
Encoding: 65242 65242 239
Width: 1840
VWidth: 2186
GlyphClass: 2
Flags: W
AnchorPoint: "Anchor-10" 589 1360.5 basechar 0
AnchorPoint: "Anchor-7" 790 -218.5 basechar 0
LayerCount: 2
Fore
SplineSet
1050.77 1191.37 m 1,0,-1
 1050.77 1129.46 l 1,1,2
 978.53 1124.56 978.53 1124.56 939.37 1110.13 c 0,3,4
 845.33 1074.87 845.33 1074.87 845.33 1030.55 c 0,5,6
 845.33 996.128 845.33 996.128 862.977 973.438 c 0,7,8
 878.961 952.126 878.961 952.126 957.02 940.646 c 0,9,10
 1007.93 933.158 1007.93 933.158 1033.99 909.356 c 128,-1,11
 1060.05 885.555 1060.05 885.555 1060.05 843.298 c 0,12,13
 1060.05 744.281 1060.05 744.281 968.3 692.399 c 0,14,15
 898.305 652.814 898.305 652.814 802.689 651.929 c 0,16,17
 739.676 651.929 739.676 651.929 685.148 661.5 c 1,18,-1
 685.148 729.882 l 1,19,20
 749.203 721.158 749.203 721.158 793.059 721.158 c 0,21,22
 866.923 721.158 866.923 721.158 914.305 739.814 c 0,23,24
 995.45 770.977 995.45 770.977 995.45 821.898 c 0,25,26
 995.45 878.181 995.45 878.181 901.736 893.454 c 0,27,28
 843.307 902.357 843.307 902.357 811.391 935.003 c 0,29,30
 779.093 968.039 779.093 968.039 780.375 1027.02 c 0,31,32
 782.326 1105.92 782.326 1105.92 855.637 1143.07 c 0,33,34
 938.89 1185.19 938.89 1185.19 1050.77 1191.37 c 1,0,-1
1265.6 29 m 24,35,36
 1097.64 -1.45802 1097.64 -1.45802 911 2 c 24,37,38
 584.952 8.04091 584.952 8.04091 456 44 c 0,39,40
 126.91 135.769 126.91 135.769 92 457 c 0,41,42
 79.4531 575.45 79.4531 575.45 128 709 c 1,43,-1
 290.912 676.955 l 1,44,45
 260.862 521.504 260.862 521.504 267 478 c 0,46,47
 297.342 262.963 297.342 262.963 560 203 c 0,48,49
 643.63 183.908 643.63 183.908 803.912 179.813 c 0,50,51
 1008.99 173.801 1008.99 173.801 1130.62 186.432 c 16,52,53
 1449.43 219.538 1449.43 219.538 1464.6 397.014 c 0,54,55
 1468.43 441.814 1468.43 441.814 1468.43 441.814 c 2,56,-1
 1468.43 1400.96 l 1,57,-1
 1639.3 1400.96 l 1,58,-1
 1639.3 411.814 l 2,59,60
 1639.3 392.914 1639.3 392.914 1636.64 357 c 0,61,62
 1632.98 307.582 1632.98 307.582 1614.6 254.627 c 1,63,64
 1670.38 179.38 1670.38 179.38 1795.97 179.38 c 2,65,-1
 1863.22 179.38 l 1,66,-1
 1863.22 0.5 l 1,67,-1
 1737.12 0.5 l 2,68,69
 1632.92 0.5 1632.92 0.5 1500.6 108.919 c 1,70,71
 1413.53 55.8262 1413.53 55.8262 1265.6 29 c 24,35,36
EndSplineSet
EndChar

StartChar: uniFEDB
Encoding: 65243 65243 240
Width: 854
VWidth: 2186
GlyphClass: 2
Flags: W
AnchorPoint: "Anchor-10" 210.5 1373 basechar 0
AnchorPoint: "Anchor-7" 305 -225 basechar 0
LayerCount: 2
Fore
SplineSet
623 131 m 0,0,1
 540 0 540 0 293.7 0 c 2,2,-1
 -20.400390625 0 l 1,3,-1
 -20.400390625 178.98046875 l 1,4,-1
 252.386359427 179.003999889 l 2,5,6
 543 179 543 179 518 337 c 0,7,8
 490 509 490 509 90.857421875 737.896484375 c 0,9,10
 12 783 12 783 11.6884765625 901.008789062 c 0,11,12
 11.9993061103 1005.76614177 11.9993061103 1005.76614177 124.5390625 1060.45019531 c 2,13,-1
 823.25 1399.95996094 l 1,14,-1
 823.25 1223.28027344 l 1,15,-1
 168.37109375 908 l 1,16,17
 472 688 472 688 534.401367188 619.276367188 c 0,18,19
 666 476 666 476 676 345 c 0,20,21
 685 228 685 228 623 131 c 0,0,1
EndSplineSet
EndChar

StartChar: uniFEDC
Encoding: 65244 65244 241
Width: 896
VWidth: 2186
GlyphClass: 2
Flags: W
AnchorPoint: "Anchor-10" 218.5 1345 basechar 0
AnchorPoint: "Anchor-7" 321 -291 basechar 0
LayerCount: 2
Fore
SplineSet
623 131 m 5,0,1
 521 0 521 0 293.7 0 c 6,2,-1
 -20.400390625 0 l 5,3,-1
 -20.400390625 178.98046875 l 5,4,-1
 252.386359427 179.003999889 l 6,5,6
 543 179 543 179 518 337 c 4,7,8
 490.247813094 509.460018631 490.247813094 509.460018631 90.857421875 737.896484375 c 4,9,10
 12 783 12 783 11.6884765625 901.008789062 c 4,11,12
 11.9993061103 1005.76614177 11.9993061103 1005.76614177 124.5390625 1060.45019531 c 6,13,-1
 823.25 1399.95996094 l 5,14,-1
 823.25 1223.28027344 l 5,15,-1
 168.37109375 908 l 5,16,17
 472 688 472 688 534.401367188 619.276367188 c 4,18,19
 641 503 641 503 692 340 c 4,20,21
 741.882023971 179.379882812 741.882023971 179.379882812 879.745117188 179.379882812 c 6,22,-1
 916.775390625 179.379882812 l 5,23,-1
 916.775390625 0.5 l 5,24,-1
 887.03515625 0.5 l 6,25,26
 690 0 690 0 623 131 c 5,0,1
EndSplineSet
EndChar

StartChar: uniFEDE
Encoding: 65246 65246 243
Width: 1362
VWidth: 2186
GlyphClass: 2
Flags: W
AnchorPoint: "Anchor-10" 452.5 885.5 basechar 0
AnchorPoint: "Anchor-7" 366.34 -693.3 basechar 0
LayerCount: 2
Fore
SplineSet
1135.28 405.31 m 2,0,1
 1135.28 179.379882812 1135.28 179.379882812 1325.71972656 179.379882812 c 2,2,-1
 1370.96972656 179.379882812 l 1,3,-1
 1370.96972656 0.5 l 1,4,-1
 1339.87011719 0.5 l 2,5,6
 1200 0 1200 0 1135.82 64.8076 c 1,7,8
 1132 -184 1132 -184 998.5 -328.5 c 128,-1,9
 865 -473 865 -473 623.5 -473 c 128,-1,10
 382 -473 382 -473 236.780453052 -346.743778464 c 0,11,12
 91 -219 91 -219 91.560906105 26.4707548365 c 0,13,14
 92 157 92 157 137.184 274.606 c 1,15,-1
 296.582 242.591 l 1,16,17
 260 118 260 118 259.512613817 35.8560732963 c 0,18,19
 260 -131 260 -131 364.32 -228.798 c 0,20,21
 446 -305 446 -305 613.211535685 -304.493713618 c 0,22,23
 761 -304 761 -304 848.766601562 -242 c 0,24,25
 970.072539263 -156.949140769 970.072539263 -156.949140769 969.83 33.8574 c 2,26,-1
 969.4 372.14 l 1,27,-1
 969.4 1400.83 l 1,28,-1
 1135.28 1400.83 l 1,29,-1
 1135.28 405.31 l 2,0,1
EndSplineSet
EndChar

StartChar: uniFEDF
Encoding: 65247 65247 244
Width: 531
VWidth: 2186
GlyphClass: 2
Flags: W
AnchorPoint: "Anchor-10" 297.73 1512 basechar 0
AnchorPoint: "Anchor-7" 238.73 -241.5 basechar 0
LayerCount: 2
Fore
SplineSet
398.17 441.69 m 2,0,1
 398.17 218.18279706 398.17 218.18279706 291.885 103.897 c 0,2,3
 195 0 195 0 61.7002 0 c 2,4,-1
 -10.400390625 0 l 5,5,-1
 -10.400390625 178.98046875 l 5,6,-1
 12.8496 178.98 l 2,7,8
 113 179 113 179 175.053 257.018 c 0,9,10
 231.29 327.362750103 231.29 327.362750103 231.29 454.53 c 2,11,-1
 231.29 1401.03 l 1,12,-1
 398.17 1401.03 l 1,13,-1
 398.17 441.69 l 2,0,1
EndSplineSet
EndChar

StartChar: uniFEE0
Encoding: 65248 65248 245
Width: 650
VWidth: 2186
GlyphClass: 2
Flags: W
AnchorPoint: "Anchor-10" 316.73 1508 basechar 0
AnchorPoint: "Anchor-7" 243.73 -239.5 basechar 0
LayerCount: 2
Fore
SplineSet
316.045 96.1914 m 2,0,1
 229.911783399 -2.84217094304e-14 229.911783399 -2.84217094304e-14 80.7002 0 c 2,2,-1
 -15.400390625 0 l 1,3,-1
 -15.400390625 178.98046875 l 1,4,-1
 21.8496 178.98 l 2,5,6
 129 179 129 179 183.053 230.268 c 0,7,8
 242.29 287.279102923 242.29 287.279102923 242.29 405.31 c 2,9,-1
 242.29 1399.96 l 1,10,-1
 409.17 1399.96 l 1,11,-1
 409.17 405.31 l 2,12,13
 409 289 409 289 467.407 230.268 c 0,14,15
 519.021527227 178.97860838 519.021527227 178.97860838 629.61 178.98 c 2,16,-1
 666.860351562 178.98046875 l 1,17,-1
 666.860351562 0 l 1,18,-1
 570.76 0 l 2,19,20
 423.79517299 -5.68434188608e-14 423.79517299 -5.68434188608e-14 325.607 106.87 c 5,21,-1
 316.045 96.1914 l 2,0,1
EndSplineSet
EndChar

StartChar: uniFEE2
Encoding: 65250 65250 247
Width: 1053
VWidth: 2186
GlyphClass: 2
Flags: W
AnchorPoint: "Anchor-10" 530.5 1067 basechar 0
AnchorPoint: "Anchor-7" 170.188 -542.422 basechar 0
LayerCount: 2
Fore
SplineSet
442 227 m 5,0,1
 475 218 475 218 588 192 c 4,2,3
 664 174 664 174 696 175 c 4,4,5
 779 177 779 177 777.373046875 242.177734375 c 4,6,7
 776 286 776 286 746 353 c 4,8,9
 679 497 679 497 577 495 c 4,10,11
 518 494 518 494 482 450 c 4,12,13
 442 401 442 401 442.044921875 294.263671875 c 4,14,15
 442 261 442 261 442 227 c 5,0,1
880.588867188 66 m 5,16,17
 855 43 855 43 817 31 c 4,18,19
 741 7 741 7 635 22 c 20,20,21
 562 32 562 32 432 59.9228515625 c 4,22,23
 336 81 336 81 286 -16 c 4,24,25
 257 -73 257 -73 257 -212 c 6,26,-1
 257 -511 l 5,27,-1
 91 -511 l 5,28,-1
 91 -198 l 6,29,30
 91 179 91 179 282.780273438 210.986328125 c 5,31,32
 283 221 283 221 282.616210938 231.05078125 c 4,33,34
 273 481 273 481 408 601 c 4,35,36
 468 655 468 655 571.895507812 654.794921875 c 4,37,38
 815 655 815 655 913.829101562 296.642578125 c 4,39,40
 925 256 925 256 929.248046875 225 c 5,41,42
 960 178 960 178 1026 178 c 2,43,-1
 1063 178 l 1,44,-1
 1063 0 l 1,45,-1
 1041 0 l 2,46,47
 953 0 953 0 880.588867188 66 c 5,16,17
EndSplineSet
EndChar

StartChar: uniFEE3
Encoding: 65251 65251 248
Width: 833
VWidth: 2186
GlyphClass: 2
Flags: W
AnchorPoint: "Anchor-10" 345.69 916.5 basechar 0
AnchorPoint: "Anchor-7" 351.69 -205.5 basechar 0
LayerCount: 2
Fore
SplineSet
744.9140625 276.890625 m 4,0,1
 745 154 745 154 675.95703125 77.615234375 c 4,2,3
 610 4 610 4 504.37890625 3.9541015625 c 4,4,5
 307 4 307 4 208.610351562 89.90625 c 5,6,7
 147 0 147 0 6.98046875 0 c 6,8,-1
 -8.40039 0 l 5,9,-1
 -8.40039 178.979 l 5,10,-1
 21.9599609375 178.978515625 l 6,11,12
 78 179 78 179 104.524414062 227.288085938 c 28,13,14
 256.86777014 677 256.86777014 677 471.5 677 c 4,15,16
 724 677 724 677 744.413085938 297.877929688 c 4,17,18
 745 287 745 287 744.9140625 276.890625 c 4,0,1
488.5 157.5 m 132,-1,20
 578 156 578 156 582.193359375 293.090820312 c 4,21,22
 583 325 583 325 577.85546875 354.03515625 c 4,23,24
 549 505 549 505 477.5 505 c 4,25,26
 358 505 358 505 271.114257812 223.026367188 c 5,27,28
 399 159 399 159 488.5 157.5 c 132,-1,20
EndSplineSet
EndChar

StartChar: uniFEE4
Encoding: 65252 65252 249
Width: 922
VWidth: 2186
GlyphClass: 2
Flags: W
AnchorPoint: "Anchor-10" 486.79 998.5 basechar 0
AnchorPoint: "Anchor-7" 468.79 -224.5 basechar 0
LayerCount: 2
Fore
SplineSet
488.5 157.5 m 128,-1,1
 578 156 578 156 582.193359375 293.090820312 c 0,2,3
 583 325 583 325 577.85546875 354.03515625 c 0,4,5
 549 505 549 505 477.5 505 c 0,6,7
 358 505 358 505 271.114257812 223.026367188 c 1,8,0
 399 159 399 159 488.5 157.5 c 128,-1,1
694.70703125 101 m 1,9,10
 686 89 686 89 675.95703125 77.615234375 c 0,11,12
 610 4 610 4 504.37890625 3.9541015625 c 0,13,14
 307 4 307 4 208.610351562 89.90625 c 1,15,16
 147 0 147 0 6.98046875 0 c 2,17,-1
 -8.40039 0 l 1,18,-1
 -8.40039 178.979 l 1,19,-1
 21.9599609375 178.978515625 l 2,20,21
 88.8159741987 178.998453977 88.8159741987 178.998453977 104.524414062 227.288085938 c 28,22,23
 251 677 251 677 477.5 677 c 0,24,25
 699 677 699 677 737.998046875 370 c 8,26,27
 761.988709814 179.08984375 761.988709814 179.08984375 919.280273438 179.08984375 c 2,28,-1
 932.1796875 179.08984375 l 1,29,-1
 932.1796875 0.2099609375 l 1,30,-1
 922.4296875 0 l 2,31,32
 785 -3 785 -3 694.70703125 101 c 1,9,10
EndSplineSet
EndChar

StartChar: uniFEEA
Encoding: 65258 65258 255
Width: 985
VWidth: 2186
GlyphClass: 2
Flags: W
AnchorPoint: "Anchor-10" 349.95 1113.81 basechar 0
AnchorPoint: "Anchor-7" 355.88 -225 basechar 0
LayerCount: 2
Fore
SplineSet
624 311 m 1,0,1
 610 576 l 1,2,3
 261 528 261 528 254 423 c 0,4,5
 243 265 243 265 624 311 c 1,0,1
660.685546875 168 m 1,6,7
 96 94 96 94 90.5068359375 393.408203125 c 0,8,9
 85 661 85 661 610.85546875 721.126953125 c 1,10,11
 611 755 611 755 612 788 c 1,12,13
 756 805 l 1,14,-1
 764 423 l 2,15,16
 768.997070312 179.151367188 768.997070312 179.151367188 973.299804688 179 c 2,17,-1
 1000.25976562 178.98046875 l 1,18,-1
 1000.25976562 0 l 1,19,-1
 954.33984375 0 l 2,20,21
 724 0 724 0 660.685546875 168 c 1,6,7
EndSplineSet
EndChar

StartChar: uniFEEB
Encoding: 65259 65259 256
Width: 1148
VWidth: 2186
GlyphClass: 2
Flags: W
AnchorPoint: "Anchor-10" 419.801 1256.23 basechar 0
AnchorPoint: "Anchor-7" 371.542 -228.946 basechar 0
LayerCount: 2
Fore
SplineSet
485.799804688 304.497070312 m 0,0,1
 624 427 624 427 547.1796875 527.697265625 c 0,2,3
 487 605 487 605 392 566 c 0,4,5
 314 534 314 534 279 457 c 0,6,7
 205 295 205 295 328.46484375 217.54296875 c 1,8,9
 433 256 433 256 485.799804688 304.497070312 c 0,0,1
667.552734375 598 m 1,10,11
 732 505 732 505 701.573242188 376.739257812 c 0,12,13
 676 272 676 272 526.9296875 179.791992188 c 1,14,15
 888 93 888 93 918.6328125 255.634765625 c 0,16,17
 940 369 940 369 706 566 c 0,18,19
 687 582 687 582 667.552734375 598 c 1,10,11
559 688.322265625 m 1,20,21
 514 723 514 723 480.3359375 743.490234375 c 1,22,-1
 575.194335938 866.833984375 l 1,23,24
 681 797 681 797 836 649 c 0,25,26
 1030 464 1030 464 1058 349 c 0,27,28
 1123 81 1123 81 831.663085938 18.783203125 c 0,29,30
 605 -30 605 -30 364.012695312 80.078125 c 1,31,32
 189 0 189 0 7.6298828125 0 c 2,33,-1
 -10.400390625 0 l 1,34,-1
 -10.400390625 178.98046875 l 1,35,-1
 42.2734375 177.301757812 l 2,36,37
 83 176 83 176 169 177 c 1,38,39
 109 250 109 250 110 350 c 0,40,41
 111 481 111 481 186.994140625 578.31640625 c 0,42,43
 246 654 246 654 344 690 c 0,44,45
 454 730 454 730 559 688.322265625 c 1,20,21
EndSplineSet
EndChar

StartChar: uniFEEC
Encoding: 65260 65260 257
Width: 988
VWidth: 2186
GlyphClass: 2
Flags: W
AnchorPoint: "Anchor-7" 365.88 -598 basechar 0
AnchorPoint: "Anchor-10" 422.76 1026.74 basechar 0
LayerCount: 2
Fore
SplineSet
360 524 m 0,0,1
 338 449 338 449 336.560546875 358.876953125 c 0,2,3
 334 203 334 203 337.689 178.957 c 1,4,-1
 396.343 179.715 l 2,5,6
 460 181 460 181 504.5078125 247.076171875 c 5,7,8
 564 335 564 335 565 480 c 4,9,10
 565 549 565 549 537.15625 591.3515625 c 4,11,12
 509 633 509 633 465.986328125 631.946289062 c 0,13,14
 392 630 392 630 360 524 c 0,0,1
186.791 179.037 m 1,15,16
 184 261 184 261 183.602874387 320.39248261 c 0,17,18
 184 500 184 500 222.37890625 606.393554688 c 0,19,20
 285 781 285 781 475.96875 785.008789062 c 0,21,22
 577 787 577 787 647.9921875 701.830078125 c 4,23,24
 709 627 709 627 709 485 c 4,25,26
 709 204 709 204 556.974609375 72.611328125 c 4,27,28
 482 7 482 7 353.094 -0.0957031 c 1,29,30
 353 -201 353 -201 412 -270 c 1,31,32
 502 -108 502 -108 590 -22 c 0,33,34
 798.500051744 182.509620132 798.500051744 182.509620132 966.01953125 179.978515625 c 2,35,-1
 1005.63964844 179.379882812 l 1,36,-1
 1005.63964844 0.4990234375 l 1,37,-1
 983.959960938 -0.0009765625 l 2,38,39
 821 -4 821 -4 708 -112 c 128,-1,40
 595 -220 595 -220 436 -508 c 1,41,42
 301 -465 301 -465 228 -254 c 0,43,44
 202 -179 202 -179 189.169 0 c 1,45,-1
 -17.9355 -0 l 1,46,-1
 -17.9355 178.979 l 1,47,-1
 186.791 179.037 l 1,15,16
EndSplineSet
EndChar

StartChar: uniFEEE
Encoding: 65262 65262 259
Width: 783
VWidth: 2186
GlyphClass: 2
Flags: W
AnchorPoint: "Anchor-10" 395 1064 basechar 0
AnchorPoint: "Anchor-7" 414.515 -665.238 basechar 0
LayerCount: 2
Fore
SplineSet
504.0390625 414.494140625 m 0,0,1
 469 492 469 492 397.8046875 492.544921875 c 0,2,3
 343 493 343 493 297.681640625 429.421875 c 0,4,5
 252 367 252 367 252.166015625 288.806640625 c 0,6,7
 252 169 252 169 413.297851562 168.125 c 0,8,9
 532 168 532 168 539.571289062 169.084960938 c 1,10,11
 539 336 539 336 504.0390625 414.494140625 c 0,0,1
702.747070312 178.5 m 0,12,13
 803.66015625 179.379882812 l 1,14,-1
 803.66015625 0.5 l 1,15,-1
 697.764648438 0.5 l 1,16,17
 657 -193 657 -193 522.345703125 -312.154296875 c 0,18,19
 397 -422 397 -422 100.063476562 -456.0859375 c 5,20,-1
 70.197265625 -291.811523438 l 5,21,22
 433 -257 433 -257 525.318359375 0.4912109375 c 1,23,24
 483 -2 483 -2 381.934570312 3.33203125 c 0,25,26
 208 13 208 13 145.967773438 97.978515625 c 0,27,28
 90 174 90 174 90.142578125 267.127929688 c 0,29,30
 90 360 90 360 140.083007812 468.633789062 c 0,31,32
 238 682 238 682 397.209960938 682.397460938 c 0,33,34
 543 682 543 682 645.021484375 493.03515625 c 0,35,36
 699 393 699 393 702.747070312 178.5 c 0,12,13
EndSplineSet
EndChar

StartChar: uniFEF0
Encoding: 65264 65264 261
Width: 1359
VWidth: 2186
GlyphClass: 2
Flags: W
AnchorPoint: "Anchor-10" 571.73 555.315 basechar 0
AnchorPoint: "Anchor-7" 366.94 -666.88 basechar 0
LayerCount: 2
Fore
SplineSet
265.096679688 20.3583984375 m 0,0,1
 265 -296 265 -296 657.411132812 -296.209960938 c 0,2,3
 884.658239495 -296.00214156 884.658239495 -296.00214156 1028.00976562 -214.34765625 c 0,4,5
 1148 -146 1148 -146 1147.69824219 -75.89453125 c 0,6,7
 1148 -34 1148 -34 1092.99023438 0.494140625 c 1,8,-1
 887.66015625 0.689453125 l 1,9,10
 834 7 834 7 812.719726562 88.9892578125 c 0,11,12
 792 171 792 171 828.66015625 178.981445312 c 1,13,-1
 1386.88964844 179.379882812 l 1,14,-1
 1386.88964844 0.5 l 1,15,-1
 1249.03027344 0.541015625 l 1,16,17
 1300 -32 1300 -32 1300.26367188 -105.725585938 c 0,18,19
 1299.97836171 -267.250238584 1299.97836171 -267.250238584 1065.50976562 -379.068359375 c 0,20,21
 899 -458 899 -458 650.208984375 -460.603515625 c 0,22,23
 589 -461 589 -461 522.716796875 -454.500976562 c 0,24,25
 90 -415 90 -415 90.138671875 12.271484375 c 0,26,27
 90 163 90 163 161.491210938 346.908203125 c 1,28,-1
 321.2890625 307.793945312 l 1,29,30
 265 139 265 139 265.096679688 20.3583984375 c 0,0,1
EndSplineSet
EndChar

StartChar: uniFEFB
Encoding: 65275 65275 272
Width: 1120
VWidth: 2186
GlyphClass: 3
Flags: W
AnchorPoint: "Anchor-9" 903.69 1518 baselig 0
AnchorPoint: "Anchor-6" 832.69 -163.5 baselig 0
AnchorPoint: "Anchor-6" 195 -217 baselig 1
AnchorPoint: "Anchor-9" 186.5 1392.5 baselig 1
LayerCount: 2
Fore
SplineSet
410 170 m 1,0,1
 405 727 405 727 106.301757812 1213 c 1,2,-1
 253 1276 l 1,3,4
 538 858 538 858 566 194 c 1,5,6
 810 261 810 261 820.105 503.494 c 0,7,8
 828 678 828 678 827.951 926.4 c 2,9,-1
 828.25 1399.96 l 1,10,-1
 994.13 1399.96 l 1,11,-1
 994.03 887.88 l 2,12,13
 993.950501611 480.784649865 993.950501611 480.784649865 970.9 380.5 c 0,14,15
 918 151 918 151 745.487 61.4238 c 0,16,17
 607 -11 607 -11 289.908 3.70801 c 0,18,19
 150 10 150 10 91.4023 28.5 c 1,20,-1
 93.3671875 193.99609375 l 1,21,22
 283 150 283 150 410 170 c 1,0,1
EndSplineSet
LCarets2: 1 0
Ligature2: "'rlig' Required Ligatures in Arabic lookup 16 subtable" uniFEDF uniFE8E
EndChar

StartChar: uniFEFC
Encoding: 65276 65276 273
Width: 1274
VWidth: 2186
GlyphClass: 3
Flags: W
AnchorPoint: "Anchor-9" 920.69 1494 baselig 0
AnchorPoint: "Anchor-6" 805.69 -186.5 baselig 0
AnchorPoint: "Anchor-6" 170 -240 baselig 1
AnchorPoint: "Anchor-9" 158.043 1368.51 baselig 1
LayerCount: 2
Fore
SplineSet
764.849609375 154.055664062 m 0,0,1
 627 1 627 1 333.99 0.5 c 0,2,3
 163 0 163 0 119.08 10.0127 c 1,4,-1
 119.08 189.019 l 1,5,6
 298 158 298 158 408 186 c 5,7,8
 403 730 403 730 106.301757812 1213 c 5,9,-1
 253 1276 l 5,10,11
 534 862 534 862 562 228 c 5,12,13
 732 283 732 283 796 476 c 0,14,15
 830.904134398 581.709664176 830.904134398 581.709664176 831.049804688 926.400390625 c 2,16,-1
 831.25 1400.11035156 l 1,17,-1
 997.129882812 1400.11035156 l 1,18,-1
 997.129882812 637.5 l 2,19,20
 997 466 997 466 1034.45996094 356.560546875 c 0,21,22
 1094.87047731 179.379882812 1094.87047731 179.379882812 1231.58984375 179.379882812 c 2,23,-1
 1299.94042969 179.379882812 l 1,24,-1
 1299.94042969 0.5 l 1,25,-1
 1232.91015625 0.5 l 2,26,27
 938 0 938 0 899 367 c 1,28,29
 856 255 856 255 764.849609375 154.055664062 c 0,0,1
EndSplineSet
LCarets2: 1 0
Ligature2: "'rlig' Required Ligatures in Arabic lookup 16 subtable" uniFEE0 uniFE8E
EndChar

StartChar: arabic_dot
Encoding: 65536 -1 274
Width: 150
GlyphClass: 2
Flags: W
LayerCount: 2
Fore
SplineSet
120.733398282 157.535533906 m 6,0,-1
 149.733398282 128.535533906 l 6,1,2
 195.768929433 82.5000027548 195.768929433 82.5000027548 148.535531151 35.2666780795 c 6,3,-1
 119.535531151 6.26672327184 l 6,4,5
 74.5000027548 -38.768734943 74.5000027548 -38.768734943 31.4644660941 4.26680171773 c 6,6,-1
 1.46446609407 34.2668017177 l 6,7,8
 -46.768734943 82.5000027548 -46.768734943 82.5000027548 0.266720155125 129.535531151 c 6,9,-1
 28.2666765211 157.535531151 l 6,10,11
 74.5000027548 203.768929433 74.5000027548 203.768929433 120.733398282 157.535533906 c 6,0,-1
EndSplineSet
EndChar

StartChar: arabic_2dots
Encoding: 65537 -1 275
Width: 400
GlyphClass: 2
Flags: W
LayerCount: 2
Fore
SplineSet
370.733398438 157.53515625 m 6,0,-1
 399.733398438 128.53515625 l 6,1,2
 445.768554688 82.5 445.768554688 82.5 398.53515625 35.2666015625 c 6,3,-1
 369.53515625 6.2666015625 l 6,4,5
 324.5 -38.7685546875 324.5 -38.7685546875 281.46484375 4.2666015625 c 6,6,-1
 251.46484375 34.2666015625 l 6,7,8
 203.231445312 82.5 203.231445312 82.5 250.266601562 129.53515625 c 6,9,-1
 278.266601562 157.53515625 l 6,10,11
 324.5 203.768554688 324.5 203.768554688 370.733398438 157.53515625 c 6,0,-1
120.733398438 157.53515625 m 6,12,-1
 149.733398438 128.53515625 l 6,13,14
 195.635335692 82.366781004 195.635335692 82.366781004 148.53515625 35.2666015625 c 6,15,-1
 119.53515625 6.2666015625 l 6,16,17
 74.3668043152 -38.6353590027 74.3668043152 -38.6353590027 31.46484375 4.2666015625 c 6,18,-1
 1.46484375 34.2666015625 l 6,19,20
 -47.1352983243 82.1332563632 -47.1352983243 82.1332563632 0.2666015625 129.53515625 c 6,21,-1
 28.2666015625 157.53515625 l 6,22,23
 74 204 74 204 120.733398438 157.53515625 c 6,12,-1
EndSplineSet
EndChar

StartChar: arabic_3dots
Encoding: 65538 -1 276
Width: 400
GlyphClass: 2
Flags: W
LayerCount: 2
Fore
SplineSet
243.610351562 361.268554688 m 6,0,-1
 272.610351562 332.268554688 l 6,1,2
 318.645507812 286.233398438 318.645507812 286.233398438 271.412109375 239 c 6,3,-1
 242.412109375 210 l 6,4,5
 197.376953125 164.96484375 197.376953125 164.96484375 154.341796875 208 c 6,6,-1
 124.341796875 238 l 6,7,8
 76.1083984375 286.233398438 76.1083984375 286.233398438 123.143554688 333.268554688 c 6,9,-1
 151.143554688 361.268554688 l 6,10,11
 197.376953125 407.501953125 197.376953125 407.501953125 243.610351562 361.268554688 c 6,0,-1
371.075195312 142.53515625 m 6,12,-1
 400.075195312 113.53515625 l 6,13,14
 446.110351562 67.5 446.110351562 67.5 398.876953125 20.2666015625 c 6,15,-1
 369.876953125 -8.7333984375 l 6,16,17
 324.841796875 -53.7685546875 324.841796875 -53.7685546875 281.806640625 -10.7333984375 c 6,18,-1
 251.806640625 19.2666015625 l 6,19,20
 203.573242188 67.5 203.573242188 67.5 250.608398438 114.53515625 c 6,21,-1
 278.608398438 142.53515625 l 6,22,23
 324.841796875 188.768554688 324.841796875 188.768554688 371.075195312 142.53515625 c 6,12,-1
121.075195312 142.53515625 m 6,24,-1
 150.075195312 113.53515625 l 6,25,26
 195.977539062 67.3671875 195.977539062 67.3671875 148.876953125 20.2666015625 c 6,27,-1
 119.876953125 -8.7333984375 l 6,28,29
 74.708984375 -53.6357421875 74.708984375 -53.6357421875 31.806640625 -10.7333984375 c 6,30,-1
 1.806640625 19.2666015625 l 6,31,32
 -46.7939453125 67.1328125 -46.7939453125 67.1328125 0.6083984375 114.53515625 c 6,33,-1
 28.6083984375 142.53515625 l 6,34,35
 74.341796875 189 74.341796875 189 121.075195312 142.53515625 c 6,24,-1
EndSplineSet
EndChar

StartChar: arabic_3dots_a
Encoding: 65539 -1 277
Width: 400
GlyphClass: 2
Flags: W
LayerCount: 2
Fore
SplineSet
243.610351562 -198.733398438 m 6,0,1
 197.376953125 -244.966796875 197.376953125 -244.966796875 151.143554688 -198.733398438 c 6,2,-1
 123.143554688 -170.733398438 l 6,3,4
 76.1083984375 -123.698242188 76.1083984375 -123.698242188 124.341796875 -75.46484375 c 6,5,-1
 154.341796875 -45.46484375 l 6,6,7
 197.376953125 -2.4296875 197.376953125 -2.4296875 242.412109375 -47.46484375 c 6,8,-1
 271.412109375 -76.46484375 l 6,9,10
 318.645507812 -123.698242188 318.645507812 -123.698242188 272.610351562 -169.733398438 c 6,11,-1
 243.610351562 -198.733398438 l 6,0,1
371.075195312 20 m 6,12,13
 324.841796875 -26.2333984375 324.841796875 -26.2333984375 278.608398438 20 c 6,14,-1
 250.608398438 48 l 6,15,16
 203.573242188 95.03515625 203.573242188 95.03515625 251.806640625 143.268554688 c 6,17,-1
 281.806640625 173.268554688 l 6,18,19
 324.841796875 216.303710938 324.841796875 216.303710938 369.876953125 171.268554688 c 6,20,-1
 398.876953125 142.268554688 l 6,21,22
 446.110351562 95.03515625 446.110351562 95.03515625 400.075195312 49 c 6,23,-1
 371.075195312 20 l 6,12,13
121.075195312 20 m 6,24,25
 74.341796875 -26.46484375 74.341796875 -26.46484375 28.6083984375 20 c 6,26,-1
 0.6083984375 48 l 6,27,28
 -46.7939453125 95.40234375 -46.7939453125 95.40234375 1.806640625 143.268554688 c 6,29,-1
 31.806640625 173.268554688 l 6,30,31
 74.708984375 216.170898438 74.708984375 216.170898438 119.876953125 171.268554688 c 6,32,-1
 148.876953125 142.268554688 l 6,33,34
 195.977539062 95.16796875 195.977539062 95.16796875 150.075195312 49 c 6,35,-1
 121.075195312 20 l 6,24,25
EndSplineSet
EndChar

StartChar: uni066E.fina
Encoding: 65540 -1 278
Width: 1800
VWidth: 2186
GlyphClass: 2
Flags: W
AnchorPoint: "Anchor-10" 703 1065.5 basechar 0
AnchorPoint: "Anchor-7" 703 -174 basechar 0
LayerCount: 2
Fore
SplineSet
1579.84 547.795 m 1,0,1
 1599 287 1599 287 1672.7 225.726 c 0,2,3
 1727.55041049 179.379882812 1727.55041049 179.379882812 1789.96972656 179.379882812 c 2,4,-1
 1810.16992188 179.379882812 l 5,5,-1
 1810.16992188 0.5 l 5,6,-1
 1764.03027344 0.5 l 2,7,8
 1582 0 1582 0 1508.39 179.066 c 1,9,10
 1450 87 1450 87 1310.42480469 35.5498046875 c 0,11,12
 1225 4 1225 4 1036.5325 3.283205 c 0,13,14
 841 2 841 2 828.217826715 2.11581520573 c 0,15,16
 583 2 583 2 449 40 c 0,17,18
 88 144 88 144 89.588659782 498.442508303 c 0,19,20
 90 595 90 595 126.267 715.644 c 1,21,-1
 286.267 679.644 l 1,22,23
 264 566 264 566 263.818218366 529.685830973 c 0,24,25
 264 267 264 267 526.267 208.608 c 0,26,27
 650 181 650 181 896.943208418 180.885693525 c 0,28,29
 1361 181 1361 181 1423.38 328 c 0,30,31
 1458 410 1458 410 1461.45 547.795 c 1,32,-1
 1579.84 547.795 l 1,0,1
EndSplineSet
EndChar

StartChar: uni06A1.fina
Encoding: 65543 -1 281
Width: 1884
VWidth: 2186
GlyphClass: 2
Flags: W
AnchorPoint: "Anchor-10" 606 1172.5 basechar 0
AnchorPoint: "Anchor-7" 515 -212.5 basechar 0
LayerCount: 2
Fore
SplineSet
1280.75195312 481.125976562 m 128,-1,1
 1280.75195312 413.568359375 1280.75195312 413.568359375 1329.83789062 365.5859375 c 128,-1,2
 1378.92382812 317.602539062 1378.92382812 317.602539062 1448.55273438 317.602539062 c 128,-1,3
 1518.1796875 317.602539062 1518.1796875 317.602539062 1567.265625 365.584960938 c 128,-1,4
 1616.3515625 413.567382812 1616.3515625 413.567382812 1616.3515625 481.125976562 c 128,-1,5
 1616.3515625 548.680664062 1616.3515625 548.680664062 1567.26464844 596.663085938 c 128,-1,6
 1518.17773438 644.646484375 1518.17773438 644.646484375 1448.55273438 644.646484375 c 128,-1,7
 1378.92578125 644.646484375 1378.92578125 644.646484375 1329.83886719 596.6640625 c 128,-1,0
 1280.75195312 548.682617188 1280.75195312 548.682617188 1280.75195312 481.125976562 c 128,-1,1
1270.25976562 205.961914062 m 1,8,9
 1181 265 1181 265 1137.96875 364.021484375 c 0,10,11
 1114 418 1114 418 1114.48242188 470.241210938 c 0,12,13
 1117 696 1117 696 1307.90039062 773.921875 c 0,14,15
 1371 800 1371 800 1463.65820312 799.170898438 c 0,16,17
 1556 799 1556 799 1613.75976562 766.327148438 c 0,18,19
 1782 671 1782 671 1781.64355469 477.706054688 c 0,20,21
 1782 306 1782 306 1612.25976562 194.772460938 c 1,22,23
 1624.69314896 179.379882812 1624.69314896 179.379882812 1832.88964844 179.379882812 c 2,24,-1
 1898.59960938 179.379882812 l 1,25,-1
 1898.59960938 0.5 l 1,26,-1
 1768.21972656 0.5 l 2,27,28
 1543 0 1543 0 1442.58007812 101.369140625 c 1,29,30
 1330 38 1330 38 1195.2890625 15.787109375 c 0,31,32
 1102 0 1102 0 844 0 c 128,-1,33
 586 -0 586 -0 445.512 38.4014 c 0,34,35
 91 135 91 135 89.4232295321 506.289287032 c 0,36,37
 89 603 89 603 128 709 c 1,38,-1
 290.912 676.955 l 1,39,40
 265 554 265 554 265.317742074 519.637006338 c 0,41,42
 268 254 268 254 535 203 c 0,43,44
 655 180 655 180 841.5 178 c 0,45,46
 906 177 906 177 1057.97265625 183.186523438 c 0,47,48
 1152 187 1152 187 1270.25976562 205.961914062 c 1,8,9
EndSplineSet
EndChar

StartChar: uni06A1.init
Encoding: 65544 -1 282
Width: 825
VWidth: 2186
GlyphClass: 2
Flags: W
AnchorPoint: "Anchor-10" 405.53 1221.5 basechar 0
AnchorPoint: "Anchor-7" 380.53 -165 basechar 0
LayerCount: 2
Fore
SplineSet
537.697265625 724.704101562 m 4,0,1
 502.341796875 803.015625 502.341796875 803.015625 431.461914062 802.754882812 c 4,2,3
 377 803 377 803 331.33984375 739.631835938 c 4,4,5
 286 677 286 677 285.82421875 599.016601562 c 4,6,7
 286 469 286 469 446.956054688 468.334960938 c 4,8,9
 506 468 506 468 573.228515625 479.294921875 c 5,10,11
 573 643 573 643 537.697265625 724.704101562 c 4,0,1
559.658203125 315.209960938 m 5,12,13
 423 304 423 304 415.592773438 303.541992188 c 4,14,15
 256 304 256 304 179.625976562 408.189453125 c 4,16,17
 124 484 124 484 123.80078125 577.337890625 c 4,18,19
 124 671 124 671 173.741210938 778.84375 c 4,20,21
 272 993 272 993 430.868164062 992.607421875 c 4,22,23
 592 993 592 993 678.678710938 803.245117188 c 4,24,25
 735 681 735 681 735.028320312 494.310546875 c 4,26,27
 735 240 735 240 592.514160156 119.813476562 c 4,28,29
 450 0 450 0 196.23 0 c 6,30,-1
 -8.40039 0 l 5,31,-1
 -8.40039 178.98 l 5,32,-1
 82 178.98 l 6,33,34
 330 179 330 179 401.759 205.177 c 4,35,36
 543 256 543 256 559.658203125 315.209960938 c 5,12,13
-8.40039 178.98 m 1029,37,-1
EndSplineSet
EndChar

StartChar: uni06A1.medi
Encoding: 65545 -1 283
Width: 988
VWidth: 2186
GlyphClass: 2
Flags: W
AnchorPoint: "Anchor-10" 493.74 1012 basechar 0
AnchorPoint: "Anchor-7" 493.74 -165 basechar 0
LayerCount: 2
Fore
SplineSet
327.4921875 481.125976562 m 132,-1,1
 327.4921875 413.568359375 327.4921875 413.568359375 376.578125 365.5859375 c 132,-1,2
 425.6640625 317.602539062 425.6640625 317.602539062 495.29296875 317.602539062 c 132,-1,3
 564.919921875 317.602539062 564.919921875 317.602539062 614.005859375 365.584960938 c 132,-1,4
 663.091796875 413.567382812 663.091796875 413.567382812 663.091796875 481.125976562 c 132,-1,5
 663.091796875 548.680664062 663.091796875 548.680664062 614.004882812 596.663085938 c 132,-1,6
 564.91796875 644.646484375 564.91796875 644.646484375 495.29296875 644.646484375 c 132,-1,7
 425.666015625 644.646484375 425.666015625 644.646484375 376.579101562 596.6640625 c 132,-1,0
 327.4921875 548.682617188 327.4921875 548.682617188 327.4921875 481.125976562 c 132,-1,1
660.5 766.327148438 m 4,8,9
 828.740234375 671 828.740234375 671 828.383789062 477.706054688 c 4,10,11
 828.740234375 306 828.740234375 306 659 194.772460938 c 5,12,13
 732.02734375 177.69921875 732.02734375 177.69921875 933.770507812 178.98046875 c 6,14,-1
 996.66015625 179.379882812 l 5,15,-1
 996.66015625 0.5 l 5,16,-1
 797.470703125 0 l 6,17,18
 678.740234375 0 678.740234375 0 494 106.634765625 c 5,19,20
 330.740234375 0 330.740234375 0 191.530273438 0 c 6,21,-1
 -8.66015625 0 l 5,22,-1
 -8.66015625 178.98046875 l 5,23,-1
 54.23046875 178.98046875 l 6,24,25
 246.740234375 179 246.740234375 179 317 205.961914062 c 5,26,27
 227.740234375 265 227.740234375 265 184.708984375 364.021484375 c 4,28,29
 160.740234375 418 160.740234375 418 161.22265625 470.241210938 c 4,30,31
 160.740234375 694 160.740234375 694 354.640625 773.921875 c 4,32,33
 417.740234375 800 417.740234375 800 510.3984375 799.170898438 c 4,34,35
 602.740234375 799 602.740234375 799 660.5 766.327148438 c 4,8,9
EndSplineSet
EndChar

StartChar: uni066F.fina
Encoding: 65546 -1 284
Width: 1405
VWidth: 2186
GlyphClass: 2
Flags: W
AnchorPoint: "Anchor-10" 353 905 basechar 0
AnchorPoint: "Anchor-7" 452.645 -585.82 basechar 0
LayerCount: 2
Fore
SplineSet
1124.45800781 424.975585938 m 0,0,1
 1093 502 1093 502 1015.22226486 502.029130083 c 0,2,3
 961 502 961 502 915.100699604 438.905793157 c 0,4,5
 870 376 870 376 869.585971054 298.290340566 c 0,6,7
 870 212 870 212 929.5 186.117 c 0,8,9
 971 168 971 168 1030.71549763 167.607923924 c 0,10,11
 1090 168 1090 168 1156.99 178.568 c 1,12,13
 1157 345 1157 345 1124.45800781 424.975585938 c 0,0,1
265.173589337 65.417606329 m 4,14,15
 265 -332 265 -332 721.145462532 -331.464668233 c 0,16,17
 927 -331 927 -331 1030.58903273 -235.653834116 c 0,18,19
 1134 -140 1134 -140 1143.41992188 2.4833984375 c 1,20,-1
 1007.15 2.87793 l 24,21,22
 838 6 838 6 763.383 107.463 c 0,23,24
 707 184 707 184 706.510272496 277.703368825 c 0,25,26
 707 371 707 371 755.5 478.117 c 0,27,28
 854 693 854 693 1007.6322325 692.274645092 c 0,29,30
 1192 691 1192 691 1262.69042969 525.8984375 c 0,31,32
 1312.50546485 408.811942872 1312.50546485 408.811942872 1318.08007812 216.940429688 c 2,33,-1
 1319.15 180.115 l 17,34,35
 1319.7103139 179.38 1319.7103139 179.38 1385.55 179.38 c 2,36,-1
 1440.96 179.38 l 1,37,-1
 1440.96 0.5 l 1,38,-1
 1309.78 0.5 l 1,39,40
 1296 -222 1296 -222 1128 -372.816 c 0,41,42
 994 -493 994 -493 725.176351872 -493.132488149 c 0,43,44
 401 -493 401 -493 245.750410782 -345.528008286 c 0,45,46
 90 -198 90 -198 90.1944681849 53.5716238443 c 0,47,48
 90 267 90 267 188.565 466.784 c 1,49,-1
 351.536 426.435 l 1,50,51
 265 202 265 202 265.173589337 65.417606329 c 4,14,15
EndSplineSet
EndChar

StartChar: arabic_ring
Encoding: 65549 -1 287
Width: 438
GlyphClass: 2
Flags: W
LayerCount: 2
Fore
SplineSet
316 220 m 0,0,1
 316 260 316 260 288 288 c 0,2,3
 260 317 260 317 219 317 c 128,-1,4
 178 317 178 317 150 289 c 128,-1,5
 122 261 122 261 122 220 c 0,6,7
 122 178 122 178 150 150 c 0,8,9
 178 123 178 123 219 123 c 128,-1,10
 260 123 260 123 288 151 c 128,-1,11
 316 179 316 179 316 220 c 0,0,1
438 220 m 128,-1,13
 438 128 438 128 375 64 c 0,14,15
 311 0 311 0 219 0 c 128,-1,16
 127 0 127 0 64 64 c 0,17,18
 0 128 0 128 0 220 c 128,-1,19
 0 312 0 312 64 376 c 0,20,21
 127 439 127 439 219 439 c 128,-1,22
 311 439 311 439 375 376 c 1,23,12
 438 312 438 312 438 220 c 128,-1,13
EndSplineSet
EndChar

StartChar: arabic_gaf_bar
Encoding: 65550 -1 288
Width: 678
GlyphClass: 2
Flags: W
LayerCount: 2
Fore
SplineSet
659 1654 m 1,0,-1
 0 1333 l 1,1,-1
 0 1442 l 1,2,-1
 659 1763 l 1,3,-1
 659 1654 l 1,0,-1
EndSplineSet
EndChar

StartChar: uni066E.init.math
Encoding: 65560 -1 298
Width: 877
VWidth: 2186
GlyphClass: 2
Flags: W
LayerCount: 2
Fore
SplineSet
577.471 95.876 m 0,0,1
 504.315 8.5 504.315 8.5 342.4 8.5 c 2,2,-1
 -8.40039 8.5 l 1,3,-1
 -8.40039 179.38 l 1,4,-1
 283.55 179.38 l 2,5,6
 394.865 179.38 394.865 179.38 445.752 230.268 c 0,7,8
 501.99 286.505 501.99 286.505 501.99 405.31 c 2,9,-1
 501.99 624.5 l 1,10,-1
 672.87 624.5 l 1,11,-1
 672.87 405.31 l 2,12,13
 672.87 209.942 672.87 209.942 577.471 95.876 c 0,0,1
EndSplineSet
EndChar

StartChar: guillemotleft
Encoding: 171 171 299
Width: 1110
VWidth: 0
Flags: W
LayerCount: 2
Fore
SplineSet
927.379882812 884.459960938 m 5,0,-1
 927.379882812 704.919921875 l 5,1,-1
 740 538.083007812 l 6,2,3
 644.440429688 453 644.440429688 453 744 364.35546875 c 6,4,-1
 927.379882812 201.080078125 l 5,5,-1
 927.379882812 21.5400390625 l 5,6,-1
 658 261.626953125 l 6,7,8
 443.27734375 453 443.27734375 453 660 646.155273438 c 6,9,-1
 927.379882812 884.459960938 l 5,0,-1
519.379882812 884.459960938 m 5,10,-1
 519.379882812 704.919921875 l 5,11,-1
 332 538.083007812 l 6,12,13
 236.440429688 453 236.440429688 453 336 364.35546875 c 6,14,-1
 519.379882812 201.080078125 l 5,15,-1
 519.379882812 21.5400390625 l 5,16,-1
 250 261.626953125 l 6,17,18
 35.27734375 453 35.27734375 453 252 646.155273438 c 6,19,-1
 519.379882812 884.459960938 l 5,10,-1
EndSplineSet
EndChar

StartChar: guillemotright
Encoding: 187 187 300
Width: 1112
VWidth: 0
Flags: W
LayerCount: 2
Fore
SplineSet
184 884.459960938 m 5,0,-1
 451.379882812 646.155273438 l 6,1,2
 668.102539062 453 668.102539062 453 453.379882812 261.626953125 c 6,3,-1
 184 21.5400390625 l 5,4,-1
 184 201.080078125 l 5,5,-1
 367.379882812 364.35546875 l 6,6,7
 466.939453125 453 466.939453125 453 371.379882812 538.083007812 c 6,8,-1
 184 704.919921875 l 5,9,-1
 184 884.459960938 l 5,0,-1
592 884.459960938 m 5,10,-1
 859.379882812 646.155273438 l 6,11,12
 1076.10253906 453 1076.10253906 453 861.379882812 261.626953125 c 6,13,-1
 592 21.5400390625 l 5,14,-1
 592 201.080078125 l 5,15,-1
 775.379882812 364.35546875 l 6,16,17
 874.939453125 453 874.939453125 453 779.379882812 538.083007812 c 6,18,-1
 592 704.919921875 l 5,19,-1
 592 884.459960938 l 5,10,-1
EndSplineSet
EndChar

